<svg aria-hidden="true" style="width:0;height:0;position:absolute;overflow:hidden" xmlns="http://www.w3.org/2000/svg"><defs><symbol id="burger" viewBox="0 0 32 32"><path fill="none" stroke="#fff" style="stroke:var(--color1,#fff)" stroke-linecap="round" stroke-width="2" d="M6 10h20M6 16h20M6 22h20"/></symbol><symbol id="cow" viewBox="0 0 31 32"><path d="M6.002.778c-.254.219-.98 1.732-1.24 2.558-.31 1.024-.415 1.792-.374 2.851.056 1.514.437 2.662 1.275 3.861.219.315.395.585.395.607 0 .015-.134.029-.303.029-.726 0-2.086.241-3.128.555C.972 11.736 0 12.606 0 13.579c0 .343.31.928.641 1.228.641.578 2.043 1.126 3.55 1.389.521.095 2.071.256 2.416.264.063 0 .085.336.085 1.44 0 .951.035 1.689.106 2.142.253 1.623 1.042 3.342 2.084 4.555l.36.417-.24.387c-.352.548-.486.965-.528 1.586-.106 1.492.823 2.815 2.621 3.744 3.422 1.776 8.741 1.082 10.735-1.404.972-1.214 1.085-2.603.317-3.861l-.24-.388.43-.519c.803-.965 1.324-1.93 1.718-3.152.331-1.038.458-2.04.458-3.626 0-.724.021-1.323.056-1.323.324-.008 1.881-.176 2.374-.264 1.514-.263 2.889-.804 3.55-1.389.331-.3.641-.885.641-1.228 0-1.083-1.098-1.96-3.142-2.486-.669-.176-1.93-.387-2.543-.424l-.289-.023.317-.438c.394-.534.887-1.571 1.078-2.252.535-1.967.204-4.255-.944-6.441-.48-.905-.811-1.117-1.198-.759-.148.138-.212.329-.352 1.016-.437 2.186-1.247 3.92-2.43 5.199l-.521.571H9.966l-.465-.505c-1.155-1.271-1.994-3.07-2.43-5.264-.141-.688-.204-.877-.352-1.016-.233-.212-.458-.205-.718.022zm.901 4.336c.374.819.839 1.586 1.387 2.295l.437.563-.457.344c-.43.329-.831.797-1.142 1.33l-.133.242-.338-.461c-1.155-1.594-1.444-3.546-.831-5.571.296-.98.289-.973.556-.125.127.409.367 1.031.521 1.382zm18.335-1.543c.255.709.403 1.526.403 2.378l-.001.09v-.005c0 1.331-.352 2.456-1.091 3.465l-.331.453-.247-.417a4.425 4.425 0 0 0-1.22-1.344l-.013-.009c-.19-.124-.337-.248-.337-.263 0-.022.133-.19.303-.373.782-.87 1.62-2.435 2.036-3.779.126-.418.253-.761.274-.761s.127.256.225.562zM21.64 8.916c.782.329 1.528 1.271 1.648 2.069.063.439.211.717.401.761.085.015.669.066 1.296.109 2.225.147 3.979.622 4.727 1.272.345.307.31.563-.105.878-.831.629-2.627 1.104-4.459 1.185-1.212.051-1.465.086-1.628.255-.119.125-.133.256-.133 1.579 0 1.792-.092 2.823-.317 3.656-.317 1.133-.944 2.34-1.676 3.196l-.303.351-.627-.373a7.624 7.624 0 0 0-2.272-.933l-.053-.01c-2.67-.636-5.622-.248-7.607 1.002l-.458.292-.289-.343c-.394-.461-1.014-1.448-1.261-2.003-.542-1.258-.704-2.282-.704-4.534 0-2.186.112-2.026-1.507-2.113-2.071-.11-3.65-.483-4.643-1.111-.733-.468-.612-.885.409-1.375.979-.476 2.324-.76 4.191-.877 1.451-.095 1.486-.117 1.62-.819.197-1.06.979-1.937 1.966-2.216.246-.073 1.627-.087 5.853-.08l5.53.014.401.169zm-3.96 15.135c1.726.424 3.015 1.213 3.572 2.193.134.227.19.461.218.819.029.446.008.555-.162.921-.782 1.661-3.656 2.756-6.579 2.508-3.515-.292-5.826-2.252-4.917-4.175.493-1.038 2.162-2.032 3.923-2.326.289-.043.578-.095.634-.11s.691-.015 1.41 0c.978.023 1.45.066 1.901.169z"/><path d="M10.693 12.579c-.437.147-.733.337-1.127.732-.346.329-.374.716-.085.95.268.219.521.19.845-.095.409-.359.726-.505 1.121-.505.394-.007.697.132 1.119.505.324.285.578.314.846.095.141-.118.183-.212.183-.432 0-.226-.049-.329-.297-.577-.697-.702-1.732-.972-2.606-.673zm8.213-.007c-.45.168-1.028.548-1.26.833-.226.278-.233.592 0 .827.232.248.514.233.852-.044.831-.688 1.451-.709 2.219-.073.197.169.422.3.493.3.345 0 .627-.307.627-.673 0-.233-.585-.775-1.113-1.031-.585-.285-1.282-.336-1.817-.138zm-7.191 13.534c-.204.197-.275.483-.169.709.078.183.197.256.683.387.219.058.31.131.387.314.099.242.106.242.649.264l.542.022v-.205c-.007-.292-.169-.716-.381-1.008-.246-.337-.676-.556-1.162-.6-.331-.029-.415-.015-.549.118zm6.727-.052c-.352.095-.859.571-1 .943-.07.196-.118.423-.134.658v.008c-.014.314.014.387.183.541.415.365.965.08.965-.505 0-.285.211-.483.585-.555.394-.073.535-.233.542-.607 0-.489-.437-.68-1.142-.483z"/></symbol><symbol id="facebook" viewBox="0 0 32 32"><path fill="#f8d24e" style="fill:var(--color2,#f8d24e)" d="M16 32c8.837 0 16-7.163 16-16S24.837 0 16 0 0 7.163 0 16s7.163 16 16 16z"/><path fill="#84a178" style="fill:var(--color3,#84a178)" d="M20.446 15.981h-2.611V25.6H13.88v-9.619H12v-3.379h1.88v-2.187c0-1.564.739-4.014 3.991-4.014l2.929.012v3.281h-2.125c-.348 0-.839.176-.839.922v1.989h2.955l-.345 3.377z"/></symbol><symbol id="github" viewBox="0 0 32 32"><path fill="#f8d24e" style="fill:var(--color2,#f8d24e)" d="M32 16c0 8.837-7.163 16-16 16S0 24.837 0 16 7.163 0 16 0s16 7.163 16 16z"/><path fill="#84a178" style="fill:var(--color3,#84a178)" d="M16 6.588c-5.17 0-9.412 4.242-9.412 9.412 0 4.411 3.096 8.419 7.206 9.412v-3.113a2.29 2.29 0 0 1-1.212-.036l.016.004c-.556-.164-1.008-.535-1.344-1.099-.214-.36-.593-.753-.988-.724l-.097-1.098c.856-.073 1.594.521 2.033 1.258.196.328.421.52.709.605.278.083.577.043.925-.08.088-.697.408-.958.649-1.327-2.452-.365-3.429-1.666-3.816-2.692-.514-1.364-.238-3.066.67-4.143.018-.021.05-.075.038-.113-.417-1.259.09-2.3.109-2.41.481.141.559-.143 2.089.786l.264.159c.111.066.075.028.186.019a7.787 7.787 0 0 1 1.97-.276h.006a8.021 8.021 0 0 1 2.002.284l.086.009c-.008-.002.024-.006.075-.037 1.911-1.158 1.842-.779 2.355-.946.019.111.519 1.169.106 2.411-.056.171 1.656 1.739.708 4.256-.388 1.026-1.365 2.328-3.816 2.693.314.48.692.734.69 1.722v3.886c4.109-.993 7.206-5 7.206-9.412 0-5.17-4.242-9.412-9.412-9.412z"/></symbol><symbol id="ice-crema" viewBox="0 0 32 32"><path d="M16.108.107c.08.215.241 1.252.241 1.573v.011c0 .818-.318 1.561-.838 2.114l.001-.002c-.449.482-.898.749-1.975 1.185-1.198.489-1.694.783-2.256 1.339-.569.569-.904 1.191-1.024 1.922-.134.796 0 1.358.408 1.68l.207.16-.328.208c-.662.436-1.867 1.46-2.075 1.774-.402.603-.362 1.164.093 1.393l.214.107-.241.228c-.362.341-.436.576-.382 1.191.034.409.02.63-.073.964-.114.436-.114.442.033.75.148.301.563.683.938.844.18.08.187.107.228.723.02.356.053 1.486.08 2.517.02 1.031.068 1.975.107 2.089.057.148.152.27.273.359l.002.002c.388.268.656.556.829.891.195.382.409 1.319 1.058 4.559l.455 2.276.282.268c.535.529 1.56.77 3.247.77 1.693 0 2.704-.235 3.24-.764l.288-.274.414-2.109c.916-4.612.997-4.867 1.714-5.436.22-.181.436-.402.475-.502.047-.114.094-.991.127-2.316.027-1.178.068-2.343.094-2.591l.04-.448.436-.329c.548-.421.763-.803.763-1.392-.006-.696-.462-1.46-1.292-2.142l-.396-.321.195-.276c.81-1.117.301-2.664-1.205-3.694l-.455-.315.167-.174c.743-.796.864-3.173.241-4.827-.374-.984-1.232-2.055-2.283-2.845-.514-.388-1.934-1.245-2.06-1.245-.027 0-.027.047-.006.107zm1.928 2.337c.356.348.783.823.951 1.064.997 1.393 1.252 3.14.649 4.426-.241.522-.964 1.298-1.634 1.76-1.024.71-3.327 1.902-4.933 2.557-2.584 1.052-4.084 1.252-4.258.563-.068-.261.127-.468.951-1.018.742-.508 4.076-2.986 4.136-3.086.02-.027-.321.127-.749.341-1.452.737-2.142.596-2.108-.428.02-.743.556-1.587 1.298-2.068.188-.12.771-.388 1.307-.603 1.76-.709 2.296-1.071 2.892-1.961.356-.529.743-1.507.77-1.922.007-.147.034-.261.053-.261s.322.288.676.636zm1.827 7.606c.489.274.997.743 1.218 1.111.389.662.188 1.325-.649 2.169-.91.924-2.463 1.808-4.171 2.37-1.573.516-3.079.756-5.236.83l-1.339.047.871.053c1.124.074 3.3.007 4.143-.127 2.243-.356 4.151-1.065 5.516-2.042.308-.221.629-.402.716-.402.221 0 1.185.924 1.38 1.312.107.221.133.382.114.596-.1.891-1.186 1.366-3.803 1.68-3.2.382-7.384.007-9.172-.816-.844-.388-.984-.61-.77-1.198.067-.188.08-.409.053-.724-.034-.415-.027-.468.12-.622.335-.362.898-.569 2.96-1.092.723-.187 1.707-.482 2.175-.656 1.138-.415 3.274-1.493 4.264-2.156.931-.616 1.065-.643 1.607-.334zm-8.891 8.194c1.406.409 2.652.529 4.968.482 1.74-.033 2.812-.14 4.357-.415.316-.053.589-.1.623-.1.074 0 .053 2.571-.027 3.247-.087.716-.282 1.272-.489 1.406-.214.14-1.285.288-2.718.368-2.939.16-5.958 0-6.895-.375-.508-.207-.563-.476-.569-2.959 0-1.653.013-1.881.1-1.847.053.02.348.107.649.194zm1.587 5.69c.482.06 1.004.12 1.164.14l.289.034-.255.281c-.328.355-.83 1.064-1.011 1.426-.207.415-.275.442-.582.275l-.261-.148-.147-.91a23.34 23.34 0 0 0-.216-1.217l.028.165c-.06-.173-.121-.173.99-.046zm7.137-.074c0 .013-.034.187-.068.382-.04.2-.207 1.292-.374 2.429-.341 2.377-.569 3.494-.777 3.869-.288.502-.978.796-2.095.891-.436.034-1.748-.053-1.821-.121-.053-.06 1.098-1.486 1.279-1.58.167-.094.213-.08.782.213.663.349.998.403.998.181s-.174-.436-.603-.729c-.395-.282-.535-.443-.535-.63 0-.053.194-.355.428-.669s.575-.817.749-1.118l.329-.542.3.041c.609.087.77.08.75-.053-.013-.068-.127-.261-.255-.422-.127-.167-.228-.335-.228-.368 0-.127.622-1.299.824-1.547.174-.214.315-.322.315-.228zm-4.184.536c.334.221 1.593 1.313 1.673 1.446.034.06-1.258 2.082-1.513 2.37-.027.034-.167-.033-.308-.14a20.117 20.117 0 0 0-1.08-.752l-.085-.052-.904-.596.542-.917c.964-1.613.944-1.587 1.151-1.587.107 0 .341.1.523.228zm2.537.24c-.235.288-.428.469-.508.469-.174 0-.456-.154-.931-.502l-.396-.288.791-.047c.348-.013.665-.034.98-.065l-.064.005c.536-.087.536-.08.128.428zm-5.061 3.221c.616.241 1.66.81 1.962 1.065.214.173.214.187.127.401a6.654 6.654 0 0 1-.43.741l.015-.024a10.9 10.9 0 0 0-.417.682l-.032.061c-.213.415-.281.449-.723.329-.476-.141-.729-.382-.863-.818-.181-.609-.469-2.329-.436-2.597.013-.1.294-.04.796.161z"/></symbol><symbol id="logo-desc" viewBox="0 0 30 32"><path fill="#f8d24e" style="fill:var(--color2,#f8d24e)" d="M15.226 17.082c1.415-3.784-1.515-5.855-3.457-7.217-.371-.278-.742-.538-1.044-.776a3.627 3.627 0 0 1-1.133-1.674l-.007-.026a3.48 3.48 0 0 1-.163-1.067c0-.345.049-.679.141-.995l-.006.025a.39.39 0 0 0-.115-.395.402.402 0 0 0-.412-.08l.003-.001c-.69.273-1.285.63-1.811 1.067l.011-.009a4.272 4.272 0 0 0-1.215 1.452l-.011.024a4.115 4.115 0 0 0-.442 1.857v.001a4.977 4.977 0 0 0-.952.978l-.01.014a3.579 3.579 0 0 0-.709 2.332v-.008a4.607 4.607 0 0 0-1.276 1.945l-.009.032a4.55 4.55 0 0 0-.124 2.376l-.005-.03c-.234.141-.416.35-.518.599l-.003.008a1.2 1.2 0 0 0-.088.457c0 .12.017.237.05.347l-.002-.009c.075.262.235.493.456.657.209.156.473.25.758.25H3.168v2.151c0 .219.089.428.245.583s.369.241.591.241h.65l1.058 9.04c.022.201.118.387.271.522s.351.21.556.21h4.404c.206 0 .404-.075.557-.21s.251-.32.275-.522l1.058-9.04h.65a.844.844 0 0 0 .591-.241.817.817 0 0 0 .245-.582v-2.152H14.347c.348 0 .663-.139.894-.365a1.24 1.24 0 0 0 .371-.883v-.014c0-.343-.142-.654-.371-.875l-.011.003zm-9.531-6.866c.535 1.98 2.599 2.759 4.482 3.455a.41.41 0 0 0 .493-.052.4.4 0 0 0 .124-.289l-.001-.028v.001a.393.393 0 0 0-.166-.295l-.001-.001a.402.402 0 0 0-.16-.068h-.003c-2.027-.758-3.939-1.464-4.084-3.488a3.32 3.32 0 0 1 .318-1.639l-.009.02a3.417 3.417 0 0 1 1.038-1.277l.009-.006c.283-.231.586-.438.906-.615a4.491 4.491 0 0 0 .002.779l-.001-.017c.047.615.216 1.181.484 1.686l-.011-.023c.281.531.648.98 1.087 1.343l.007.006c.308.26.691.527 1.114.812.977.692 2.087 1.465 2.792 2.511.441.619.704 1.39.704 2.223 0 .538-.11 1.051-.309 1.517l.01-.025h-1.641c-3.382 0-7.27-.922-8.038-3.506a2.94 2.94 0 0 1 .009-1.646l-.005.021a2.968 2.968 0 0 1 .87-1.377l.003-.003-.019-.018zM8.74 22.693l1.24 1.222-1.241 1.222-1.24-1.23 1.24-1.215zm2.844 3.21-1.025 1.01-1.24-1.222 1.241-1.219 1.076 1.057-.052.374zM8.74 28.706l-1.241-1.222 1.241-1.222 1.24 1.222-1.241 1.222zm-.568-3.008L6.931 26.92l-1.032-1.018-.044-.366 1.077-1.057 1.24 1.219zM6.36 27.484l-.249.245-.063-.556.312.311zm-.13 1.251.702-.692 1.363 1.354a.763.763 0 0 0 .026.081H6.316l-.086-.743zm4.322-.691.702.692-.086.732h-2.06l1.444-1.424zm.816-.315-.249-.245.316-.311-.067.556zm.372-3.199-.62-.622.787-.776-.167 1.398zm-1.192-1.178-1.177-1.156h2.354l-1.177 1.157zm-3.62 0-1.177-1.156h2.354l-1.177 1.157zm4.01 7.817h-4.4a.03.03 0 0 1-.026-.025l-.104-.879h4.664l-.1.879a.03.03 0 0 1-.029.026h-.003zm3.405-12.751h-1.292a.406.406 0 0 0-.311.102.392.392 0 0 0 0 .59.403.403 0 0 0 .271.103l.042-.002h-.002.46v2.152a.032.032 0 0 1-.01.019.032.032 0 0 1-.019.007H3.986a.032.032 0 0 1-.019-.007.032.032 0 0 1-.01-.019v-2.152h7.355a.408.408 0 0 0 .261-.129.394.394 0 0 0 0-.537.402.402 0 0 0-.259-.128h-8.17a.467.467 0 0 1-.353-.117.453.453 0 0 1-.15-.335v-.001c0-.133.058-.252.149-.334a.462.462 0 0 1 .31-.119l.044.002h-.002.843a.408.408 0 0 0 .261-.129.394.394 0 0 0 0-.537.408.408 0 0 0-.259-.129h-.744a3.919 3.919 0 0 1 .056-1.707l-.006.027c.15-.579.412-1.083.764-1.511l-.005.007c.26.798.928 1.889 2.599 2.756 1.57.808 3.65 1.222 6.178 1.222h1.485a.462.462 0 0 1 .352.117.453.453 0 0 1 .15.335v.001a.449.449 0 0 1-.149.334.462.462 0 0 1-.31.119l-.044-.002H14.341z"/><path fill="#f8d24e" style="fill:var(--color2,#f8d24e)" d="m16.964 29.152-.293.448.006.004.287-.453zm3.149.152.535-.012-.014-.62-.611.104.09.528zm.037 1.647.136.518.409-.108-.01-.422-.535.012zm-4.133.079.121-.522-.003-.001-.117.523zm-2.039-.911.347-.409h-.001l-.346.409zm-.738-1.673.536.003v-.003h-.536zm.256-1.172-.48-.236v.001l.48.235zm1.642-1.402.19.501.002-.001-.192-.5zm5.263-.136.534.041.035-.452-.44-.109-.129.52zm-.131 1.679-.099.526.587.111.046-.596-.534-.042zm-1.428-.687c-.804 0-1.48.086-1.973.303a1.616 1.616 0 0 0-.651.489 1.253 1.253 0 0 0-.255.76v.015-.001h1.071v-.013c0-.043.014-.083.038-.115a.57.57 0 0 1 .228-.156c.288-.127.783-.212 1.542-.212v-1.072zm-2.879 1.566c0 .551.247 1.006.709 1.307l.585-.897a.433.433 0 0 1-.223-.409h-1.071zm.714 1.31c.438.277 1.015.381 1.663.381v-1.071c-.559 0-.899-.095-1.089-.215l-.574.905zm1.663.381c.635 0 1.256-.051 1.863-.154l-.179-1.056c-.5.088-1.077.139-1.665.139h-.02.001v1.071zm1.238-.67.036 1.648 1.071-.024-.037-1.647-1.071.024zm.435 1.118a7.964 7.964 0 0 1-2.029.244v1.071c.821 0 1.589-.092 2.302-.279l-.273-1.036zm-2.029.244c-.757 0-1.369-.06-1.846-.169l-.241 1.044c.582.134 1.281.197 2.087.197v-1.071zm-1.85-.17c-.511-.114-.881-.236-1.127-.356l-.47.962c.353.172.814.316 1.363.439l.234-1.046zm-1.126-.356a3.264 3.264 0 0 1-.688-.444l.005.004-.693.817c.263.222.561.417.881.574l.026.011.47-.962zm-.685-.441c-.364-.308-.55-.709-.547-1.262l-1.071-.005c-.004.842.301 1.556.927 2.085l.692-.818zm-.547-1.264c0-.36.07-.669.202-.936l-.962-.471c-.211.43-.311.902-.311 1.407h1.071zm.201-.936c.243-.495.673-.88 1.351-1.137l-.38-1.002c-.884.336-1.549.886-1.933 1.666l.961.473zm1.354-1.138c.712-.273 1.507-.414 2.392-.414v-1.071c-.999 0-1.926.159-2.776.485l.384 1zm2.392-.414c.901 0 1.751.1 2.549.298l.258-1.04c-.89-.221-1.826-.33-2.807-.33v1.071zm2.144-.263-.13 1.679 1.068.084.131-1.679-1.068-.083zm.503 1.194a8.343 8.343 0 0 0-1.528-.161v1.071c.377 0 .818.046 1.328.142l.199-1.053zm5.226.855-.003.536.544.003-.005-.544-.536.005zm-.23-.695-.364.393.005.004.359-.397zm-1.334.053.371.386.004-.004-.375-.383zm-.324.632-.529-.087-.101.619.627.003.003-.536zm3.938 2.856.324.427.192-.146.018-.241-.534-.039zm-1.156.429-.115-.523h-.003l.118.523zm-4.017-.146-.182.504.004.001.178-.505zm-.915-.487-.332.42.003.002.003.002.326-.425zm-.612-.769-.48.237.001.002.479-.24zm.627-3.248zm4.896-.581.214-.49-.005-.002-.209.493zm1.23 1.13-.482.234.001.003.48-.237zm.209.937.534.038.001-.019v-.02h-.536zm-.063.863-.002.536.501.002.036-.499-.534-.039zm-4.242-.021.003-.536-.699-.003.178.676.518-.137zm.607.748-.263.466.002.001.261-.468zm3.253-.183v-.536h-.107l-.098.041.206.495zm.282 0 .534.039.043-.575h-.577v.536zm-1.613-1.523c-.004-.387-.094-.803-.406-1.087l-.72.794c-.006-.005.006.001.021.047a.87.87 0 0 1 .033.257l1.071-.011zm-.402-1.082c-.281-.261-.65-.347-1.013-.347v1.071c.208 0 .272.05.284.061l.729-.785zm-1.013-.348c-.399 0-.77.125-1.06.409l.75.766c.059-.058.144-.103.31-.103v-1.072zm-1.056.406a1.63 1.63 0 0 0-.481.923l-.001.009 1.057.174a.568.568 0 0 1 .166-.334l-.742-.773zm.044 1.555 1.889.01.006-1.071-1.889-.011-.006 1.071zm3.618 1.893c-.118.089-.404.213-.948.333l.23 1.046c.565-.125 1.05-.287 1.365-.525l-.647-.854zm-.951.334a6.544 6.544 0 0 1-1.496.175h-.002v1.071c.566 0 1.145-.068 1.735-.202l-.236-1.045zm-1.498.175c-.505 0-.921-.024-1.252-.068l-.143 1.062c.394.053.861.078 1.395.078v-1.071zm-1.252-.069a4.79 4.79 0 0 1-1.004-.247l.034.011-.357 1.01a5.96 5.96 0 0 0 1.184.288l.143-1.062zm-.966-.234a2.82 2.82 0 0 1-.772-.408l-.652.85c.305.234.661.42 1.058.565l.365-1.007zm-.766-.403a1.726 1.726 0 0 1-.461-.578l-.004-.01-.958.479c.186.377.442.694.753.945l.005.004.666-.84zm-.464-.586c-.113-.228-.18-.521-.18-.897h-1.071c0 .502.09.965.29 1.372l.96-.475zm-.18-.898c0-.377.068-.71.196-1.006l-.983-.426a3.57 3.57 0 0 0-.285 1.432h1.071zm.196-1.005c.135-.311.3-.542.487-.707l-.713-.8a3.036 3.036 0 0 0-.757 1.082l.983.426zm.488-.708c.576-.513 1.454-.811 2.719-.811v-1.071c-1.419 0-2.591.333-3.432 1.083l.713.799zm2.719-.811h.019c.575 0 1.123.119 1.619.334l-.026-.01.418-.986a5.069 5.069 0 0 0-2.01-.409h-.021.001v1.071zm1.606.321c.474.207.78.5.961.873l.963-.468c-.307-.632-.82-1.092-1.497-1.387l-.428.982zm.963.877c.1.202.154.432.154.699h1.071c0-.417-.086-.811-.265-1.174l-.96.474zm.156.659-.063.863 1.068.078.063-.863-1.068-.077zm.474.367-4.242-.021-.005 1.071 4.242.021.005-1.071zm-4.763.651c.126.475.432.834.862 1.078l.527-.933c-.212-.12-.31-.258-.352-.418l-1.036.274zm.863 1.079c.434.243.978.34 1.585.34v-1.071c-.509 0-.848-.084-1.062-.204l-.523.935zm1.585.34c.651 0 1.367-.176 2.136-.496l-.412-.989c-.688.287-1.26.414-1.724.414v1.071zm1.93-.455h.283v-1.071h-.282v1.071zm-.251-.576-.1 1.329 1.068.08.099-1.329-1.068-.08z"/></symbol><symbol id="logo-mobile" viewBox="0 0 35 32"><path fill="#f8d24e" style="fill:var(--color2,#f8d24e)" d="M17.384 14.109c1.632-4.366-1.747-6.756-3.988-8.327-.428-.321-.856-.621-1.204-.895a4.182 4.182 0 0 1-1.307-1.931l-.008-.03a4.14 4.14 0 0 1-.027-2.38l-.007.029a.447.447 0 0 0-.131-.454.461.461 0 0 0-.475-.093l.003-.001a7.624 7.624 0 0 0-2.09 1.231l.012-.01A4.92 4.92 0 0 0 6.76 2.923l-.013.028a4.756 4.756 0 0 0-.509 2.143 5.644 5.644 0 0 0-1.109 1.144 4.126 4.126 0 0 0-.818 2.691v-.01a5.314 5.314 0 0 0-1.472 2.245l-.011.037a5.135 5.135 0 0 0-.26 1.631c0 .38.041.751.117 1.108l-.006-.034c-.271.163-.48.404-.598.692l-.003.01a1.404 1.404 0 0 0-.047.918c.091.311.277.571.522.754l.004.003c.255.189.566.291.884.288h.03v2.483c0 .253.101.494.282.672s.426.278.682.278h.749l1.221 10.43c.025.232.136.446.313.603s.404.242.642.242h5.08c.237 0 .466-.087.643-.243s.29-.371.317-.602l1.221-10.429h.749a.977.977 0 0 0 .682-.278.94.94 0 0 0 .282-.673v-2.483h.029c.387 0 .76-.152 1.033-.421.264-.259.427-.62.428-1.019v-.015a1.4 1.4 0 0 0-.428-1.01l-.013.004zM6.388 6.188c.617 2.285 2.998 3.183 5.171 3.987a.47.47 0 0 0 .679-.225l.001-.003a.453.453 0 0 0-.161-.538l-.001-.001a.466.466 0 0 0-.184-.078h-.003c-2.339-.875-4.546-1.689-4.712-4.024a3.845 3.845 0 0 1 .366-1.89l-.01.023a3.937 3.937 0 0 1 1.198-1.475l.01-.007a7.015 7.015 0 0 1 1.01-.69l.035-.018a5.406 5.406 0 0 0 .001.898l-.001-.02a4.964 4.964 0 0 0 1.8 3.467l.008.007c.355.3.797.608 1.285.937 1.127.798 2.407 1.689 3.221 2.897A4.42 4.42 0 0 1 16.914 12c0 .621-.127 1.213-.357 1.75l.011-.029h-1.893c-3.902 0-8.387-1.064-9.274-4.045a3.369 3.369 0 0 1 .01-1.899l-.006.024c.19-.635.54-1.174 1.004-1.589l.003-.003-.022-.021zm3.513 14.395 1.432 1.41-1.432 1.411-1.431-1.419 1.432-1.401zm3.281 3.702L12 25.45l-1.432-1.411L12 22.633l1.242 1.221-.06.43zM9.901 27.52 8.47 26.109l1.432-1.41 1.43 1.41-1.431 1.411zm-.656-3.471L7.814 25.46l-1.191-1.173-.051-.422 1.242-1.221 1.431 1.406zm-2.09 2.06-.287.283-.073-.642.36.359zm-.15 1.445.809-.798 1.572 1.563c.008.031.018.062.029.093H7.103l-.099-.857zm4.986-.799.81.798-.099.845h-2.377l1.667-1.642zm.943-.362-.287-.284.364-.359-.077.642zm.428-3.691-.715-.718.908-.895-.193 1.613zm-1.375-1.36-1.358-1.334h2.716l-1.357 1.334zm-4.176 0-1.358-1.334h2.716l-1.357 1.334zm4.626 9.019H7.36a.034.034 0 0 1-.03-.029l-.12-1.013h5.38l-.115 1.013a.03.03 0 0 1-.012.022.036.036 0 0 1-.023.008h-.004zm3.928-14.71h-1.491a.473.473 0 0 0-.359.118.46.46 0 0 0-.112.529l-.001-.003c.054.119.154.21.276.25l.003.001a.456.456 0 0 0 .193.021h-.002.531v2.483a.033.033 0 0 1-.033.029H4.415a.033.033 0 0 1-.033-.029v-2.483h8.485a.467.467 0 0 0 .301-.148.454.454 0 0 0 0-.619.472.472 0 0 0-.299-.149H3.442a.537.537 0 0 1-.406-.135h.001a.525.525 0 0 1-.173-.387c0-.153.066-.291.172-.385h.001a.532.532 0 0 1 .408-.135h-.002.973a.47.47 0 0 0 .3-.149.454.454 0 0 0 0-.619.466.466 0 0 0-.299-.148H3.56a4.46 4.46 0 0 1 .066-1.97l-.007.031a4.518 4.518 0 0 1 .881-1.743l-.006.008c.3.92 1.07 2.178 2.998 3.179 1.812.933 4.211 1.41 7.128 1.41h1.714a.537.537 0 0 1 .406.135.525.525 0 0 1 .173.387v.001a.53.53 0 0 1-.58.52h.031zm3.494 12.741-.342.525.008.004.335-.529zm3.681.176.627-.013-.017-.724-.714.12.105.617zm.043 1.927.16.606.477-.126-.011-.493-.627.013zm-4.831.093.141-.611h-.004l-.136.611zm-2.385-1.065zm-.862-1.958.626.003v-.003h-.626zm.299-1.369-.562-.277v.002l.562.275zm1.92-1.639.223.586.002-.001-.224-.585zm6.153-.16.624.049.042-.529-.515-.127-.151.607zm-.153 1.964-.116.615.686.131.055-.697-.625-.048zm-1.669-.803c-.94 0-1.731.1-2.307.354-.296.13-.564.313-.76.572a1.46 1.46 0 0 0-.299.89v.016-.001h1.253c0-.073.017-.115.044-.149a.677.677 0 0 1 .267-.181c.337-.148.916-.248 1.802-.248v-1.253zm-3.367 1.831c0 .644.289 1.176.829 1.528l.683-1.049a.51.51 0 0 1-.259-.478h-1.253zm.836 1.532c.511.323 1.187.445 1.944.445v-1.253c-.654 0-1.052-.11-1.274-.251l-.669 1.058zm1.944.446c.743 0 1.469-.061 2.178-.18l-.21-1.235c-.585.103-1.259.163-1.947.163h-.022.001v1.253zm1.447-.784.042 1.927 1.253-.028-.043-1.927-1.252.028zm.509 1.307a9.28 9.28 0 0 1-2.372.285v1.252c.96 0 1.858-.107 2.691-.327l-.319-1.211zm-2.371.285c-.884 0-1.6-.07-2.159-.199l-.281 1.221c.681.157 1.499.23 2.44.23v-1.252zm-2.164-.199c-.598-.133-1.029-.275-1.317-.416l-.55 1.125c.413.202.952.371 1.594.514l.273-1.223zm-1.317-.416a3.84 3.84 0 0 1-.806-.518l.006.005-.81.955c.313.265.668.493 1.061.684l.549-1.125zm-.8-.515c-.426-.36-.644-.83-.64-1.476l-1.253-.006c-.005.985.352 1.819 1.085 2.438l.808-.957zm-.64-1.48c0-.421.082-.781.236-1.095l-1.126-.551a3.64 3.64 0 0 0-.364 1.6v.048-.002h1.252zm.235-1.093c.285-.579.788-1.029 1.581-1.331l-.445-1.171c-1.034.392-1.811 1.036-2.26 1.948l1.124.553zm1.583-1.33c.833-.32 1.763-.485 2.796-.485v-1.252c-1.168 0-2.252.186-3.245.568l.45 1.17zm2.796-.485c1.054 0 2.047.118 2.981.349l.301-1.215a13.27 13.27 0 0 0-3.216-.386h-.069.004v1.253zm2.507-.308-.152 1.963 1.249.098.152-1.964-1.248-.097zm.589 1.397a9.48 9.48 0 0 0-1.78-.189h-.006v1.253c.44 0 .957.053 1.553.166l.233-1.229zm6.11 1-.003.627.637.003-.007-.637-.627.007zm-.269-.813-.426.459.006.005.421-.463zm-1.559.061.434.452.004-.005-.438-.447zm-.379.74-.618-.101-.12.723.733.004.003-.627zm4.604 3.339.379.499.225-.171.021-.281-.625-.047zm-1.351.502-.135-.612-.003.001.138.611zm-4.697-.172-.213.589.005.002.208-.591zm-1.07-.568-.389.491.008.006.381-.497zm-.716-.899-.562.278.002.003.56-.28zm.734-3.798zm5.724-.679.25-.574-.006-.003-.244.577zm1.437 1.321-.563.274.002.003.561-.278zm.245 1.095.625.045.002-.023v-.023h-.627zm-.073 1.009-.003.627.585.003.042-.584-.624-.045zm-4.96-.025.003-.627-.817-.003.208.79.605-.16zm.71.875-.309.545.003.002.306-.547zm3.804-.214v-.626h-.125l-.115.048.241.578zm.33 0 .625.047.051-.674h-.675v.627zm-1.887-1.781c-.005-.453-.109-.939-.475-1.271l-.842.928c-.007-.007.008.002.025.056a.978.978 0 0 1 .039.278v.024-.001l1.253-.013zm-.47-1.265c-.328-.305-.76-.406-1.185-.406v1.253c.244 0 .318.059.333.071l.852-.918zm-1.184-.406c-.467 0-.9.147-1.24.479l.877.894c.068-.067.168-.12.362-.12v-1.253zm-1.236.474a1.901 1.901 0 0 0-.562 1.08l-.001.011 1.236.203a.66.66 0 0 1 .195-.39l-.867-.904zm.052 1.819 2.208.012.007-1.252-2.208-.013-.007 1.252zm4.23 2.214c-.137.104-.472.248-1.108.388l.269 1.224c.661-.146 1.227-.335 1.595-.615l-.756-.997zm-1.111.389a7.72 7.72 0 0 1-1.75.205h-.002v1.253c.662 0 1.339-.08 2.028-.236l-.276-1.221zm-1.752.204c-.59 0-1.076-.028-1.464-.08l-.168 1.241a12.45 12.45 0 0 0 1.631.092v-1.253zm-1.463-.08a5.721 5.721 0 0 1-1.135-.275l-.417 1.181c.455.16.917.273 1.384.335l.168-1.241zm-1.13-.273a3.324 3.324 0 0 1-.911-.483l.009.006-.762.994a4.54 4.54 0 0 0 1.238.66l.427-1.177zm-.896-.472a2.017 2.017 0 0 1-.539-.675l-.005-.012-1.12.56c.22.441.514.815.887 1.11l.777-.982zm-.543-.684c-.131-.267-.211-.61-.211-1.05h-1.253c0 .588.105 1.129.34 1.605l1.123-.556zm-.21-1.051c0-.44.08-.829.23-1.176l-1.149-.499a4.096 4.096 0 0 0-.334 1.634v.043-.002h1.253zm.23-1.175c.158-.364.351-.632.57-.827l-.834-.936a3.57 3.57 0 0 0-.885 1.264l1.149.499zm.57-.828c.674-.6 1.7-.947 3.179-.947v-1.253c-1.659 0-3.03.39-4.013 1.266l.834.935zm3.179-.947c.664 0 1.29.126 1.884.378l.489-1.154a5.918 5.918 0 0 0-2.35-.478h-.025.001v1.253zm1.878.375c.555.242.913.584 1.125 1.021l1.126-.547c-.359-.739-.958-1.276-1.75-1.622l-.501 1.149zm1.126 1.024c.117.237.179.505.179.817h1.253c0-.487-.101-.947-.31-1.371l-1.123.554zm.181.772-.073 1.009 1.25.091.073-1.009-1.25-.091zm.555.428-4.96-.024-.007 1.253 4.96.024.007-1.253zm-5.569.762c.147.555.504.976 1.007 1.26l.616-1.091c-.248-.14-.362-.302-.412-.488l-1.211.319zm1.009 1.262c.509.284 1.144.397 1.853.397v-1.252c-.595 0-.99-.099-1.241-.239l-.611 1.094zm1.853.397c.762 0 1.599-.206 2.499-.58l-.482-1.156c-.805.335-1.474.484-2.016.484v1.252zm2.257-.532h.331v-1.252h-.33v1.252zm-.294-.673-.116 1.554 1.25.093.116-1.553-1.25-.093z"/></symbol><symbol id="logo-tab" viewBox="0 0 34 32"><path fill="#f8d24e" style="fill:var(--color2,#f8d24e)" d="M17.412 14.169c1.636-4.385-1.75-6.784-3.994-8.363-.429-.321-.858-.623-1.205-.898a4.206 4.206 0 0 1-1.31-1.939l-.008-.03a4.177 4.177 0 0 1-.027-2.39l-.007.029a.458.458 0 0 0-.133-.456.466.466 0 0 0-.476-.093l.003-.001a7.6 7.6 0 0 0-2.081 1.225A4.938 4.938 0 0 0 6.77 2.935l-.013.028a4.779 4.779 0 0 0-.51 2.152v.001a5.752 5.752 0 0 0-1.1 1.133l-.011.016a4.147 4.147 0 0 0-.819 2.702v-.01a5.325 5.325 0 0 0-1.475 2.254l-.011.038A5.31 5.31 0 0 0 2.689 14l-.006-.035c-.271.164-.48.406-.599.694l-.003.01a1.412 1.412 0 0 0-.044.931l-.003-.01c.087.304.272.571.527.761s.567.292.886.289h.03v2.493c0 .253.102.496.283.675s.427.279.683.279h.751L6.417 30.56a.944.944 0 0 0 .313.605.976.976 0 0 0 .644.243h5.089a.977.977 0 0 0 .644-.244.95.95 0 0 0 .317-.6v-.005l1.223-10.473h.751c.256 0 .501-.1.683-.279s.282-.422.282-.675v-2.493h.031c.403 0 .768-.162 1.034-.424.274-.27.429-.639.429-1.022v-.017c0-.398-.164-.757-.429-1.014l-.013.005zM6.399 6.214c.619 2.294 3.004 3.197 5.179 4.004a.471.471 0 0 0 .68-.224l.001-.003a.456.456 0 0 0-.163-.541l-.001-.001a.45.45 0 0 0-.185-.078h-.003c-2.342-.878-4.552-1.696-4.72-4.041a3.867 3.867 0 0 1 .367-1.899l-.01.023c.284-.6.694-1.099 1.199-1.48l.01-.007c.307-.254.65-.49 1.012-.694l.035-.018a5.438 5.438 0 0 0 .001.902l-.001-.02c.05.672.235 1.327.547 1.927a5.078 5.078 0 0 0 1.255 1.556l.008.007c.356.301.798.61 1.287.941 1.129.801 2.411 1.696 3.226 2.908.509.718.814 1.612.814 2.576 0 .623-.127 1.217-.357 1.756l.011-.029h-1.897c-3.908.001-8.4-1.068-9.289-4.061a3.39 3.39 0 0 1 .01-1.908l-.006.024a3.44 3.44 0 0 1 1.005-1.595l.003-.003-.021-.021zm3.518 14.455 1.433 1.416-1.433 1.417-1.433-1.425 1.433-1.408zm3.287 3.719-1.185 1.17-1.433-1.417 1.433-1.412 1.244 1.225-.06.432zm-3.287 3.248-1.434-1.417 1.433-1.417 1.433 1.417-1.433 1.417zm-.656-3.486-1.433 1.417-1.193-1.179-.051-.424 1.244-1.225 1.433 1.412zm-2.094 2.069-.287.284-.073-.645.36.361zm-.15 1.451.811-.802 1.574 1.569a.58.58 0 0 0 .032.097l-.002-.005H7.115l-.099-.86zm4.994-.802.811.801-.098.848h-2.382l1.669-1.65zm.944-.364-.288-.284.365-.361-.077.645zm.429-3.707-.717-.721.91-.899-.193 1.62zm-1.378-1.365-1.36-1.34h2.72l-1.36 1.34zm-4.183 0-1.359-1.34h2.72l-1.36 1.34zm4.634 9.058H7.373a.034.034 0 0 1-.03-.03l-.121-1.018h5.389l-.116 1.018a.034.034 0 0 1-.034.03h-.004zm3.934-14.774h-1.493a.478.478 0 0 0-.359.118.46.46 0 0 0-.113.532l-.001-.003c.054.119.154.21.277.251l.003.001c.062.021.128.028.192.021h.533v2.493a.034.034 0 0 1-.034.03H4.425a.034.034 0 0 1-.034-.03v-2.493h8.499a.472.472 0 0 0 .301-.149.46.46 0 0 0-.3-.771H3.45a.536.536 0 0 1-.532-.308l-.001-.003a.518.518 0 0 1 .128-.599.532.532 0 0 1 .408-.135h-.002.974a.46.46 0 0 0 .3-.771.465.465 0 0 0-.3-.149h-.86a4.47 4.47 0 0 1 .066-1.976l-.007.031a4.535 4.535 0 0 1 .883-1.751l-.006.008c.301.924 1.073 2.188 3.004 3.193 1.815.937 4.218 1.416 7.14 1.416h1.716a.537.537 0 0 1 .408.136.522.522 0 0 1 .001.777.532.532 0 0 1-.409.135h.033zm3.426 12.199-.343.526.007.005.336-.531zm3.697.178.629-.014-.016-.727-.718.122.106.62zm.043 1.934.16.609.48-.127-.011-.496-.629.014zm-4.852.093.142-.613h-.004l-.138.613zm-2.395-1.069.407-.479-.001-.001-.405.48zm-.865-1.965.629.003v-.003h-.629zm.301-1.376-.565-.277v.001l.565.277zm1.929-1.645.223.587h.003l-.225-.587zm6.178-.16.627.049.041-.531-.517-.128-.151.61zm-.154 1.971-.117.619.69.13.055-.7-.627-.049zm-1.677-.806c-.944 0-1.737.1-2.317.356-.297.13-.567.314-.764.574a1.47 1.47 0 0 0-.299.893v.017-.001h1.257v-.013c0-.051.017-.099.046-.137v.001a.673.673 0 0 1 .267-.182c.338-.149.92-.249 1.811-.249V25.07zm-3.38 1.838c0 .647.29 1.18.832 1.535l.687-1.054a.511.511 0 0 1-.261-.481h-1.259zm.84 1.539c.513.325 1.191.448 1.951.448v-1.259c-.656 0-1.055-.111-1.279-.252l-.673 1.063zm1.951.448c.747 0 1.476-.06 2.187-.181l-.21-1.24c-.64.109-1.299.164-1.977.164v1.257zm1.453-.788.043 1.934 1.257-.028-.043-1.934-1.257.028zm.512 1.312a9.365 9.365 0 0 1-2.383.287v1.258c.964 0 1.866-.107 2.702-.328l-.32-1.216zm-2.383.287c-.889 0-1.607-.07-2.168-.199l-.282 1.226c.684.157 1.505.231 2.451.231v-1.258zm-2.171-.199c-.601-.135-1.034-.277-1.323-.419l-.553 1.131c.415.203.956.371 1.6.515l.275-1.227zm-1.323-.419a3.832 3.832 0 0 1-.809-.521l.006.005-.813.959c.309.261.659.49 1.035.674l.03.013.552-1.13zm-.803-.517c-.428-.361-.647-.833-.644-1.482l-1.258-.006c-.005.989.353 1.828 1.089 2.449l.811-.961zm-.644-1.485c0-.423.083-.785.237-1.099l-1.129-.553a3.72 3.72 0 0 0-.366 1.653h1.258zm.236-1.098c.287-.582.791-1.033 1.587-1.335l-.446-1.175c-1.038.394-1.819 1.04-2.27 1.956l1.129.555zm1.59-1.337c.836-.321 1.771-.486 2.808-.486v-1.257c-1.173 0-2.261.186-3.259.57l.451 1.174zm2.808-.486c1.059 0 2.055.118 2.994.35l.302-1.22a13.314 13.314 0 0 0-3.228-.387h-.072.004v1.257zm2.518-.309-.154 1.972 1.254.097.154-1.971-1.254-.098zm.59 1.403a9.73 9.73 0 0 0-1.793-.19v1.259c.442 0 .961.053 1.559.166l.235-1.235zm6.137 1.004-.004.629.639.004-.007-.639-.628.007zm-.27-.817-.428.461.006.005.422-.466zm-1.567.062.436.454.004-.004-.44-.449zm-.381.743-.621-.102-.119.727.737.004.004-.629zm4.625 3.353.38.501.226-.171.021-.283-.627-.047zm-1.358.504-.135-.614-.004.001.139.614zm-4.716-.172-.215.591.005.002.21-.593zm-1.075-.571-.39.493.008.006.383-.498zm-.718-.903-.564.279.001.003.562-.282zm.737-3.814zm5.748-.682.252-.576-.006-.003-.245.579zm1.444 1.327-.566.275.001.004.565-.279zm.245 1.099.627.046.001-.023v-.023h-.629zm-.074 1.013-.003.629.587.003.043-.586-.627-.046zm-4.981-.024.004-.629-.821-.004.209.794.608-.161zm.713.878-.309.548.002.001.307-.549zm3.82-.215v-.629h-.126l-.116.048.242.58zm.331 0 .627.047.05-.676h-.678v.629zm-1.895-1.788c-.005-.455-.11-.943-.476-1.276l-.846.932c-.007-.007.007.001.026.055.018.058.037.154.038.302l1.258-.014zm-.471-1.27c-.33-.306-.763-.407-1.189-.407v1.257c.245 0 .32.059.334.071l.855-.921zm-1.189-.408c-.469 0-.904.146-1.244.48l.88.899c.069-.068.17-.121.365-.121v-1.259zm-1.24.477a1.913 1.913 0 0 0-.565 1.084l-.001.011 1.241.204a.66.66 0 0 1 .196-.391l-.871-.908zm.051 1.825 2.217.012.007-1.258-2.217-.012-.007 1.258zm4.248 2.223c-.138.105-.474.25-1.113.391l.27 1.228c.664-.146 1.232-.336 1.602-.617l-.759-1.003zm-1.116.391a7.95 7.95 0 0 1-1.759.206v1.257c.664 0 1.344-.08 2.037-.237l-.277-1.227zm-1.759.206c-.593 0-1.081-.028-1.47-.081l-.168 1.247c.462.063 1.01.092 1.638.092v-1.259zm-1.47-.081a5.707 5.707 0 0 1-1.18-.289l.04.013-.419 1.186c.399.147.869.265 1.354.333l.037.004.168-1.247zm-1.135-.274a3.37 3.37 0 0 1-.915-.486l.009.006-.765.998c.358.274.775.494 1.243.663l.429-1.182zm-.899-.474a2.027 2.027 0 0 1-.541-.679l-.005-.012-1.125.562c.219.443.519.815.884 1.11l.006.005.781-.986zm-.545-.688c-.132-.267-.211-.612-.211-1.054h-1.257c0 .59.105 1.134.341 1.611l1.127-.558zm-.211-1.054c0-.442.08-.833.231-1.18l-1.154-.501a4.124 4.124 0 0 0-.334 1.639v.044-.002h1.258zm.231-1.181c.159-.366.353-.636.572-.831l-.837-.94a3.577 3.577 0 0 0-.889 1.269l1.153.501zm.572-.831c.676-.602 1.707-.952 3.193-.952v-1.257c-1.668 0-3.044.391-4.03 1.271l.837.939zm3.193-.952c.666 0 1.295.127 1.892.38l.491-1.158a5.946 5.946 0 0 0-2.359-.479h-.024.001v1.257zm1.885.378c.557.243.917.587 1.129 1.025l1.131-.55c-.36-.741-.962-1.281-1.756-1.628l-.503 1.153zm1.131 1.029c.118.238.181.508.181.821h1.257c0-.489-.1-.953-.311-1.378l-1.128.557zm.183.775-.074 1.013 1.254.091.074-1.013-1.254-.091zm.557.43-4.981-.025-.006 1.258 4.981.024.006-1.258zm-5.593.764c.147.558.506.98 1.011 1.266l.619-1.095c-.249-.141-.364-.304-.414-.491l-1.216.32zm1.014 1.267c.511.285 1.148.4 1.861.4V27.95c-.597 0-.996-.099-1.247-.24l-.614 1.098zm1.861.399c.765 0 1.605-.207 2.508-.583l-.484-1.161c-.809.336-1.479.486-2.025.486v1.258zm2.266-.534h.331v-1.257h-.331v1.257zm-.296-.676-.117 1.56 1.254.094.117-1.56-1.254-.094z"/></symbol><symbol id="smile" viewBox="0 0 30 32"><path fill="#fff" style="fill:var(--color1,#fff)" d="M16.536 8.8c.637.35 1.64-.169 2.242-1.159s.573-2.075-.063-2.424c-.637-.349-1.64.169-2.242 1.158s-.573 2.075.063 2.424z"/><path style="fill:var(--color4,#000)" d="M18.667 5.297c.579.318.592 1.37.027 2.298s-1.53 1.443-2.109 1.125c-.579-.318-.592-1.37-.027-2.298s1.53-1.442 2.109-1.125zm.097-.16c-.683-.375-1.746.159-2.375 1.192s-.585 2.176.099 2.551c.683.375 1.747-.159 2.375-1.192s.585-2.175-.099-2.551z"/><path fill="#fff" style="fill:var(--color1,#fff)" d="M20.419 10.93c.637.35 1.64-.169 2.242-1.159s.573-2.075-.063-2.424c-.637-.349-1.64.169-2.242 1.159s-.573 2.075.063 2.424z"/><path style="fill:var(--color4,#000)" d="M22.549 7.427c.579.318.592 1.37.027 2.298s-1.53 1.443-2.109 1.125c-.579-.318-.592-1.37-.027-2.298s1.53-1.442 2.109-1.125zm.098-.16c-.683-.375-1.747.159-2.375 1.192s-.584 2.176.099 2.551c.683.375 1.747-.159 2.375-1.192s.585-2.175-.099-2.551zm-5.558.624c.357.196.916-.088 1.248-.634s.312-1.148-.045-1.344c-.357-.196-.916.088-1.248.634s-.312 1.148.045 1.344z"/><path style="fill:var(--color4,#000)" d="M18.276 5.939c.341.187.356.771.033 1.302s-.863.81-1.204.623c-.341-.187-.356-.771-.033-1.302s.863-.81 1.204-.623zm.033-.054c-.373-.205-.951.085-1.293.646s-.316 1.182.057 1.386c.373.205.951-.085 1.293-.646s.316-1.182-.057-1.387zm2.663 4.136c.357.196.916-.088 1.248-.634s.312-1.148-.045-1.344c-.357-.196-.916.088-1.248.634s-.312 1.148.045 1.344z"/><path style="fill:var(--color4,#000)" d="M22.159 8.069c.341.187.356.771.033 1.302s-.863.81-1.204.623c-.341-.187-.356-.771-.033-1.302s.863-.81 1.204-.623zm.033-.053c-.373-.205-.951.085-1.293.646s-.316 1.182.057 1.387c.373.205.951-.085 1.293-.646s.316-1.182-.057-1.387z"/><path fill="#fff" style="fill:var(--color1,#fff)" d="M17.855 7.134c.215.118.52-.002.682-.268s.119-.577-.096-.695-.52.002-.682.268-.119.577.096.695zm3.883 2.131c.215.118.52-.002.682-.268s.119-.577-.096-.695-.52.002-.682.268-.119.577.096.695z"/><path style="fill:var(--color4,#000)" d="M18.175 3.822a2.36 2.36 0 0 1 1.77.973c.14.197.48.013.34-.184a2.782 2.782 0 0 0-2.111-1.16c-.25-.017-.248.355.001.371zm4.052 2.223a2.36 2.36 0 0 1 1.77.973c.14.197.48.014.34-.184a2.782 2.782 0 0 0-2.111-1.16c-.25-.017-.248.355.001.371z"/><path fill="#fff" style="fill:var(--color1,#fff)" d="M5.322 17.943c.593-.19.809-1.091.483-2.014s-1.073-1.516-1.666-1.327c-.593.19-.809 1.091-.483 2.014s1.073 1.516 1.666 1.327z"/><path style="fill:var(--color4,#000)" d="M4.165 14.678c.54-.173 1.254.412 1.561 1.277s.109 1.741-.431 1.914c-.54.173-1.254-.412-1.561-1.277s-.109-1.741.431-1.914zm-.053-.15c-.637.204-.876 1.15-.535 2.114s1.134 1.58 1.771 1.376c.637-.204.876-1.15.535-2.114s-1.134-1.58-1.771-1.376z"/><path fill="#fff" style="fill:var(--color1,#fff)" d="M8.941 16.787c.593-.19.809-1.091.483-2.014s-1.073-1.516-1.666-1.327c-.593.19-.809 1.091-.483 2.014s1.073 1.516 1.666 1.327z"/><path style="fill:var(--color4,#000)" d="M7.785 13.522c.54-.173 1.254.412 1.561 1.277s.109 1.741-.431 1.914-1.254-.412-1.561-1.277c-.306-.865-.109-1.741.431-1.914zm-.053-.15c-.637.204-.876 1.15-.535 2.114s1.134 1.58 1.771 1.376c.637-.204.876-1.15.535-2.114s-1.134-1.58-1.771-1.376zm-2.71 3.724c.333-.107.456-.606.276-1.115s-.596-.836-.929-.73c-.333.107-.456.606-.276 1.115s.596.836.929.73z"/><path style="fill:var(--color4,#000)" d="M4.377 15.276c.318-.102.719.218.894.713s.059.98-.259 1.082c-.318.102-.719-.218-.894-.713s-.059-.98.259-1.082zm-.018-.05c-.348.111-.479.625-.293 1.148s.617.857.964.746c.348-.111.479-.625.293-1.148s-.617-.857-.964-.746zm4.282.714c.333-.107.456-.606.276-1.115s-.597-.836-.929-.73c-.333.106-.456.606-.276 1.115s.596.836.929.73z"/><path style="fill:var(--color4,#000)" d="M7.997 14.12c.318-.102.719.218.894.713s.059.98-.259 1.082c-.318.102-.719-.218-.894-.713s-.059-.98.259-1.082zm-.018-.05c-.348.111-.479.625-.293 1.148s.617.857.964.746c.347-.111.479-.625.293-1.148s-.617-.857-.964-.746z"/><path fill="#fff" style="fill:var(--color1,#fff)" d="M4.455 16.306c.2-.064.292-.317.204-.565s-.321-.397-.522-.333c-.2.064-.292.317-.204.565s.321.397.522.333zm3.584-1.256c.2-.064.291-.317.204-.565s-.321-.397-.522-.333c-.2.064-.292.317-.204.565s.321.397.522.333z"/><path style="fill:var(--color4,#000)" d="M3.169 14.006c.088-.303.244-.616.564-.748.298-.123.632-.046.919.07.196.08.345-.203.147-.283-.382-.155-.82-.24-1.213-.072-.414.177-.628.57-.743.968-.057.197.268.259.325.064zm3.818-1.532c.833.089 1.69-.02 2.464-.324.196-.077.091-.378-.106-.3a4.897 4.897 0 0 1-2.291.314c-.211-.023-.28.287-.067.31z"/><path fill="#fff" style="fill:var(--color1,#fff)" d="M18.257 23.549c.628.419 1.721-.032 2.442-1.007s.797-2.106.169-2.524c-.628-.419-1.721.032-2.442 1.008s-.796 2.105-.169 2.524z"/><path style="fill:var(--color4,#000)" d="M20.809 20.096c.571.381.482 1.475-.194 2.39s-1.729 1.365-2.3.984c-.571-.381-.483-1.475.193-2.39s1.73-1.365 2.3-.984zm.117-.158c-.673-.449-1.83.012-2.583 1.031s-.818 2.209-.144 2.659c.673.449 1.83-.012 2.583-1.031s.818-2.209.144-2.659z"/><path fill="#fff" style="fill:var(--color1,#fff)" d="M22.085 26.102c.628.419 1.721-.032 2.442-1.008s.796-2.105.169-2.524c-.628-.419-1.721.032-2.442 1.007s-.796 2.106-.169 2.524z"/><path style="fill:var(--color4,#000)" d="M24.637 22.649c.571.381.482 1.475-.194 2.39s-1.729 1.365-2.3.984c-.571-.381-.483-1.475.194-2.39s1.73-1.365 2.3-.984zm.117-.158c-.674-.45-1.83.012-2.583 1.031s-.818 2.209-.144 2.659 1.83-.012 2.583-1.031c.753-1.019.818-2.209.144-2.659zm-5.223-.217c.352.235.96-.011 1.358-.55s.435-1.166.083-1.401c-.352-.235-.96.011-1.358.55s-.435 1.166-.083 1.401z"/><path style="fill:var(--color4,#000)" d="M20.953 20.349c.336.225.295.832-.091 1.356s-.975.767-1.311.542c-.336-.225-.295-.832.092-1.356s.975-.766 1.311-.542zm.039-.052c-.368-.245-.997.005-1.405.558s-.443 1.2-.075 1.446.997-.005 1.405-.558c.409-.553.443-1.2.075-1.446zm2.422 4.567c.352.235.96-.011 1.358-.55s.435-1.166.083-1.401c-.352-.235-.96.011-1.358.55s-.435 1.166-.083 1.401z"/><path style="fill:var(--color4,#000)" d="M24.836 22.939c.336.225.295.832-.091 1.356s-.975.767-1.311.542c-.336-.225-.295-.832.092-1.356s.975-.766 1.311-.542zm.039-.052c-.368-.245-.997.005-1.405.558s-.443 1.2-.075 1.446c.367.245.997-.005 1.405-.558s.443-1.2.075-1.446z"/><path fill="#fff" style="fill:var(--color1,#fff)" d="M19.342 22.029c.165.11.42.034.571-.17s.139-.458-.026-.568c-.165-.11-.42-.034-.571.17s-.139.458.025.568zm3.9 2.68c.165.11.42.034.571-.17s.139-.458-.025-.568c-.165-.11-.42-.034-.571.17s-.139.458.026.568z"/><path style="fill:var(--color4,#000)" d="M20.309 18.519a2.497 2.497 0 0 1 1.924.974c.154.201.468-.046.315-.246a2.895 2.895 0 0 0-2.204-1.113c-.261-.009-.298.377-.035.385zm4.512 2.616c.732.25 1.272.79 1.517 1.488.083.236.452.073.37-.161-.278-.793-.924-1.409-1.75-1.691-.246-.084-.384.28-.137.365zM18.406 27.379c.248-.189.184-.657-.143-1.046s-.794-.551-1.043-.362c-.248.189-.184.657.143 1.046s.794.551 1.043.362z"/><path style="fill:var(--color4,#000)" d="M18.136 27.638c.505.337.959.551 1.013.479s-.312-.405-.818-.742-.959-.551-1.013-.479c-.054.073.312.405.818.742z"/><path style="fill:var(--color4,#000)" d="M18.962 28.097c.477.206.971.15 1.102-.125s-.148-.665-.626-.871c-.477-.206-.971-.15-1.102.125s.148.665.626.871z"/></symbol><symbol id="telegram" viewBox="0 0 32 32"><path fill="#f8d24e" style="fill:var(--color2,#f8d24e)" d="M32 16c0 8.837-7.163 16-16 16S0 24.837 0 16 7.163 0 16 0s16 7.163 16 16z"/><path fill="#84a178" style="fill:var(--color3,#84a178)" d="m12.869 18.376-.318 4.169c.455 0 .651-.183.888-.401l2.131-1.901 4.414 3.018c.809.421 1.38.199 1.598-.696l2.899-12.673c.257-1.117-.433-1.554-1.222-1.28L6.227 14.698c-1.162.422-1.144 1.026-.198 1.301l4.355 1.264 10.115-5.907c.475-.295.908-.132.552.163l-8.182 6.856z"/></symbol><symbol id="weight" viewBox="0 0 32 32"><path d="M14.178.547c-3.974.589-7.247 2.796-8.452 5.685-.384.913-.487 1.474-.487 2.573.007.812.036 1.114.163 1.552.258.862.443 1.301.827 1.92l.356.574-.4.489c-3.154 3.924-3.501 9.444-.871 13.793.982 1.631 2.586 3.235 4.151 4.169l.466.273 12.743-.108.302-.165c1.057-.596 2.548-1.926 3.383-3.004a12.51 12.51 0 0 0 2.413-5.546l.01-.074c.118-.74.118-2.933-.007-3.63-.377-2.148-1.182-3.988-2.452-5.62-.244-.309-.436-.568-.436-.589 0-.014.133-.237.288-.489a7.623 7.623 0 0 0 .85-1.907l.014-.055c.199-.719.199-2.516 0-3.235-.709-2.551-2.836-4.679-5.843-5.851-.843-.331-2.284-.683-3.214-.797-.864-.101-2.999-.08-3.804.043zm4.498 1.171c3.945.769 6.834 3.184 7.365 6.16.118.668.044 1.804-.155 2.436-.2.619-.569 1.345-1.004 1.963-.178.252-.325.54-.325.633s.155.338.377.582c1.846 2.048 2.821 4.614 2.821 7.388-.007 3.156-1.219 5.923-3.553 8.093-.399.373-.968.841-1.271 1.042l-.554.373-12.211.051-.473-.302c-1.714-1.114-3.258-2.954-4.115-4.908-1.078-2.472-1.189-5.34-.31-7.913.466-1.337 1.086-2.429 2.031-3.58.385-.46.562-.733.562-.862 0-.108-.192-.46-.444-.827-.886-1.287-1.248-2.717-1.034-4.068.222-1.365.842-2.487 1.987-3.601 1.493-1.444 3.576-2.4 6.021-2.76 1.012-.151 3.25-.093 4.284.1z"/><path d="M14.509 2.983c-3.028.496-5.4 2.178-6.175 4.385-.178.495-.207.69-.207 1.401s.029.907.207 1.402c.11.316.317.755.458.978.384.618.554.64 1.316.18a11.719 11.719 0 0 1 3.727-1.474l.078-.014c.916-.187 2.674-.259 3.671-.144 1.558.18 3.25.74 4.602 1.538.384.223.776.411.871.411.562 0 1.278-1.618 1.278-2.876 0-2.796-2.674-5.189-6.463-5.786-.805-.129-2.587-.129-3.362 0zm3.657 1.15c1.271.273 2.437.791 3.317 1.473 1.182.913 1.817 2.186 1.713 3.414-.036.489-.221 1.15-.332 1.222-.03.014-.444-.158-.916-.388a14.19 14.19 0 0 0-3.131-1.081l-.097-.018c-.687-.144-.975-.165-2.511-.158-1.515 0-1.832.021-2.489.158a13.307 13.307 0 0 0-3.118 1.064c-1.1.524-1.042.532-1.241-.116-.258-.841-.096-1.955.406-2.796.267-.445.997-1.186 1.529-1.553 1.012-.697 1.899-1.013 3.804-1.358.391-.071 2.564.029 3.066.137zm-1.203 9.271c-.207.26-.207.504.007.712.14.137.281.172.791.209a6.489 6.489 0 0 1 2.815.865l-.031-.017c.606.359 1.529 1.228 1.943 1.854.613.898 1.034 2.185 1.034 3.133 0 .331.03.431.185.575.236.237.547.237.776 0 .163-.165.169-.208.125-.913-.207-3.478-3.184-6.382-6.744-6.576l-.74-.044-.162.202z"/></symbol><symbol id="modal-close" viewBox="0 0 32 32"><path d="m17.253 16 7.369-7.369a.886.886 0 0 0-.047-1.207.89.89 0 0 0-1.206-.047L16 14.746 8.631 7.368A.892.892 0 0 0 7.369 8.63l7.378 7.369-7.378 7.369a.891.891 0 0 0-.05 1.304.89.89 0 0 0 1.304-.051l7.378-7.369 7.369 7.369a.885.885 0 0 0 1.206-.047.89.89 0 0 0 .047-1.206l-7.369-7.369z"/></symbol><symbol id="icon-arrow-default" viewBox="0 0 82 32"><path d="M81.414 17.414a2 2 0 0 0 0-2.828L68.686 1.858a2 2 0 1 0-2.828 2.828L77.172 16 65.858 27.314a2 2 0 1 0 2.828 2.828l12.728-12.728zM0 18h80v-4H0v4z"/></symbol><symbol id="icon-arrow-hover" viewBox="0 0 102 32"><path d="M101.414 17.414a2 2 0 0 0 0-2.828L88.686 1.858a2 2 0 1 0-2.828 2.828L97.172 16 85.858 27.314a2 2 0 1 0 2.828 2.828l12.728-12.728zM0 18h100v-4H0v4z"/></symbol><symbol id="icon-arrow-focus" viewBox="0 0 69 32"><path d="M68.081 17.414a2 2 0 0 0 0-2.829L55.353 1.857a2 2 0 1 0-2.828 2.828l11.314 11.314-11.314 11.314a2 2 0 1 0 2.828 2.828l12.728-12.728zM0 18h66.667v-4H0v4z"/></symbol><symbol id="contacts-button" class="aicon aicon-tabler aicon-tabler-math-greater" stroke-width="2" stroke="currentColor" fill="none" stroke-linecap="round" stroke-linejoin="round" viewBox="0 0 24 24" xmlns="http://www.w3.org/2000/svg"><path d="M0 0h24v24H0z" stroke="none"/><path d="m5 18 14-6L5 6"/></symbol></defs></svg>