<svg version="1.0" xmlns="http://www.w3.org/2000/svg" width="2389.333" height="2389.333" viewBox="0 0 1792 1792"><path d="M928 27.8c-2.7.3-13.8 4.5-18.1 6.8-1.4.7-2.8 1.1-3.1.8-.3-.2-1.1.2-1.8 1.1-.7.8-1.8 1.5-2.4 1.5-1.1 0-14.2 5.9-17.6 8-.8.5-3.5 1.9-6 3.2-11.9 5.9-41.7 24.3-49.5 30.5-4.2 3.3-4.6 3.6-8.5 6.3-1.9 1.3-3.7 2.7-4 3-.3.3-3.4 2.8-7 5.5-3.6 2.8-6.7 5.2-7 5.5-.3.3-3 2.5-6 5-17 13.8-33.2 31.1-46.9 50-2.2 3-4.5 6.1-5.2 6.8-.6.7-1.6 2.3-2.3 3.5-.6 1.2-2.3 4-3.7 6.2-3.5 5.4-7.1 11.8-10.6 18.5-1.5 3-3.2 5.8-3.8 6.2-.5.4-.7.8-.2.8.4 0-.3 2.1-1.6 4.7-3.2 6.3-9.2 21.7-12.4 31.7-2.9 8.9-2.9 8.7-3.8 13.5-.3 1.9-.8 3.7-1 4.1-.4.6-.9 2.9-2 8.7-3.6 19-3.9 21-5 37.3-.7 10.1-1.2 17-1.4 18.2-.1.5-.5.8-1.1.8-.5 0-2 1-3.2 2.2-1.3 1.3-4.6 4.1-7.3 6.3-4.7 3.8-23.8 22.6-31.6 31.1-8.1 8.8-25.9 32.4-25.9 34.2 0 .6-.4 1.2-.8 1.4-1 .4-7.2 10.5-7.2 11.7 0 .5-.4 1.1-.8 1.3-1.9.8-17.4 35.5-18.7 41.8-.2.8-1 3.5-1.9 6-.8 2.5-2 6.7-2.6 9.5-.7 2.7-1.4 5.9-1.6 7-.3 1.1-.8 3.3-1.1 5-.8 4.5-1.1 6-1.3 6-.1 0-.2.8-1.5 12.5-1.1 10.3-1.4 15.8-1.5 27.1v10.6l-12.5 12.6c-6.9 7-12.5 13.1-12.5 13.7 0 .5-.3 1-.8 1-.4 0-3.2 3.2-6.2 7.2-3 3.9-6.3 7.9-7.2 9-1 1-1.8 2.2-1.8 2.8 0 .5-.4 1-.9 1s-1.2.8-1.6 1.9c-.3 1-1.5 2.9-2.6 4.2-2.5 2.8-13.3 20.9-18 30-1.8 3.5-3.8 6.7-4.3 7.1-.6.4-.7.8-.2.8.5 0 .3.7-.4 1.5s-.9 1.5-.4 1.5.5.4-.1.8c-1.3.9-5.5 9.9-5.5 11.7 0 .8-.5 1.5-1.2 1.5-.6 0-.9.3-.5.6.3.3-.2 2.5-1.2 4.7-1.7 4.1-5.9 15.6-6.7 18.7-.2.8-1.7 6.4-3.4 12.4-1.6 6.1-3.2 12.5-3.5 14.4-.3 1.9-.8 3.9-1.1 4.4-.3.5-.8 2.6-1 4.6-.1 2-.5 4.8-.8 6.2-.3 1.4-.9 4.7-1.2 7.5-.3 2.7-.8 6.8-1.1 9-.9 6.3-1.1 55.9-.3 57 .4.5.7 2.5.8 4.2 0 1.8.1 3.4.2 3.5.3.4.7 3.7 1.4 9.8.3 3 .8 6.6 1.1 8 1.9 7.7 2 7.3-5.4 12.9-7.3 5.4-13.6 11.9-18 18.6-1.4 2.2-2.8 4.2-3.2 4.5-1.3 1.1-8.9 19.5-8 19.5.1 0-.2 1.2-.8 2.6-3.2 8.7-3.2 26.8 0 39.4 1.6 6 8 20.5 9.1 20.5.5 0 .6.4.3 1-.3.5-.1 1 .4 1 .6 0 1.1.5 1.1 1.1 0 .6.6 1.6 1.2 2.4.7.7 2.8 3.3 4.7 5.6 8.2 10.5 27.3 22.9 39.1 25.4.8.2 1.6.4 1.8.5.3.3 1 .5 6.2 1.5 6.4 1.2 6 1.2 12.1 1.3l5.7.2v70.7c0 39 .1 71 .2 71.3 0 .3.3 2.3.5 4.5.8 8 3.1 14.5 7.8 21.7 4.2 6.5 5.8 8.2 12.2 13.3 6.1 4.9 8 6 14.8 8.5 7.6 2.8 10.8 3.1 36.9 3.3 13 .1 23.9.4 24.1.7.3.3.8 3.4 1.1 7 .3 3.6.8 8.7 1.1 11.4.2 2.7.7 6.4 1 8.3.3 2 .8 6.3 1.1 9.7.3 3.3.8 7.2 1 8.6.3 1.4.7 4.3.9 6.5 1 9 1.7 15.2 2.2 18.5.2 1.9.6 5.7.8 8.5.2 2.7.5 5 .6 5 .1 0 .3 1.6.4 3.5.2 1.9.6 5.5.9 8 .4 2.5.8 6.4 1.1 8.7 1 8.9 1.6 13.9 2 16.8.4 3.1 1.1 9.1 2 17 .3 2.5.8 6.6 1.1 9.2.4 2.7.8 6.1.9 7.8.3 2.6.8 7.5 2.1 18 .2 1.6.6 5 .8 7.5.3 2.5.8 6.5 1.1 9 .4 2.5.8 6.2 1 8.2.2 2.1.6 6.1 1 9 .9 7.3 1.4 11.5 2.1 17.3.3 2.7.7 6.1.9 7.5.2 1.4.7 5.4 1.1 9 .3 3.6.8 7.6 1 9 .1 1.4.5 4.7.8 7.5.3 2.7.9 7.2 1.2 10 .4 2.7.8 6.3 1 8 .2 2.7.7 6.8 1.9 16.5.2 1.9.9 7.8 1.5 13s1.3 10.9 1.5 12.6c.4 2.8.7 5.5 2.2 18.9.2 2.2.6 5.6.8 7.5.3 1.9.6 5.1.9 7 1.1 10.7 1.8 16.8 2.1 19 .2 1.4.6 4.7 1 7.5.3 2.7.8 6.6 1 8.5.3 1.9.7 6 1 9 .9 7.8 1.3 11.5 1.5 11.5.1 0 .3 2 .5 4.5.8 9.1 1.4 14.5 1.5 14.5.2 0 .7 4.3 1.5 12 .3 3.3.8 7.3 1 9 .3 1.6.7 5 1 7.5.3 2.5.7 6.1.9 8 .3 1.9.7 6.2 1.1 9.5.3 3.3.8 7.1 1 8.5.3 1.4.7 5.2 1.1 8.5.3 3.3.7 7.3.9 9 .2 1.6.6 5 .9 7.5.2 2.5.7 6.5 1.1 9 .3 2.5.8 6.1 1 8 .4 4.1 1.5 13.2 2 17.5.2 1.6.7 5.9 1 9.5.4 3.6.8 7.6 1.1 9 .2 1.4.7 5 .9 8 .3 3 .7 6.6 1 8 .5 2.2 1.3 9.8 1.9 16.7.1 1.2.5 2.5.9 2.9.4.4.7 1.7.7 2.8 0 1.2 1.7 5.5 3.7 9.6 5.2 10.3 13.9 18.7 24.5 23.9 4.5 2.2 8.5 3.8 9 3.5.4-.3.8-.2.8.3 0 .4 1.9 1 4.3 1.2 6.6.6 301.8.5 305.7-.2 6.1-1 10.7-2.8 20.5-8.1 2.8-1.6 14.5-13.2 14.5-14.5 0-.6.5-1.1 1.1-1.1.5 0 .8-.4.4-.9-.3-.6.1-1.3.9-1.8.8-.4 1.5-1.1 1.5-1.6.1-.4.8-2.3 1.6-4.3 2-4.9 3.3-10 4-15.9.3-2.8.8-7 1.1-9.5.4-2.5.8-6.1.9-8 .2-1.9.4-3.5.5-3.5.1 0 .9-7.3 1.5-14.5.1-1.9.4-3.6.5-3.8.3-.2.3-.5 1.4-11.7.4-4.4 1.1-10.5 1.6-13.5s1.2-8.7 1.6-12.5c.4-3.9.8-8.4 1-10 .2-1.7.6-5 .9-7.5.2-2.5.7-6.5 1-9 .4-2.5.9-6.5 1.1-9 1.3-11.7 2.5-22 2.9-24.2.2-.9.7-4.8 1-8.5.4-3.7.8-7.9 1-9.3.5-2.9 1.6-12.1 2-16.5.1-1.7.6-5.7 1-9s.9-7.4 1-9c.2-1.7.4-3 .5-3 .1 0 .3-1.8.5-4 .6-6.8 2.2-21.7 3-26.5.2-1.4.7-5.2 1-8.5.4-3.3.8-7.1 1-8.5.2-1.4.7-5 1-8 .6-5.2.9-7.8 2.1-18 .3-2.5.7-6.3.9-8.5.9-8.2 1.7-15.1 2.1-17 .3-1.1.7-4.9 1-8.5.3-3.6.7-7.6.9-8.9.2-1.4.7-5.1 1-8.4.4-3.2.8-6.7 1-7.8.5-2.3 1.8-16.4 1.9-19.7.1-1.2.3-2.2.6-2.2s.6-1.2.6-2.8c.1-1.5.4-5.2.8-8.2 1.2-11.8 1.5-14.6 2-18.5.3-2.2.8-7.2 1.2-11 .3-3.9.8-7.3 1-7.6.1-.3.6-3.7.9-7.5.3-3.8.8-7.6 1-8.4.2-.8.7-4.7 1.1-8.5.8-8.2 1.2-11 1.4-11 .2 0 1.2-12.7 1.2-14.7-.1-1 .2-1.8.6-1.8.4 0 .7-1.9.8-4.3 0-4.2 1.1-15.5 1.9-19.9.5-2.6 1.3-9.8 2-17.8.3-3 .7-6.6 1-8 .5-2.6 1.2-8.2 2-16 1-9.9 1.7-16.6 2-18.2.2-.9.6-4.3.9-7.5.4-3.2.8-7.4 1.1-9.3.2-1.9.7-5.8 1-8.5.3-2.8.8-6.6 1-8.5.3-1.9.7-5.8 1-8.5.9-8.7 1.4-11.7 2-12.4.4-.3 11.5-.7 24.8-.8 13.3 0 25.1-.3 26.2-.6 13.6-3.3 21-7.2 29.1-15.3 7.9-7.8 13.3-17.9 15.1-27.9.4-2.2.7-36.7.7-76.7l.1-72.8 5.3-.1c2.8-.1 5.5-.2 6-.3.4-.1 2.7-.6 5.2-1 5.7-1 12.4-2.9 17.3-4.9 2-.9 3.8-1.6 4-1.5.4.2 14.6-9.1 17.3-11.4 18.6-15.9 29.4-39.6 28.8-63.3-.1-4.4-.7-10.7-1.4-14-.6-3.3-1.3-6.7-1.4-7.5-.1-.9-.6-2.2-1.1-3-.5-.8-1.1-2.3-1.2-3.2-.7-4.7-10.2-19.6-16.5-26.1-2.2-2.2-2.5-3.2-1.8-5.5.5-1.5 2.7-8.3 5-15.1 2.2-6.9 4.2-13.4 4.5-14.5.2-1.2.4-2.1.5-2.1.2 0 .6-1.6 1.4-5 .2-1.1.5-2 .6-2 .1 0 .3-.7.5-1.5s1-4.6 1.9-8.3c.9-3.7 1.8-8.2 2.1-10 .2-1.8.7-4.3.9-5.7.3-1.4.8-3.6 1.1-5 .3-1.4.8-5 1.2-8 .6-5.4 1-8.5 1.3-8.5.5 0 1.4-20.6 1.4-36 .1-17.2-.5-28.7-1.9-37-.3-1.7-.7-4.6-.9-6.5-.3-1.9-.5-3.5-.6-3.5-.1 0-.4-1.4-.5-3-.5-4.1-1.1-6.8-4.6-20.3-1.7-6.4-3.1-12.3-3.2-13 0-.6-.5-1.2-1-1.2-.6 0-.7-.3-.4-.7.4-.3.2-1.2-.4-2-.6-.7-.9-1.3-.5-1.3.5 0-1-4.7-3.6-11-1.3-3-3.5-8.7-4.3-11-.9-2.6-5.5-12.1-12.8-26.5-1.1-2.2-4.2-7.5-6.8-11.8-2.7-4.3-4.9-8.1-4.9-8.4 0-.3-1.3-2.2-3-4.3-1.6-2.1-3-4.1-3-4.5 0-1.6-21.7-29.7-32.9-42.5-6.2-7.1-40.7-42-41.5-42-.3 0-1.8-1.2-3.4-2.8-1.5-1.5-5.7-5.2-9.2-8.2-3.5-3-7.1-6.2-7.9-7-.9-.8-7.5-6.2-14.6-11.9-7.2-5.7-13.2-10.7-13.5-11-.3-.3-1.3-1.1-2.2-1.6-.9-.6-7.1-5.2-13.7-10.3-6.7-5-12.4-9.2-12.8-9.2-.3 0-1.3-.7-2.2-1.6-.9-.9-9.5-7.2-19.1-14-9.6-6.8-18-12.8-18.7-13.4-.7-.5-1.6-1-2.2-1-.5 0-1.1-.3-1.3-.8-.2-.4-3.2-2.9-6.8-5.5-3.6-2.7-7.2-5.3-8-6-.8-.7-3.2-2.3-5.3-3.7-2-1.4-3.7-2.8-3.7-3.3 0-.4-.5-.7-1-.7-.6 0-4.9-2.9-9.5-6.5-4.7-3.6-9-6.5-9.4-6.5-.5 0-1.1-.4-1.3-.8-.1-.4-3.4-3.1-7.3-5.9-7.8-5.8-7.1-5.3-14-10.8-23.8-19-46-46.1-60.4-73.7-11.5-21.9-20-47.6-23.7-70.8-.3-1.9-.7-4.6-1-6-.8-4.8-1.8-21.6-1.7-32.5 0-9.8.3-14.8 1.8-29 .2-2.2 1.4-8.7 2.5-14.5 2.6-13.1 2.7-13.7 3.7-16.3.4-1.2.8-3.1.8-4.2s.4-2.5.8-3.2c.4-.6.3-1.4-.2-1.7-.5-.3-.7-1.5-.4-2.6.3-1.1-.7-4.5-2.2-7.5-3.4-7-9.9-12.5-16.7-14.1-.5-.1-.9-.3-1-.4-.5-.4-7.1-.6-9.8-.2zm-30.6 72.4c-.8 3.7-.8 32.5 0 43.8.9 13.1 2.6 26.6 4.6 36 .5 2.5 1.2 5.6 1.4 7 .3 1.4 1.2 5.2 2.1 8.5.9 3.3 1.8 6.4 1.9 7 1.4 5.4 2 7.2 2.9 8.2.5.7.7 1.3.4 1.3-2.2 0 18.8 48.8 21.5 49.8.4.2.8.9.8 1.6 0 2.4 15.5 25.5 25.9 38.6 8.7 10.8 40.5 43 42.6 43 .3 0 4.9 3.6 10.4 8 5.4 4.4 10.2 8 10.6 8 .3 0 1.2.6 2 1.2 2.4 2.3 5 4.3 11.5 8.8 3.6 2.5 6.9 4.9 7.5 5.3.5.5 5.5 3.9 11 7.7 5.5 3.8 10.5 7.3 11.2 7.9.7.6 1.6 1.1 2 1.1.4 0 1.9.9 3.3 2s10.4 7.6 20 14.5c9.6 6.8 18.4 13.1 19.5 13.9 24 17.6 32.7 24.3 36 27.3 1.3 1.3 2.7 2.3 3 2.3.4 0 7.5 5.7 15.8 12.7 14 11.7 18.2 15.4 27.2 23.8 1.7 1.6 5.1 4.7 7.3 6.7 2.3 2.1 4.1 3.8 3.9 3.8-.1 0 3.8 4.2 8.8 9.3 10 10.2 13.9 14.6 20.4 22.7 2.5 3 5.1 6.1 6 6.7.8.7 1.2 1.3.8 1.3-.6 0 0 .9 4.6 6.3 4.9 5.8 21.2 31.5 26.4 41.7 13.5 26.3 22.6 54.7 25.8 81 .3 1.9.8 6.2 1.2 9.5 1.6 11.9.9 46.9-1.1 60.5-.8 5.3-1.7 10.6-2.1 12-.2.8-.7 3.1-1 5-.5 2.8-1.6 7.4-3 12-.1.3-.5 1.8-.9 3.5-1.3 5-6.3 19.7-8.4 24.5l-1.9 4.5h-67.4c-37.1-.1-67.9-.4-68.6-.8-.6-.4-1.4-.3-1.8.3-.4.6-1.2.7-1.8.3-.6-.4-6.3-.8-12.7-.9-14.3-.4-29.4-1.2-49-2.8-3-.3-8.8-.7-12.9-1-4.1-.3-11-1-15.5-1.6-8-1-13.9-1.6-22.6-2.5-2.5-.3-5.6-.7-7-1-1.4-.3-4.7-.8-7.5-1.1-2.7-.3-6.1-.8-7.5-1.1-1.4-.4-2.8-.6-3.2-.5-.5.1-13.1-1.9-20.8-3.4-1.4-.2-6.1-1.1-10.5-1.9-4.4-.8-9.1-1.7-10.5-2.1-1.4-.3-3.4-.7-4.5-.9-1.1-.2-3.3-.6-5-1-1.6-.3-4.1-.8-5.5-1.1-1.4-.3-4.3-1-6.5-1.6-4.1-1-5.5-1.3-11.5-2.4-1.9-.4-3.9-1-4.5-1.3-.5-.4-2.3-.8-4-1-1.6-.2-3.2-.7-3.3-1.2-.2-.5-.7-.7-1.1-.5-.4.3-4.8-.6-9.7-2-4.9-1.4-9.3-2.7-9.9-2.8-.5-.2-2.3-.6-4-1-1.6-.4-3.7-1-4.5-1.3-.8-.4-1.8-.7-2.2-.8-.5-.2-.9-.3-1-.5-.2-.1-1-.3-1.9-.5-2-.4-28.6-9.2-31.4-10.4-1.1-.5-3.6-1.4-5.5-2.1-1.9-.7-5.4-2.1-7.7-3.1s-4.8-2-5.5-2.1c-.7-.2-1.5-.5-1.8-.8-.3-.3-2.3-1.1-4.5-1.9-6-2-38.7-18.1-48.8-24-4.9-2.8-9.3-5.1-9.8-5.1s-.9-.3-.9-.8c0-.4-2.7-2.3-6-4.1-3.3-1.9-6-3.9-6-4.3 0-.4-.7-.8-1.5-.8s-1.5-.5-1.5-1c0-.6-.6-1-1.3-1-.8 0-2.2-.9-3.2-2s-2.4-2-3.1-2c-.7 0-1.4-.3-1.6-.8-.1-.4-4.4-3.9-9.4-7.9-10-7.8-17-13.9-24.8-22-9.7-9.8-12.1-12.6-24.2-27.6-.8-.9-1.4-2.1-1.4-2.6s-.4-1.1-.8-1.3c-.5-.2-2.9-3.5-5.3-7.3-2.4-3.9-4.7-7.1-5.1-7.3-.4-.2-.8-1.2-.8-2.2 0-1-.4-2.1-.9-2.4-.9-.6-10.1-18.9-10.1-20.2 0-.3-.7-2-1.5-3.7-1.7-3.9-7.6-21.4-8-24.2-.6-3.4-1.5-7.9-2-9.3-.3-.7-.7-3.9-1.1-7-.3-3.1-.9-7.1-1.3-8.8-.9-3.3-.7-39.2.2-43.4.3-1.4.8-4.2 1.1-6.3 1.9-12.3 7.3-31.8 12.3-43.9 2.3-5.6 11.2-22.9 12.7-24.8.7-.8 1.8-2.7 2.6-4.2.7-1.5 2.1-3.7 3.2-4.7 1-1.1 1.8-2.3 1.8-2.7 0-1.3 14.9-19.1 21.7-25.7 3.9-3.9 6.9-6.2 7.1-5.5.2.7.6 2 .9 2.8.3.8.7 1.9.9 2.5.5 2.1 5.8 16.2 7.6 20.5 7.6 17.4 18.6 36.2 28.5 48.5 6.4 7.9 10.2 12.3 15 17.2 2.8 2.9 5 5.3 4.8 5.3-.2 0 1.9 2.1 4.8 4.7 2.8 2.7 6.2 5.8 7.4 7 1.3 1.2 5.6 4.8 9.6 8 3.9 3.2 7.4 6 7.7 6.3.3.3 2.3 1.8 4.5 3.5 2.2 1.6 4.3 3.4 4.7 3.9.4.6.8.7.8.2 0-.5 1 0 2.3 1.1 2.3 2.1 23.2 16.1 24.5 16.4.4.1 2.3 1.2 4.2 2.4 1.9 1.2 4.2 2.5 5 2.8.8.4 2.9 1.5 4.5 2.5 1.7 1.1 7.7 4.3 13.5 7.3s10.8 5.8 11.2 6.4c.4.5.8.6.8.2 0-.5 3 .8 6.6 2.7 3.6 2 7.2 3.6 8 3.6.8 0 1.4.4 1.4 1 0 .5.3.9.8.8.7-.1 4.9 1.6 13.8 5.8 2.8 1.3 5.4 2.4 5.7 2.4.4 0 3 1.1 5.9 2.4 2.9 1.3 9.1 4 13.8 5.9 11.4 4.6 12.3 5 13.5 5.3.6.1 4.4 1.7 8.5 3.4s8 3.3 8.5 3.4c1.9.5 5 1.7 6.7 2.7 1 .5 2.6.9 3.6.9s2.2.4 2.8.9c.5.5 6.7 3 13.7 5.5 7.1 2.6 14.2 5.3 15.9 6.2 1.7.9 4 1.7 5.2 1.9 1.1.2 3.3.6 4.7.9 4.2.7 12.1-1.4 17-4.7 10.4-6.8 14.2-20.7 8.7-32.3-2.3-5-9.5-11.9-13.5-12.9-1.5-.3-9.5-3.1-17.8-6.1-15.6-5.8-16.7-6.2-22.7-8.8-2-.9-3.8-1.6-4.1-1.6-.3 0-1.8-.5-3.4-1.2-1.5-.6-3-1.2-3.3-1.2-.6-.2-21.8-8.5-24.5-9.7-1.1-.4-6.9-2.9-13-5.4-16.4-6.9-25.3-11-43-19.8l-18.2-9.1c-1.3-.6-2.3-1.5-2.3-1.9 0-.5-.4-.6-.9-.3s-1.4-.1-2.1-.9c-.7-.8-1.8-1.5-2.5-1.5-.8 0-1.5-.3-1.7-.8-.1-.4-1.9-1.6-3.8-2.6-4.7-2.6-22.8-14.4-26.1-17-1.4-1.2-4.3-3.5-6.5-5.1-14.2-11-28.1-24.6-37.4-36.5-1.9-2.5-3.8-4.7-4.2-4.8-.4-.2-.8-.7-.8-1.2 0-1.1-7-11.3-8.3-12.2-.7-.4-.8-.8-.3-.8s.4-.6-.2-1.3c-4.9-6-16.7-35.6-18.8-46.7-.2-1.4-.7-3.6-1-5-1.7-7.2-1.5-6-3-18.5-1.8-14.9-.7-45.6 2-58.2.4-1.5.9-4 1.1-5.6.9-5.2 1.4-7.2 3-13.2 2.4-9.1 6.6-21.9 7.6-23 .5-.5.9-1.7.9-2.7 0-1 .4-1.8.8-1.8.5 0 .9-.6.9-1.3 0-1.7 9.4-21.1 10.5-21.5.4-.2.8-1 .8-1.7 0-1.2 12.5-20.4 16.6-25.5 13.5-16.6 27.2-30.3 41-40.7 2.7-2 5.1-4 5.4-4.3.3-.3 2.1-1.7 4-3s4.2-3.1 5-4c.8-.8 2.3-2 3.1-2.5.9-.6 4.5-3 8-5.5s9.8-6.6 13.9-9.2c4.1-2.6 8-5.2 8.7-5.8.7-.5 1.6-1 2.1-1s1.5-.7 2.2-1.5c.7-.9 1.5-1.3 1.8-1.1.2.3 1.6-.4 3-1.4 3.2-2.6 4.2-2.5 3.6.2zM600.7 594.9c.3 2.4 6.1 16.6 10.6 26.1 9.1 19.4 24.2 42.3 40.2 61 8.2 9.6 32 32.4 41.7 40 1 .8 3.1 2.5 4.6 3.8 4.5 3.9 26.1 19.2 27.1 19.2.5 0 1.1.4 1.3.8 1.3 3.1 46.7 28.2 67.3 37.2 2.2 1 6.6 2.9 9.7 4.4 3.1 1.4 6.2 2.6 6.8 2.6.7 0 2.4.7 3.8 1.5 3.5 1.9 22.9 9.5 26.2 10.1 1.3.3 3.8 1.1 5.5 1.9 3.2 1.4 9.3 3.4 11 3.6.6.1 1.8.5 2.7 1 .9.5 4 1.5 7 2.3 2.9.8 8.5 2.4 12.3 3.6 3.9 1.2 8.1 2.3 9.4 2.6 1.4.3 2.8.7 3.3 1 .4.3 1.8.7 3 1 3.2.6 5.2 1.1 14.3 3.4 4.4 1.2 8.9 2.3 10 2.5 5.4 1.3 9.1 1.9 9.8 1.7.4-.1.7.1.7.6 0 .4 1 .8 2.3.8 1.2.1 3.3.4 4.7.8 1.4.3 3.9.9 5.5 1.1 1.7.3 3.7.8 4.5 1 .8.2 3.1.6 5 .9 1.9.2 6.9 1.1 11 2 7 1.4 11.3 2.1 18.5 3.2 1.7.2 4.6.7 6.5 1 1.9.3 4.9.7 6.5.9 1.7.2 3 .4 3 .5 0 .1 1.6.3 3.5.5 3.7.3 11.8 1.3 16 2 2.2.4 7.7 1 17 2 1.4.1 5.4.6 9 1 3.6.4 9 .9 12 1.1 3 .2 8.7.6 12.5.9 3.9.4 9.9.8 13.5 1 3.6.2 6.5.4 6.5.5 0 .2 10.4.6 36 1.5 9.9.4 48.6.8 86 .9 66.8.3 68.1.3 72.7 2.4 5.9 2.6 12.7 9.3 15.5 15.2 1.7 3.6 2.1 6.1 1.9 12.5-.3 9.1-2.2 13.9-8 19.7-3.4 3.4-11.6 8.5-11.6 7.2 0-.4-.6-.1-1.3.5-1 .7-16.4 1.1-51.3 1.1l-50 .1-5.2 2.4c-20.7 9.6-20.8 37.7 0 46.9 5.1 2.3 6.7 2.4 23.8 2.6 10.1 0 18.6.3 18.8.5.7.7.5 139.5-.2 140.2-.3.4-139.9.7-310.1.7-274.3.1-309.6-.1-310-1.4-.2-.8-.4-32.7-.3-70.8V961l238.9-.1c131.4-.1 239.2-.2 239.7-.3.4-.1 2.6-.6 5-1 2.3-.4 4.2-1.2 4.2-1.6 0-.5.9-1.2 2-1.5 3.5-1.1 8.8-7.7 10.5-13.1 1.5-4.9 1.9-16.4.5-16.4-.3 0-1.2-1.6-1.9-3.5-1.1-3.1-9.9-12-11.8-12-.5 0-1.5-.5-2.3-1-1-.7-95.6-1.1-269.5-1.2-147.4-.1-270.7-.4-274-.6-12.3-.9-24-11.1-26-22.7-.3-1.9-.8-4.3-1.1-5.3-.3-.9-.2-1.7.3-1.7s.8-1.2.7-2.8c-.4-9.3 10.6-22 21.6-25 .8-.2 16.6-.5 35-.6 31.2-.2 33.8-.4 38-2.3 10.1-4.5 16.1-13.9 15.6-24.7-.4-10.2-5.7-18.1-15.2-22.6-4.4-2-6.1-2.1-30.5-2.2-28.7-.1-26.2.6-27.4-7.5-1.9-12-2.8-25.2-2.8-39.8 0-15.6.6-23.6 2.8-38.5 1.1-7.1 1.2-7.4 1.4-8 .2-.3.4-1.9.6-3.5.2-1.7 1.3-6.4 2.5-10.5s2.2-8.2 2.4-9c.2-1.7 4.3-14.5 5.6-17.5 1.1-2.6 2-5.8 1.9-6.9 0-.5.4-1.2 1.1-1.6.6-.4 1.2-1.3 1.3-2.1.8-5.3 23.2-45.1 28.9-51.4.7-.8 2.9-3.4 4.8-5.9 3.5-4.6 4.2-4.9 4.7-1.7zm259.8 560c1.4.1-5.1 7.1-22.5 24.2-13.5 13.2-30.4 29.9-37.6 37-7.2 7.1-13.5 12.9-14 12.9-.8 0-10.5-9.4-62.3-60.4-7.2-7-13.1-13.1-13.1-13.5 0-.4 137.6-.6 149.5-.2zm235.2 0c1.7.1-1.1 3.3-12.5 14.5-52 51.1-60.8 59.6-61.6 59.6-.5 0-7.9-6.9-16.5-15.4-26.3-26-50.4-49.6-54.8-53.7-2.4-2.2-4.3-4.1-4.3-4.4 0-.2 1.5-.5 3.3-.7 2.6-.2 139.2-.1 146.4.1zm-127.8 95c14.9 14.6 16.3 16.2 15 17.8-1.3 1.7-8.5 8.8-57.1 56.8l-21.7 21.5-40.3-40-40.3-40 19.5-19.1c10.7-10.5 28.9-28.3 40.3-39.5l20.8-20.4 23.7 23.4c13 12.9 31.1 30.7 40.1 39.5zm141.6-30.7c-.4 3-.7 5.5-2 16.3-.2 1.6-.6 5.2-.9 8-1.5 14-1.8 16.2-2.2 18.5-.4 2.3-1.3 9.8-1.9 16-.7 6.6-1.6 13.8-2.2 16.5-.3 1.6-.7 4.7-.7 6.7-.1 2-.4 3.9-.7 4.2-.2.3-9.4-8.5-20.3-19.4l-19.8-19.9 25.4-25.1c13.9-13.7 25.4-25 25.5-25 .2 0 .1 1.5-.2 3.2zM819.9 1336c14.3 14 30.8 30.2 36.6 35.9l10.6 10.5-39.8 39.3c-21.9 21.6-40.2 39.3-40.7 39.3-1.5 0-67-65-67.4-67-.2-.8-.5-3-.7-5-.2-1.9-.6-6.6-1-10.4l-.8-6.8 34.9-34.3 34.8-34.2 3.8 3.6c2.1 2 15.5 15.1 29.7 29.1zm224.7-11.5c12 11.9 27.7 27.2 34.7 34.2l12.8 12.6-.5 4.6c-.2 2.5-.5 4.6-.6 4.6-.1 0-.3 1.3-.4 3-1.2 12.2.9 9.5-30.5 40.5-15.9 15.7-30.9 30.5-33.4 32.9l-4.5 4.3-25.4-25c-13.9-13.8-32-31.6-40.2-39.7l-14.8-14.7 19.8-19.5c11-10.7 22.7-22.2 26.2-25.5 3.4-3.3 6.2-6.2 6.2-6.4 0-.2 1.9-2.1 4.2-4.2 2.3-2 8.4-8.1 13.7-13.4 5.3-5.3 9.9-9.7 10.2-9.7.3-.1 10.4 9.6 22.5 21.4zm-80.8 153.3c11.1 11 20.2 20.3 20.2 20.6 0 .4-8.1 8.7-17.9 18.4-9.9 9.7-27.7 27.3-39.5 38.9-11.9 11.7-22 21.3-22.5 21.3s-11.5-10.5-24.5-23.3c-12.9-12.7-30.5-30.1-39-38.5-8.6-8.4-15.8-15.7-16.1-16.2-.5-.8 16.9-18.4 65.9-66.4l13.8-13.6 19.7 19.4c10.8 10.7 28.7 28.4 39.9 39.4zm-224.3 10.8c5.3 5.3 9.3 9.9 9 10.3-2.3 2.6-15 15-15.2 14.7-.1-.1-.5-2.4-.7-5-.3-2.7-.7-6.5-1-8.5-.3-2-.8-6.8-1.1-10.6-.4-3.9-.9-7.8-1-8.8-.2-.9-.2-1.7 0-1.7.3 0 4.8 4.3 10 9.6zm339-4.4c-.3 2.9-.8 6.6-1 8.3-.6 4-1.6 13.2-1.9 17.3-.2 1.8-.5 3.4-.8 3.7-.2.2-3.9-3.1-8.1-7.3l-7.8-7.8 9.8-9.7c5.4-5.3 9.9-9.7 10.1-9.7.2 0 .1 2.4-.3 5.2zm-245.3 97c23.1 23 42.1 42.3 42.2 43 .1.7.5 1.9.9 2.5.6 1-.3 1.3-3.5 1.4-10.2.1-81.4 0-82.3-.1-.6-.1-1.4-.2-2 0-3.4.6-40.8.1-41.5-.6-.5-.5-1.1-3.6-1.4-6.9-.3-3.3-.8-7.4-1-9-.2-1.7-.7-5.7-1-9-.4-3.3-1.2-9.7-1.7-14.3l-1.1-8.2 22.8-22.5 22.8-22.5 2.4 2.3c1.3 1.2 21.3 21 44.4 43.9zm204.1-31c7.1 7.1 13 12.8 13.1 12.8.2 0 4 3.7 8.5 8.2l8.2 8.3-.5 6c-.3 3.3-.8 7.8-1.1 10-.2 2.2-.7 6-.9 8.5-.3 2.5-.8 7.2-1.1 10.5-.4 3.3-.8 7.3-1 8.8-.1 1.5-.5 3.1-.9 3.4-.8.8-132.6 1-132.6.2 0-.3 5-5.5 11.1-11.5s20-19.7 30.9-30.4c10.9-10.7 24.1-23.7 29.4-28.9 5.3-5.1 9.6-9.8 9.6-10.2 0-.5.4-.9.9-.9s3.1-2.2 5.7-5c4-4.2 5-4.8 6.3-3.7.9.6 7.4 6.9 14.4 13.9zm18 131.3c0 1.1-.4 4.2-.7 7-.8 7.1-1.4 12.6-2.1 19.2-.3 3.2-.7 6.8-.9 8-.3 1.2-.8 5-1.1 8.5-1.2 11.7-1.8 13.3-4.8 13.3-1.4.1-2.9.4-3.3.8-.4.3-1.4.2-2.4-.3s-2-.7-2.3-.4c-.5.5-16.2.6-27.4.2-2.4-.1-4.5 0-4.7.3-.2.2-4.8.2-10.1-.1-5.3-.3-9.9-.1-10.2.3-.3.4-1.1.3-1.9-.4-1-.8-1.4-.8-1.4 0 0 .7-.8.8-2.4.1-1.3-.5-2.6-.7-2.8-.5-.4.4-8.5.6-14.5.3-2.4-.1-4.5 0-4.7.3-.2.2-4.8.2-10.1-.1-5.3-.3-9.9-.1-10.2.3-.3.4-1.1.3-1.9-.4-1-.8-1.4-.8-1.4 0 0 .7-.8.8-2.4.1-1.3-.5-2.6-.7-2.8-.5-.4.4-7.6.6-14.3.4-2.2 0-4.4 0-5 .1-1.4.2-14.1 0-20.3-.3-2.8-.1-5.2.2-5.2.6 0 .4-.9.3-2-.3-1.4-.8-2-.8-2 0 0 .6-.5.8-1.1.5-1.5-1-10.9-1.1-10.9-.2 0 .4-.9.3-2-.3-1.4-.8-2-.8-2 0 0 .6-.5.8-1.1.5-1.5-1-10.9-1.1-10.9-.2 0 .4-.9.3-2-.3-1.4-.8-2-.8-2 0 0 .6-.5.8-1.1.5-1.5-1-10.9-1.1-10.9-.2 0 .4-.8.3-1.9-.2-1-.6-2-.8-2.2-.6-.5.5-7.6.6-13.6.3-2.4-.1-4.5 0-4.7.3-.2.2-4.8.2-10.1-.1-5.3-.3-9.9-.1-10.2.3-.3.4-1.1.3-1.9-.4-1-.8-1.4-.8-1.4 0 0 .7-.8.8-2.4.1-1.3-.5-2.6-.7-2.8-.5-.4.4-8.5.6-14.5.3-2.4-.1-4.5.1-4.8.4-.7.6-5.4-.2-5.9-1.1-.2-.3-.7-2.9-1-5.6-.3-2.8-.8-6.8-1-9-.3-2.2-.8-6.7-1.1-10-.4-3.3-.9-7.6-1.1-9.5-.9-6.7-1.3-9.5-1.9-15.4-.3-3.2-.8-6.2-1-6.7-.3-.4.1-.9.7-1.2.7-.2 69-.3 151.8-.3 149.9.1 150.5.1 150.3 2.1z"/></svg>