<svg aria-hidden="true" style="position: absolute; width: 0; height: 0; overflow: hidden;" version="1.1"
    xmlns="http://www.w3.org/2000/svg" xmlns:xlink="http://www.w3.org/1999/xlink">
    <defs>
        <symbol id="burger" viewBox="0 0 32 32">
            <path fill="none" stroke="#fff" style="stroke: var(--color1, #fff)" stroke-linejoin="miter"
                stroke-linecap="round" stroke-miterlimit="4" stroke-width="2" d="M6 10h20M6 16h20M6 22h20"></path>
        </symbol>
        <symbol id="cow" viewBox="0 0 31 32">
            <path
                d="M6.002 0.778c-0.254 0.219-0.98 1.732-1.24 2.558-0.31 1.024-0.415 1.792-0.374 2.851 0.056 1.514 0.437 2.662 1.275 3.861 0.219 0.315 0.395 0.585 0.395 0.607 0 0.015-0.134 0.029-0.303 0.029-0.726 0-2.086 0.241-3.128 0.555-1.655 0.497-2.627 1.367-2.627 2.34 0 0.343 0.31 0.928 0.641 1.228 0.641 0.578 2.043 1.126 3.55 1.389 0.521 0.095 2.071 0.256 2.416 0.264 0.063 0 0.085 0.336 0.085 1.44 0 0.951 0.035 1.689 0.106 2.142 0.253 1.623 1.042 3.342 2.084 4.555l0.36 0.417-0.24 0.387c-0.352 0.548-0.486 0.965-0.528 1.586-0.106 1.492 0.823 2.815 2.621 3.744 3.422 1.776 8.741 1.082 10.735-1.404 0.972-1.214 1.085-2.603 0.317-3.861l-0.24-0.388 0.43-0.519c0.803-0.965 1.324-1.93 1.718-3.152 0.331-1.038 0.458-2.040 0.458-3.626 0-0.724 0.021-1.323 0.056-1.323 0.324-0.008 1.881-0.176 2.374-0.264 1.514-0.263 2.889-0.804 3.55-1.389 0.331-0.3 0.641-0.885 0.641-1.228 0-1.083-1.098-1.96-3.142-2.486-0.669-0.176-1.93-0.387-2.543-0.424l-0.289-0.023 0.317-0.438c0.394-0.534 0.887-1.571 1.078-2.252 0.535-1.967 0.204-4.255-0.944-6.441-0.48-0.905-0.811-1.117-1.198-0.759-0.148 0.138-0.212 0.329-0.352 1.016-0.437 2.186-1.247 3.92-2.43 5.199l-0.521 0.571h-11.144l-0.465-0.505c-1.155-1.271-1.994-3.070-2.43-5.264-0.141-0.688-0.204-0.877-0.352-1.016-0.233-0.212-0.458-0.205-0.718 0.022zM6.903 5.114c0.374 0.819 0.839 1.586 1.387 2.295l0.437 0.563-0.457 0.344c-0.43 0.329-0.831 0.797-1.142 1.33l-0.133 0.242-0.338-0.461c-1.155-1.594-1.444-3.546-0.831-5.571 0.296-0.98 0.289-0.973 0.556-0.125 0.127 0.409 0.367 1.031 0.521 1.382zM25.238 3.571c0.255 0.709 0.403 1.526 0.403 2.378 0 0.030-0 0.060-0.001 0.090l0-0.005c0 1.331-0.352 2.456-1.091 3.465l-0.331 0.453-0.247-0.417c-0.319-0.54-0.732-0.991-1.22-1.344l-0.013-0.009c-0.19-0.124-0.337-0.248-0.337-0.263 0-0.022 0.133-0.19 0.303-0.373 0.782-0.87 1.62-2.435 2.036-3.779 0.126-0.418 0.253-0.761 0.274-0.761s0.127 0.256 0.225 0.562zM21.64 8.916c0.782 0.329 1.528 1.271 1.648 2.069 0.063 0.439 0.211 0.717 0.401 0.761 0.085 0.015 0.669 0.066 1.296 0.109 2.225 0.147 3.979 0.622 4.727 1.272 0.345 0.307 0.31 0.563-0.105 0.878-0.831 0.629-2.627 1.104-4.459 1.185-1.212 0.051-1.465 0.086-1.628 0.255-0.119 0.125-0.133 0.256-0.133 1.579 0 1.792-0.092 2.823-0.317 3.656-0.317 1.133-0.944 2.34-1.676 3.196l-0.303 0.351-0.627-0.373c-0.669-0.415-1.445-0.74-2.272-0.933l-0.053-0.010c-2.67-0.636-5.622-0.248-7.607 1.002l-0.458 0.292-0.289-0.343c-0.394-0.461-1.014-1.448-1.261-2.003-0.542-1.258-0.704-2.282-0.704-4.534 0-2.186 0.112-2.026-1.507-2.113-2.071-0.11-3.65-0.483-4.643-1.111-0.733-0.468-0.612-0.885 0.409-1.375 0.979-0.476 2.324-0.76 4.191-0.877 1.451-0.095 1.486-0.117 1.62-0.819 0.197-1.060 0.979-1.937 1.966-2.216 0.246-0.073 1.627-0.087 5.853-0.080l5.53 0.014 0.401 0.169zM17.68 24.051c1.726 0.424 3.015 1.213 3.572 2.193 0.134 0.227 0.19 0.461 0.218 0.819 0.029 0.446 0.008 0.555-0.162 0.921-0.782 1.661-3.656 2.756-6.579 2.508-3.515-0.292-5.826-2.252-4.917-4.175 0.493-1.038 2.162-2.032 3.923-2.326 0.289-0.043 0.578-0.095 0.634-0.11s0.691-0.015 1.41 0c0.978 0.023 1.45 0.066 1.901 0.169z">
            </path>
            <path
                d="M10.693 12.579c-0.437 0.147-0.733 0.337-1.127 0.732-0.346 0.329-0.374 0.716-0.085 0.95 0.268 0.219 0.521 0.19 0.845-0.095 0.409-0.359 0.726-0.505 1.121-0.505 0.394-0.007 0.697 0.132 1.119 0.505 0.324 0.285 0.578 0.314 0.846 0.095 0.141-0.118 0.183-0.212 0.183-0.432 0-0.226-0.049-0.329-0.297-0.577-0.697-0.702-1.732-0.972-2.606-0.673zM18.906 12.572c-0.45 0.168-1.028 0.548-1.26 0.833-0.226 0.278-0.233 0.592 0 0.827 0.232 0.248 0.514 0.233 0.852-0.044 0.831-0.688 1.451-0.709 2.219-0.073 0.197 0.169 0.422 0.3 0.493 0.3 0.345 0 0.627-0.307 0.627-0.673 0-0.233-0.585-0.775-1.113-1.031-0.585-0.285-1.282-0.336-1.817-0.138zM11.715 26.106c-0.204 0.197-0.275 0.483-0.169 0.709 0.078 0.183 0.197 0.256 0.683 0.387 0.219 0.058 0.31 0.131 0.387 0.314 0.099 0.242 0.106 0.242 0.649 0.264l0.542 0.022v-0.205c-0.007-0.292-0.169-0.716-0.381-1.008-0.246-0.337-0.676-0.556-1.162-0.6-0.331-0.029-0.415-0.015-0.549 0.118zM18.442 26.054c-0.352 0.095-0.859 0.571-1 0.943-0.070 0.196-0.118 0.423-0.134 0.658l-0 0.008c-0.014 0.314 0.014 0.387 0.183 0.541 0.415 0.365 0.965 0.080 0.965-0.505 0-0.285 0.211-0.483 0.585-0.555 0.394-0.073 0.535-0.233 0.542-0.607 0-0.489-0.437-0.68-1.142-0.483z">
            </path>
        </symbol>
        <symbol id="facebook" viewBox="0 0 32 32">
            <path fill="#f8d24e" style="fill: var(--color2, #f8d24e)"
                d="M16 32c8.837 0 16-7.163 16-16s-7.163-16-16-16-16 7.163-16 16 7.163 16 16 16z"></path>
            <path fill="#84a178" style="fill: var(--color3, #84a178)"
                d="M20.446 15.981h-2.611v9.619h-3.955v-9.619h-1.88v-3.379h1.88v-2.187c0-1.564 0.739-4.014 3.991-4.014l2.929 0.012v3.281h-2.125c-0.348 0-0.839 0.176-0.839 0.922v1.989h2.955l-0.345 3.377z">
            </path>
        </symbol>
        <symbol id="github" viewBox="0 0 32 32">
            <path fill="#f8d24e" style="fill: var(--color2, #f8d24e)"
                d="M32 16c0 8.837-7.163 16-16 16s-16-7.163-16-16c0-8.837 7.163-16 16-16s16 7.163 16 16z"></path>
            <path fill="#84a178" style="fill: var(--color3, #84a178)"
                d="M16 6.588c-5.17 0-9.412 4.242-9.412 9.412 0 4.411 3.096 8.419 7.206 9.412v-3.113c-0.162 0.041-0.349 0.064-0.54 0.064-0.234 0-0.46-0.035-0.672-0.1l0.016 0.004c-0.556-0.164-1.008-0.535-1.344-1.099-0.214-0.36-0.593-0.753-0.988-0.724l-0.097-1.098c0.856-0.073 1.594 0.521 2.033 1.258 0.196 0.328 0.421 0.52 0.709 0.605 0.278 0.083 0.577 0.043 0.925-0.080 0.088-0.697 0.408-0.958 0.649-1.327-2.452-0.365-3.429-1.666-3.816-2.692-0.514-1.364-0.238-3.066 0.67-4.143 0.018-0.021 0.050-0.075 0.038-0.113-0.417-1.259 0.090-2.3 0.109-2.41 0.481 0.141 0.559-0.143 2.089 0.786l0.264 0.159c0.111 0.066 0.075 0.028 0.186 0.019 0.59-0.166 1.269-0.266 1.97-0.276l0.006-0c0.668 0.008 1.336 0.104 2.002 0.284l0.086 0.009c-0.008-0.002 0.024-0.006 0.075-0.037 1.911-1.158 1.842-0.779 2.355-0.946 0.019 0.111 0.519 1.169 0.106 2.411-0.056 0.171 1.656 1.739 0.708 4.256-0.388 1.026-1.365 2.328-3.816 2.693 0.314 0.48 0.692 0.734 0.69 1.722v3.886c4.109-0.993 7.206-5 7.206-9.412 0-5.17-4.242-9.412-9.412-9.412z">
            </path>
        </symbol>
        <symbol id="ice-crema" viewBox="0 0 32 32">
            <path
                d="M16.108 0.107c0.080 0.215 0.241 1.252 0.241 1.573 0 0.003 0 0.007 0 0.011 0 0.818-0.318 1.561-0.838 2.114l0.001-0.002c-0.449 0.482-0.898 0.749-1.975 1.185-1.198 0.489-1.694 0.783-2.256 1.339-0.569 0.569-0.904 1.191-1.024 1.922-0.134 0.796 0 1.358 0.408 1.68l0.207 0.16-0.328 0.208c-0.662 0.436-1.867 1.46-2.075 1.774-0.402 0.603-0.362 1.164 0.093 1.393l0.214 0.107-0.241 0.228c-0.362 0.341-0.436 0.576-0.382 1.191 0.034 0.409 0.020 0.63-0.073 0.964-0.114 0.436-0.114 0.442 0.033 0.75 0.148 0.301 0.563 0.683 0.938 0.844 0.18 0.080 0.187 0.107 0.228 0.723 0.020 0.356 0.053 1.486 0.080 2.517 0.020 1.031 0.068 1.975 0.107 2.089 0.057 0.148 0.152 0.27 0.273 0.359l0.002 0.002c0.388 0.268 0.656 0.556 0.829 0.891 0.195 0.382 0.409 1.319 1.058 4.559l0.455 2.276 0.282 0.268c0.535 0.529 1.56 0.77 3.247 0.77 1.693 0 2.704-0.235 3.24-0.764l0.288-0.274 0.414-2.109c0.916-4.612 0.997-4.867 1.714-5.436 0.22-0.181 0.436-0.402 0.475-0.502 0.047-0.114 0.094-0.991 0.127-2.316 0.027-1.178 0.068-2.343 0.094-2.591l0.040-0.448 0.436-0.329c0.548-0.421 0.763-0.803 0.763-1.392-0.006-0.696-0.462-1.46-1.292-2.142l-0.396-0.321 0.195-0.276c0.81-1.117 0.301-2.664-1.205-3.694l-0.455-0.315 0.167-0.174c0.743-0.796 0.864-3.173 0.241-4.827-0.374-0.984-1.232-2.055-2.283-2.845-0.514-0.388-1.934-1.245-2.060-1.245-0.027 0-0.027 0.047-0.006 0.107zM18.036 2.444c0.356 0.348 0.783 0.823 0.951 1.064 0.997 1.393 1.252 3.14 0.649 4.426-0.241 0.522-0.964 1.298-1.634 1.76-1.024 0.71-3.327 1.902-4.933 2.557-2.584 1.052-4.084 1.252-4.258 0.563-0.068-0.261 0.127-0.468 0.951-1.018 0.742-0.508 4.076-2.986 4.136-3.086 0.020-0.027-0.321 0.127-0.749 0.341-1.452 0.737-2.142 0.596-2.108-0.428 0.020-0.743 0.556-1.587 1.298-2.068 0.188-0.12 0.771-0.388 1.307-0.603 1.76-0.709 2.296-1.071 2.892-1.961 0.356-0.529 0.743-1.507 0.77-1.922 0.007-0.147 0.034-0.261 0.053-0.261s0.322 0.288 0.676 0.636zM19.863 10.050c0.489 0.274 0.997 0.743 1.218 1.111 0.389 0.662 0.188 1.325-0.649 2.169-0.91 0.924-2.463 1.808-4.171 2.37-1.573 0.516-3.079 0.756-5.236 0.83l-1.339 0.047 0.871 0.053c1.124 0.074 3.3 0.007 4.143-0.127 2.243-0.356 4.151-1.065 5.516-2.042 0.308-0.221 0.629-0.402 0.716-0.402 0.221 0 1.185 0.924 1.38 1.312 0.107 0.221 0.133 0.382 0.114 0.596-0.1 0.891-1.186 1.366-3.803 1.68-3.2 0.382-7.384 0.007-9.172-0.816-0.844-0.388-0.984-0.61-0.77-1.198 0.067-0.188 0.080-0.409 0.053-0.724-0.034-0.415-0.027-0.468 0.12-0.622 0.335-0.362 0.898-0.569 2.96-1.092 0.723-0.187 1.707-0.482 2.175-0.656 1.138-0.415 3.274-1.493 4.264-2.156 0.931-0.616 1.065-0.643 1.607-0.334zM10.972 18.244c1.406 0.409 2.652 0.529 4.968 0.482 1.74-0.033 2.812-0.14 4.357-0.415 0.316-0.053 0.589-0.1 0.623-0.1 0.074 0 0.053 2.571-0.027 3.247-0.087 0.716-0.282 1.272-0.489 1.406-0.214 0.14-1.285 0.288-2.718 0.368-2.939 0.16-5.958 0-6.895-0.375-0.508-0.207-0.563-0.476-0.569-2.959 0-1.653 0.013-1.881 0.1-1.847 0.053 0.020 0.348 0.107 0.649 0.194zM12.559 23.934c0.482 0.060 1.004 0.12 1.164 0.14l0.289 0.034-0.255 0.281c-0.328 0.355-0.83 1.064-1.011 1.426-0.207 0.415-0.275 0.442-0.582 0.275l-0.261-0.148-0.147-0.91c-0.078-0.506-0.143-0.863-0.216-1.217l0.028 0.165c-0.060-0.173-0.121-0.173 0.99-0.046zM19.696 23.86c0 0.013-0.034 0.187-0.068 0.382-0.040 0.2-0.207 1.292-0.374 2.429-0.341 2.377-0.569 3.494-0.777 3.869-0.288 0.502-0.978 0.796-2.095 0.891-0.436 0.034-1.748-0.053-1.821-0.121-0.053-0.060 1.098-1.486 1.279-1.58 0.167-0.094 0.213-0.080 0.782 0.213 0.663 0.349 0.998 0.403 0.998 0.181s-0.174-0.436-0.603-0.729c-0.395-0.282-0.535-0.443-0.535-0.63 0-0.053 0.194-0.355 0.428-0.669s0.575-0.817 0.749-1.118l0.329-0.542 0.3 0.041c0.609 0.087 0.77 0.080 0.75-0.053-0.013-0.068-0.127-0.261-0.255-0.422-0.127-0.167-0.228-0.335-0.228-0.368 0-0.127 0.622-1.299 0.824-1.547 0.174-0.214 0.315-0.322 0.315-0.228zM15.512 24.396c0.334 0.221 1.593 1.313 1.673 1.446 0.034 0.060-1.258 2.082-1.513 2.37-0.027 0.034-0.167-0.033-0.308-0.14-0.312-0.235-0.692-0.499-1.080-0.752l-0.085-0.052-0.904-0.596 0.542-0.917c0.964-1.613 0.944-1.587 1.151-1.587 0.107 0 0.341 0.1 0.523 0.228zM18.049 24.636c-0.235 0.288-0.428 0.469-0.508 0.469-0.174 0-0.456-0.154-0.931-0.502l-0.396-0.288 0.791-0.047c0.348-0.013 0.665-0.034 0.98-0.065l-0.064 0.005c0.536-0.087 0.536-0.080 0.128 0.428zM12.988 27.857c0.616 0.241 1.66 0.81 1.962 1.065 0.214 0.173 0.214 0.187 0.127 0.401-0.141 0.281-0.279 0.516-0.43 0.741l0.015-0.024c-0.128 0.191-0.277 0.434-0.417 0.682l-0.032 0.061c-0.213 0.415-0.281 0.449-0.723 0.329-0.476-0.141-0.729-0.382-0.863-0.818-0.181-0.609-0.469-2.329-0.436-2.597 0.013-0.1 0.294-0.040 0.796 0.161z">
            </path>
        </symbol>
        <symbol id="logo-desc" viewBox="0 0 30 32">
            <path fill="#f8d24e" style="fill: var(--color2, #f8d24e)"
                d="M15.226 17.082c1.415-3.784-1.515-5.855-3.457-7.217-0.371-0.278-0.742-0.538-1.044-0.776-0.525-0.438-0.921-1.015-1.133-1.674l-0.007-0.026c-0.104-0.319-0.163-0.686-0.163-1.067 0-0.345 0.049-0.679 0.141-0.995l-0.006 0.025c0.009-0.031 0.014-0.067 0.014-0.105 0-0.115-0.050-0.219-0.129-0.29l-0-0c-0.071-0.065-0.167-0.105-0.272-0.105-0.049 0-0.096 0.009-0.14 0.025l0.003-0.001c-0.69 0.273-1.285 0.63-1.811 1.067l0.011-0.009c-0.512 0.391-0.925 0.885-1.215 1.452l-0.011 0.024c-0.277 0.541-0.44 1.18-0.442 1.857v0.001c-0.367 0.287-0.684 0.613-0.952 0.978l-0.010 0.014c-0.445 0.593-0.713 1.341-0.713 2.151 0 0.061 0.002 0.121 0.004 0.181l-0-0.008c-0.58 0.526-1.023 1.192-1.276 1.945l-0.009 0.032c-0.143 0.422-0.226 0.908-0.226 1.414 0 0.33 0.035 0.652 0.102 0.962l-0.005-0.030c-0.234 0.141-0.416 0.35-0.518 0.599l-0.003 0.008c-0.056 0.135-0.088 0.292-0.088 0.457 0 0.12 0.017 0.237 0.050 0.347l-0.002-0.009c0.075 0.262 0.235 0.493 0.456 0.657 0.209 0.156 0.473 0.25 0.758 0.25 0.003 0 0.006 0 0.009-0h0.026v2.151c0 0.219 0.089 0.428 0.245 0.583s0.369 0.241 0.591 0.241h0.65l1.058 9.040c0.022 0.201 0.118 0.387 0.271 0.522s0.351 0.21 0.556 0.21h4.404c0.206-0 0.404-0.075 0.557-0.21s0.251-0.32 0.275-0.522l1.058-9.040h0.65c0.222 0 0.434-0.087 0.591-0.241 0.151-0.148 0.244-0.354 0.245-0.582v-2.152h0.026c0.001 0 0.001 0 0.002 0 0.348 0 0.663-0.139 0.894-0.365l-0 0c0.237-0.234 0.371-0.551 0.371-0.883 0-0.004 0-0.009 0-0.014 0-0.343-0.142-0.654-0.371-0.875l-0-0-0.011 0.003zM5.695 10.216c0.535 1.98 2.599 2.759 4.482 3.455 0.060 0.037 0.134 0.059 0.212 0.059 0.109 0 0.207-0.042 0.281-0.111l-0 0c0.076-0.073 0.124-0.175 0.124-0.289 0-0.010-0-0.019-0.001-0.028l0 0.001c-0.009-0.123-0.072-0.229-0.166-0.295l-0.001-0.001c-0.046-0.033-0.101-0.057-0.16-0.068l-0.003-0c-2.027-0.758-3.939-1.464-4.084-3.488-0.004-0.061-0.006-0.131-0.006-0.203 0-0.514 0.116-1.001 0.324-1.436l-0.009 0.020c0.246-0.518 0.601-0.949 1.038-1.277l0.009-0.006c0.283-0.231 0.586-0.438 0.906-0.615-0.010 0.114-0.015 0.247-0.015 0.381s0.006 0.267 0.017 0.398l-0.001-0.017c0.047 0.615 0.216 1.181 0.484 1.686l-0.011-0.023c0.281 0.531 0.648 0.98 1.087 1.343l0.007 0.006c0.308 0.26 0.691 0.527 1.114 0.812 0.977 0.692 2.087 1.465 2.792 2.511 0.441 0.619 0.704 1.39 0.704 2.223 0 0.538-0.11 1.051-0.309 1.517l0.010-0.025h-1.641c-3.382 0-7.27-0.922-8.038-3.506-0.072-0.242-0.113-0.519-0.113-0.807 0-0.292 0.043-0.573 0.122-0.839l-0.005 0.021c0.164-0.551 0.468-1.018 0.87-1.377l0.003-0.003-0.019-0.018zM8.74 22.693l1.24 1.222-1.241 1.222-1.24-1.23 1.24-1.215zM11.584 25.903l-1.025 1.010-1.24-1.222 1.241-1.219 1.076 1.057-0.052 0.374zM8.74 28.706l-1.241-1.222 1.241-1.222 1.24 1.222-1.241 1.222zM8.172 25.698l-1.241 1.222-1.032-1.018-0.044-0.366 1.077-1.057 1.24 1.219zM6.36 27.484l-0.249 0.245-0.063-0.556 0.312 0.311zM6.23 28.735l0.702-0.692 1.363 1.354c0.007 0.028 0.016 0.054 0.026 0.081h-2.005l-0.086-0.743zM10.552 28.044l0.702 0.692-0.086 0.732h-2.060l1.444-1.424zM11.368 27.729l-0.249-0.245 0.316-0.311-0.067 0.556zM11.74 24.53l-0.62-0.622 0.787-0.776-0.167 1.398zM10.548 23.352l-1.177-1.156h2.354l-1.177 1.157zM6.928 23.352l-1.177-1.156h2.354l-1.177 1.157zM10.938 31.169h-4.4c-0.013-0.002-0.024-0.012-0.026-0.025l-0-0-0.104-0.879h4.664l-0.1 0.879c-0.002 0.015-0.014 0.026-0.029 0.026-0 0-0 0-0 0v0h-0.003zM14.343 18.418h-1.292c-0.011-0.001-0.025-0.002-0.038-0.002-0.105 0-0.201 0.039-0.273 0.104l0-0c-0.081 0.073-0.132 0.178-0.133 0.295v0c0 0 0 0 0 0 0 0.117 0.051 0.223 0.133 0.295l0 0c0.071 0.064 0.166 0.103 0.271 0.103 0.014 0 0.028-0.001 0.042-0.002l-0.002 0h0.46v2.152c-0.001 0.008-0.005 0.014-0.010 0.019l-0 0c-0.005 0.004-0.012 0.007-0.019 0.007-0 0-0.001 0-0.001 0h-9.494c-0 0-0 0-0.001 0-0.007 0-0.014-0.003-0.019-0.007l0 0c-0.005-0.005-0.009-0.011-0.010-0.019v-2.152h7.355c0.104-0.010 0.195-0.058 0.261-0.129l0-0c0.065-0.070 0.105-0.165 0.105-0.268s-0.040-0.198-0.105-0.269l0 0c-0.066-0.071-0.157-0.119-0.259-0.128l-0.002-0h-8.168c-0.012 0.001-0.026 0.002-0.041 0.002-0.12 0-0.229-0.045-0.312-0.119l0 0c-0.092-0.083-0.149-0.202-0.15-0.335v-0c0-0 0-0 0-0.001 0-0.133 0.058-0.252 0.149-0.334l0-0c0.082-0.074 0.191-0.119 0.31-0.119 0.015 0 0.029 0.001 0.044 0.002l-0.002-0h0.843c0.104-0.010 0.195-0.058 0.261-0.129l0-0c0.065-0.070 0.105-0.165 0.105-0.268s-0.040-0.198-0.105-0.269l0 0c-0.066-0.071-0.157-0.119-0.259-0.129l-0.002-0h-0.742c-0.044-0.218-0.069-0.469-0.069-0.726 0-0.339 0.044-0.667 0.125-0.981l-0.006 0.027c0.15-0.579 0.412-1.083 0.764-1.511l-0.005 0.007c0.26 0.798 0.928 1.889 2.599 2.756 1.57 0.808 3.65 1.222 6.178 1.222h1.485c0.012-0.001 0.027-0.002 0.041-0.002 0.12 0 0.229 0.045 0.311 0.119l-0-0c0.092 0.083 0.149 0.202 0.15 0.335v0c0 0 0 0.001 0 0.001 0 0.133-0.058 0.252-0.149 0.334l-0 0c-0.082 0.074-0.191 0.119-0.31 0.119-0.015 0-0.029-0.001-0.044-0.002l0.002 0h0.026z">
            </path>
            <path fill="#f8d24e" style="fill: var(--color2, #f8d24e)"
                d="M16.964 29.152l-0.293 0.448 0.006 0.004 0.287-0.453zM20.113 29.304l0.535-0.012-0.014-0.62-0.611 0.104 0.090 0.528zM20.15 30.951l0.136 0.518 0.409-0.108-0.010-0.422-0.535 0.012zM16.017 31.030l0.121-0.522-0.003-0.001-0.117 0.523zM13.978 30.119l0.347-0.409h-0.001l-0.346 0.409zM13.24 28.446l0.536 0.003v-0.003h-0.536zM13.496 27.274l-0.48-0.236v0.001l0.48 0.235zM15.138 25.872l0.19 0.501 0.002-0.001-0.192-0.5zM20.401 25.736l0.534 0.041 0.035-0.452-0.44-0.109-0.129 0.52zM20.27 27.415l-0.099 0.526 0.587 0.111 0.046-0.596-0.534-0.042zM18.842 26.728c-0.804 0-1.48 0.086-1.973 0.303-0.253 0.111-0.483 0.268-0.651 0.489-0.159 0.209-0.255 0.473-0.255 0.76 0 0.005 0 0.010 0 0.015v-0.001h1.071c-0-0.004-0-0.008-0-0.013 0-0.043 0.014-0.083 0.038-0.115l-0 0c0.028-0.037 0.091-0.095 0.228-0.156 0.288-0.127 0.783-0.212 1.542-0.212v-1.072zM15.963 28.294c0 0.551 0.247 1.006 0.709 1.307l0.585-0.897c-0.16-0.103-0.223-0.221-0.223-0.409h-1.071zM16.677 29.604c0.438 0.277 1.015 0.381 1.663 0.381v-1.071c-0.559 0-0.899-0.095-1.089-0.215l-0.574 0.905zM18.34 29.985c0.635 0 1.256-0.051 1.863-0.154l-0.179-1.056c-0.5 0.088-1.077 0.139-1.665 0.139-0.007 0-0.013 0-0.020-0h0.001v1.071zM19.578 29.315l0.036 1.648 1.071-0.024-0.037-1.647-1.071 0.024zM20.013 30.433c-0.612 0.161-1.288 0.244-2.029 0.244v1.071c0.821 0 1.589-0.092 2.302-0.279l-0.273-1.036zM17.984 30.677c-0.757 0-1.369-0.060-1.846-0.169l-0.241 1.044c0.582 0.134 1.281 0.197 2.087 0.197v-1.071zM16.134 30.507c-0.511-0.114-0.881-0.236-1.127-0.356l-0.47 0.962c0.353 0.172 0.814 0.316 1.363 0.439l0.234-1.046zM15.008 30.151c-0.26-0.126-0.485-0.273-0.688-0.444l0.005 0.004-0.693 0.817c0.263 0.222 0.561 0.417 0.881 0.574l0.026 0.011 0.47-0.962zM14.323 29.71c-0.364-0.308-0.55-0.709-0.547-1.262l-1.071-0.005c-0.004 0.842 0.301 1.556 0.927 2.085l0.692-0.818zM13.776 28.446c0-0.36 0.070-0.669 0.202-0.936l-0.962-0.471c-0.211 0.43-0.311 0.902-0.311 1.407h1.071zM13.977 27.51c0.243-0.495 0.673-0.88 1.351-1.137l-0.38-1.002c-0.884 0.336-1.549 0.886-1.933 1.666l0.961 0.473zM15.331 26.372c0.712-0.273 1.507-0.414 2.392-0.414v-1.071c-0.999 0-1.926 0.159-2.776 0.485l0.384 1zM17.723 25.958c0.901 0 1.751 0.1 2.549 0.298l0.258-1.040c-0.89-0.221-1.826-0.33-2.807-0.33v1.071zM19.867 25.695l-0.13 1.679 1.068 0.084 0.131-1.679-1.068-0.083zM20.37 26.889c-0.557-0.105-1.068-0.161-1.528-0.161v1.071c0.377 0 0.818 0.046 1.328 0.142l0.199-1.053zM25.596 27.744l-0.003 0.536 0.544 0.003-0.005-0.544-0.536 0.005zM25.366 27.049l-0.364 0.393 0.005 0.004 0.359-0.397zM24.032 27.102l0.371 0.386 0.004-0.004-0.375-0.383zM23.708 27.734l-0.529-0.087-0.101 0.619 0.627 0.003 0.003-0.536zM27.646 30.59l0.324 0.427 0.192-0.146 0.018-0.241-0.534-0.039zM26.49 31.019l-0.115-0.523-0.003 0 0.118 0.523zM22.473 30.873l-0.182 0.504 0.004 0.001 0.178-0.505zM21.558 30.386l-0.332 0.42 0.003 0.002 0.003 0.002 0.326-0.425zM20.946 29.617l-0.48 0.237 0.001 0.002 0.479-0.24zM21.573 26.369v0zM26.469 25.788l0.214-0.49-0.005-0.002-0.209 0.493zM27.699 26.918l-0.482 0.234 0.001 0.003 0.48-0.237zM27.908 27.855l0.534 0.038 0.001-0.019v-0.020h-0.536zM27.845 28.718l-0.002 0.536 0.501 0.002 0.036-0.499-0.534-0.039zM23.603 28.697l0.003-0.536-0.699-0.003 0.178 0.676 0.518-0.137zM24.21 29.445l-0.263 0.466 0.002 0.001 0.261-0.468zM27.463 29.262v-0.536h-0.107l-0.098 0.041 0.206 0.495zM27.745 29.262l0.534 0.039 0.043-0.575h-0.577v0.536zM26.132 27.739c-0.004-0.387-0.094-0.803-0.406-1.087l-0.72 0.794c-0.006-0.005 0.006 0.001 0.021 0.047 0.016 0.049 0.032 0.131 0.033 0.257l1.071-0.011zM25.73 26.657c-0.281-0.261-0.65-0.347-1.013-0.347v1.071c0.208 0 0.272 0.050 0.284 0.061l0.729-0.785zM24.717 26.309c-0.399 0-0.77 0.125-1.060 0.409l0.75 0.766c0.059-0.058 0.144-0.103 0.31-0.103v-1.072zM23.661 26.715c-0.251 0.242-0.425 0.563-0.481 0.923l-0.001 0.009 1.057 0.174c0.025-0.149 0.081-0.252 0.166-0.334l-0.742-0.773zM23.705 28.27l1.889 0.010 0.006-1.071-1.889-0.011-0.006 1.071zM27.323 30.163c-0.118 0.089-0.404 0.213-0.948 0.333l0.23 1.046c0.565-0.125 1.050-0.287 1.365-0.525l-0.647-0.854zM26.372 30.497c-0.449 0.109-0.965 0.173-1.496 0.175h-0.002v1.071c0.566 0 1.145-0.068 1.735-0.202l-0.236-1.045zM24.874 30.672c-0.505 0-0.921-0.024-1.252-0.068l-0.143 1.062c0.394 0.053 0.861 0.078 1.395 0.078v-1.071zM23.622 30.603c-0.364-0.050-0.692-0.133-1.004-0.247l0.034 0.011-0.357 1.010c0.389 0.138 0.784 0.233 1.184 0.288l0.143-1.062zM22.656 30.369c-0.314-0.113-0.568-0.251-0.772-0.408l-0.652 0.85c0.305 0.234 0.661 0.42 1.058 0.565l0.365-1.007zM21.89 29.966c-0.194-0.158-0.351-0.354-0.461-0.578l-0.004-0.010-0.958 0.479c0.186 0.377 0.442 0.694 0.753 0.945l0.005 0.004 0.666-0.84zM21.426 29.38c-0.113-0.228-0.18-0.521-0.18-0.897h-1.071c0 0.502 0.090 0.965 0.29 1.372l0.96-0.475zM21.246 28.482c0-0.377 0.068-0.71 0.196-1.006l-0.983-0.426c-0.192 0.443-0.285 0.923-0.285 1.432h1.071zM21.442 27.477c0.135-0.311 0.3-0.542 0.487-0.707l-0.713-0.8c-0.322 0.287-0.572 0.653-0.757 1.082l0.983 0.426zM21.93 26.769c0.576-0.513 1.454-0.811 2.719-0.811v-1.071c-1.419 0-2.591 0.333-3.432 1.083l0.713 0.799zM24.649 25.958c0.006-0 0.012-0 0.019-0 0.575 0 1.123 0.119 1.619 0.334l-0.026-0.010 0.418-0.986c-0.593-0.258-1.284-0.409-2.010-0.409-0.007 0-0.014 0-0.021 0h0.001v1.071zM26.255 26.279c0.474 0.207 0.78 0.5 0.961 0.873l0.963-0.468c-0.307-0.632-0.82-1.092-1.497-1.387l-0.428 0.982zM27.218 27.156c0.1 0.202 0.154 0.432 0.154 0.699h1.071c0-0.417-0.086-0.811-0.265-1.174l-0.96 0.474zM27.374 27.815l-0.063 0.863 1.068 0.078 0.063-0.863-1.068-0.077zM27.848 28.182l-4.242-0.021-0.005 1.071 4.242 0.021 0.005-1.071zM23.085 28.833c0.126 0.475 0.432 0.834 0.862 1.078l0.527-0.933c-0.212-0.12-0.31-0.258-0.352-0.418l-1.036 0.274zM23.948 29.912c0.434 0.243 0.978 0.34 1.585 0.34v-1.071c-0.509 0-0.848-0.084-1.062-0.204l-0.523 0.935zM25.533 30.252c0.651 0 1.367-0.176 2.136-0.496l-0.412-0.989c-0.688 0.287-1.26 0.414-1.724 0.414v1.071zM27.463 29.797h0.283v-1.071h-0.282v1.071zM27.212 29.221l-0.1 1.329 1.068 0.080 0.099-1.329-1.068-0.080z">
            </path>
        </symbol>
        <symbol id="logo-mobile" viewBox="0 0 35 32">
            <path fill="#f8d24e" style="fill: var(--color2, #f8d24e)"
                d="M17.384 14.109c1.632-4.366-1.747-6.756-3.988-8.327-0.428-0.321-0.856-0.621-1.204-0.895-0.606-0.506-1.063-1.171-1.307-1.931l-0.008-0.030c-0.12-0.368-0.189-0.792-0.189-1.232 0-0.398 0.057-0.784 0.162-1.148l-0.007 0.029c0.011-0.036 0.017-0.078 0.017-0.121 0-0.132-0.057-0.251-0.148-0.333l-0-0c-0.082-0.076-0.193-0.122-0.314-0.122-0.057 0-0.111 0.010-0.161 0.029l0.003-0.001c-0.796 0.315-1.483 0.727-2.090 1.231l0.012-0.010c-0.591 0.451-1.068 1.021-1.402 1.675l-0.013 0.028c-0.319 0.625-0.507 1.362-0.509 2.143v0c-0.423 0.328-0.796 0.713-1.109 1.144-0.514 0.684-0.823 1.547-0.823 2.483 0 0.070 0.002 0.139 0.005 0.208l-0-0.010c-0.669 0.607-1.18 1.375-1.472 2.245l-0.011 0.037c-0.165 0.487-0.26 1.048-0.26 1.631 0 0.38 0.041 0.751 0.117 1.108l-0.006-0.034c-0.271 0.163-0.48 0.404-0.598 0.692l-0.003 0.010c-0.118 0.292-0.135 0.615-0.047 0.918 0.091 0.311 0.277 0.571 0.522 0.754l0.004 0.003c0.255 0.189 0.566 0.291 0.884 0.288h0.030v2.483c0 0.253 0.101 0.494 0.282 0.672s0.426 0.278 0.682 0.278h0.749l1.221 10.43c0.025 0.232 0.136 0.446 0.313 0.603s0.404 0.242 0.642 0.242h5.080c0.237 0 0.466-0.087 0.643-0.243s0.29-0.371 0.317-0.602l1.221-10.429h0.749c0.256 0 0.501-0.101 0.682-0.278 0.174-0.171 0.282-0.409 0.282-0.673 0-0 0-0 0-0v0-2.483h0.029c0.387 0 0.76-0.152 1.033-0.421 0.264-0.259 0.427-0.62 0.428-1.019v-0c0-0.005 0-0.010 0-0.015 0-0.397-0.164-0.755-0.428-1.010l-0-0-0.013 0.004zM6.388 6.188c0.617 2.285 2.998 3.183 5.171 3.987 0.070 0.043 0.154 0.068 0.244 0.068 0.197 0 0.365-0.121 0.435-0.293l0.001-0.003c0.020-0.049 0.032-0.106 0.032-0.166 0-0.154-0.076-0.29-0.193-0.372l-0.001-0.001c-0.053-0.038-0.116-0.065-0.184-0.078l-0.003-0c-2.339-0.875-4.546-1.689-4.712-4.024-0.004-0.070-0.007-0.151-0.007-0.233 0-0.593 0.134-1.155 0.373-1.657l-0.010 0.023c0.284-0.599 0.693-1.096 1.198-1.475l0.010-0.007c0.306-0.252 0.648-0.486 1.010-0.69l0.035-0.018c-0.011 0.132-0.018 0.285-0.018 0.439s0.007 0.308 0.019 0.459l-0.001-0.020c0.050 0.669 0.236 1.321 0.546 1.918 0.324 0.613 0.747 1.13 1.254 1.549l0.008 0.007c0.355 0.3 0.797 0.608 1.285 0.937 1.127 0.798 2.407 1.689 3.221 2.897 0.508 0.714 0.813 1.604 0.813 2.565 0 0.621-0.127 1.213-0.357 1.75l0.011-0.029h-1.893c-3.902 0-8.387-1.064-9.274-4.045-0.083-0.279-0.131-0.599-0.131-0.93 0-0.337 0.049-0.662 0.141-0.969l-0.006 0.024c0.19-0.635 0.54-1.174 1.004-1.589l0.003-0.003-0.022-0.021zM9.901 20.583l1.432 1.41-1.432 1.411-1.431-1.419 1.432-1.401zM13.182 24.285l-1.182 1.165-1.432-1.411 1.432-1.406 1.242 1.221-0.060 0.43zM9.901 27.52l-1.431-1.411 1.432-1.41 1.43 1.41-1.431 1.411zM9.245 24.049l-1.431 1.411-1.191-1.173-0.051-0.422 1.242-1.221 1.431 1.406zM7.155 26.109l-0.287 0.283-0.073-0.642 0.36 0.359zM7.005 27.554l0.809-0.798 1.572 1.563c0.008 0.031 0.018 0.062 0.029 0.093h-2.312l-0.099-0.857zM11.991 26.755l0.81 0.798-0.099 0.845h-2.377l1.667-1.642zM12.934 26.393l-0.287-0.284 0.364-0.359-0.077 0.642zM13.362 22.702l-0.715-0.718 0.908-0.895-0.193 1.613zM11.987 21.342l-1.358-1.334h2.716l-1.357 1.334zM7.811 21.342l-1.358-1.334h2.716l-1.357 1.334zM12.437 30.361h-5.077c-0.016-0.002-0.028-0.014-0.030-0.029l-0-0-0.12-1.013h5.38l-0.115 1.013c-0.001 0.009-0.005 0.017-0.012 0.022l-0 0c-0.006 0.005-0.014 0.008-0.023 0.008-0 0-0 0-0 0v0h-0.004zM16.365 15.651h-1.491c-0.013-0.001-0.028-0.002-0.044-0.002-0.121 0-0.232 0.046-0.315 0.12l0-0c-0.093 0.084-0.152 0.206-0.152 0.341 0 0.067 0.014 0.131 0.040 0.188l-0.001-0.003c0.054 0.119 0.154 0.21 0.276 0.25l0.003 0.001c0.044 0.015 0.094 0.023 0.146 0.023 0.016 0 0.032-0.001 0.047-0.002l-0.002 0h0.531v2.483c-0.002 0.017-0.016 0.029-0.033 0.029-0 0-0 0-0 0v0h-10.955c-0 0-0 0-0 0-0.017 0-0.031-0.013-0.033-0.029l-0-0v-2.483h8.485c0.12-0.011 0.225-0.066 0.301-0.148l0-0c0.075-0.081 0.121-0.19 0.121-0.309s-0.046-0.228-0.121-0.31l0 0c-0.076-0.082-0.181-0.137-0.299-0.149l-0.002-0h-9.425c-0.014 0.001-0.030 0.002-0.047 0.002-0.138 0-0.264-0.052-0.359-0.137l0.001 0c-0.106-0.096-0.172-0.234-0.173-0.387v-0c0 0 0-0 0-0 0-0.153 0.066-0.291 0.172-0.385l0.001-0c0.094-0.085 0.22-0.137 0.357-0.137 0.017 0 0.034 0.001 0.051 0.002l-0.002-0h0.973c0.12-0.012 0.224-0.067 0.3-0.149l0-0c0.075-0.081 0.121-0.19 0.121-0.309s-0.046-0.228-0.121-0.31l0 0c-0.076-0.082-0.181-0.137-0.299-0.148l-0.002-0h-0.855c-0.050-0.252-0.079-0.541-0.079-0.837 0-0.391 0.050-0.771 0.145-1.133l-0.007 0.031c0.174-0.668 0.476-1.249 0.881-1.743l-0.006 0.008c0.3 0.92 1.070 2.178 2.998 3.179 1.812 0.933 4.211 1.41 7.128 1.41h1.714c0.014-0.001 0.030-0.002 0.047-0.002 0.138 0 0.264 0.052 0.359 0.137l-0-0c0.106 0.096 0.172 0.234 0.173 0.387v0c0 0 0 0.001 0 0.001 0 0.153-0.067 0.29-0.172 0.385l-0 0c-0.094 0.085-0.219 0.137-0.357 0.137-0.017 0-0.034-0.001-0.051-0.002l0.002 0h0.029zM19.859 28.392l-0.342 0.525 0.008 0.004 0.335-0.529zM23.54 28.568l0.627-0.013-0.017-0.724-0.714 0.12 0.105 0.617zM23.583 30.495l0.16 0.606 0.477-0.126-0.011-0.493-0.627 0.013zM18.752 30.588l0.141-0.611h-0.004l-0.136 0.611zM16.367 29.523v0zM15.505 27.565l0.626 0.003v-0.003h-0.626zM15.804 26.196l-0.562-0.277v0.002l0.562 0.275zM17.724 24.557l0.223 0.586 0.002-0.001-0.224-0.585zM23.877 24.397l0.624 0.049 0.042-0.529-0.515-0.127-0.151 0.607zM23.724 26.361l-0.116 0.615 0.686 0.131 0.055-0.697-0.625-0.048zM22.055 25.558c-0.94 0-1.731 0.1-2.307 0.354-0.296 0.13-0.564 0.313-0.76 0.572-0.187 0.244-0.299 0.554-0.299 0.89 0 0.005 0 0.011 0 0.016v-0.001h1.253c0-0.073 0.017-0.115 0.044-0.149 0.033-0.042 0.106-0.11 0.267-0.181 0.337-0.148 0.916-0.248 1.802-0.248v-1.253zM18.688 27.389c0 0.644 0.289 1.176 0.829 1.528l0.683-1.049c-0.185-0.121-0.259-0.259-0.259-0.478h-1.253zM19.524 28.921c0.511 0.323 1.187 0.445 1.944 0.445v-1.253c-0.654 0-1.052-0.11-1.274-0.251l-0.669 1.058zM21.468 29.367c0.743 0 1.469-0.061 2.178-0.18l-0.21-1.235c-0.585 0.103-1.259 0.163-1.947 0.163-0.007 0-0.015 0-0.022-0h0.001v1.253zM22.915 28.583l0.042 1.927 1.253-0.028-0.043-1.927-1.252 0.028zM23.424 29.89c-0.716 0.189-1.506 0.285-2.372 0.285v1.252c0.96 0 1.858-0.107 2.691-0.327l-0.319-1.211zM21.053 30.175c-0.884 0-1.6-0.070-2.159-0.199l-0.281 1.221c0.681 0.157 1.499 0.23 2.44 0.23v-1.252zM18.889 29.976c-0.598-0.133-1.029-0.275-1.317-0.416l-0.55 1.125c0.413 0.202 0.952 0.371 1.594 0.514l0.273-1.223zM17.572 29.56c-0.305-0.147-0.568-0.319-0.806-0.518l0.006 0.005-0.81 0.955c0.313 0.265 0.668 0.493 1.061 0.684l0.549-1.125zM16.772 29.045c-0.426-0.36-0.644-0.83-0.64-1.476l-1.253-0.006c-0.005 0.985 0.352 1.819 1.085 2.438l0.808-0.957zM16.132 27.565c0-0.421 0.082-0.781 0.236-1.095l-1.126-0.551c-0.23 0.468-0.364 1.018-0.364 1.6 0 0.016 0 0.032 0 0.048l-0-0.002h1.252zM16.367 26.472c0.285-0.579 0.788-1.029 1.581-1.331l-0.445-1.171c-1.034 0.392-1.811 1.036-2.26 1.948l1.124 0.553zM17.95 25.142c0.833-0.32 1.763-0.485 2.796-0.485v-1.252c-1.168 0-2.252 0.186-3.245 0.568l0.45 1.17zM20.746 24.657c1.054 0 2.047 0.118 2.981 0.349l0.301-1.215c-0.966-0.245-2.074-0.386-3.216-0.386-0.023 0-0.046 0-0.069 0h0.004v1.253zM23.253 24.349l-0.152 1.963 1.249 0.098 0.152-1.964-1.248-0.097zM23.842 25.746c-0.533-0.112-1.149-0.18-1.78-0.189l-0.006-0v1.253c0.44 0 0.957 0.053 1.553 0.166l0.233-1.229zM29.952 26.746l-0.003 0.627 0.637 0.003-0.007-0.637-0.627 0.007zM29.683 25.933l-0.426 0.459 0.006 0.005 0.421-0.463zM28.124 25.994l0.434 0.452 0.004-0.005-0.438-0.447zM27.745 26.734l-0.618-0.101-0.12 0.723 0.733 0.004 0.003-0.627zM32.349 30.073l0.379 0.499 0.225-0.171 0.021-0.281-0.625-0.047zM30.998 30.575l-0.135-0.612-0.003 0.001 0.138 0.611zM26.301 30.403l-0.213 0.589 0.005 0.002 0.208-0.591zM25.231 29.835l-0.389 0.491 0.008 0.006 0.381-0.497zM24.515 28.936l-0.562 0.278 0.002 0.003 0.56-0.28zM25.249 25.138v0zM30.973 24.459l0.25-0.574-0.006-0.003-0.244 0.577zM32.41 25.78l-0.563 0.274 0.002 0.003 0.561-0.278zM32.655 26.875l0.625 0.045 0.002-0.023v-0.023h-0.627zM32.582 27.884l-0.003 0.627 0.585 0.003 0.042-0.584-0.624-0.045zM27.622 27.859l0.003-0.627-0.817-0.003 0.208 0.79 0.605-0.16zM28.332 28.734l-0.309 0.545 0.003 0.002 0.306-0.547zM32.136 28.52v-0.626h-0.125l-0.115 0.048 0.241 0.578zM32.466 28.52l0.625 0.047 0.051-0.674h-0.675v0.627zM30.579 26.739c-0.005-0.453-0.109-0.939-0.475-1.271l-0.842 0.928c-0.007-0.007 0.008 0.002 0.025 0.056 0.025 0.083 0.039 0.179 0.039 0.278 0 0.008-0 0.016-0 0.024l0-0.001 1.253-0.013zM30.109 25.474c-0.328-0.305-0.76-0.406-1.185-0.406v1.253c0.244 0 0.318 0.059 0.333 0.071l0.852-0.918zM28.925 25.068c-0.467 0-0.9 0.147-1.24 0.479l0.877 0.894c0.068-0.067 0.168-0.12 0.362-0.12v-1.253zM27.689 25.542c-0.294 0.283-0.497 0.659-0.562 1.080l-0.001 0.011 1.236 0.203c0.020-0.154 0.091-0.289 0.195-0.39l0-0-0.867-0.904zM27.741 27.361l2.208 0.012 0.007-1.252-2.208-0.013-0.007 1.252zM31.971 29.575c-0.137 0.104-0.472 0.248-1.108 0.388l0.269 1.224c0.661-0.146 1.227-0.335 1.595-0.615l-0.756-0.997zM30.86 29.964c-0.525 0.127-1.129 0.202-1.75 0.205h-0.002v1.253c0.662 0 1.339-0.080 2.028-0.236l-0.276-1.221zM29.108 30.168c-0.59 0-1.076-0.028-1.464-0.080l-0.168 1.241c0.461 0.062 1.006 0.092 1.631 0.092v-1.253zM27.645 30.088c-0.381-0.051-0.758-0.143-1.135-0.275l-0.417 1.181c0.455 0.16 0.917 0.273 1.384 0.335l0.168-1.241zM26.515 29.815c-0.345-0.121-0.644-0.282-0.911-0.483l0.009 0.006-0.762 0.994c0.356 0.274 0.772 0.492 1.238 0.66l0.427-1.177zM25.619 29.343c-0.227-0.185-0.411-0.414-0.539-0.675l-0.005-0.012-1.12 0.56c0.22 0.441 0.514 0.815 0.887 1.11l0.777-0.982zM25.076 28.659c-0.131-0.267-0.211-0.61-0.211-1.050h-1.253c0 0.588 0.105 1.129 0.34 1.605l1.123-0.556zM24.866 27.608c0-0.44 0.080-0.829 0.23-1.176l-1.149-0.499c-0.211 0.482-0.334 1.043-0.334 1.634 0 0.014 0 0.028 0 0.043l-0-0.002h1.253zM25.096 26.433c0.158-0.364 0.351-0.632 0.57-0.827l-0.834-0.936c-0.376 0.335-0.668 0.764-0.885 1.264l1.149 0.499zM25.666 25.605c0.674-0.6 1.7-0.947 3.179-0.947v-1.253c-1.659 0-3.030 0.39-4.013 1.266l0.834 0.935zM28.845 24.658c0.664 0 1.29 0.126 1.884 0.378l0.489-1.154c-0.693-0.302-1.501-0.478-2.35-0.478-0.008 0-0.016 0-0.025 0h0.001v1.253zM30.723 25.033c0.555 0.242 0.913 0.584 1.125 1.021l1.126-0.547c-0.359-0.739-0.958-1.276-1.75-1.622l-0.501 1.149zM31.849 26.057c0.117 0.237 0.179 0.505 0.179 0.817h1.253c0-0.487-0.101-0.947-0.31-1.371l-1.123 0.554zM32.030 26.829l-0.073 1.009 1.25 0.091 0.073-1.009-1.25-0.091zM32.585 27.257l-4.96-0.024-0.007 1.253 4.96 0.024 0.007-1.253zM27.016 28.019c0.147 0.555 0.504 0.976 1.007 1.26l0.616-1.091c-0.248-0.14-0.362-0.302-0.412-0.488l-1.211 0.319zM28.025 29.281c0.509 0.284 1.144 0.397 1.853 0.397v-1.252c-0.595 0-0.99-0.099-1.241-0.239l-0.611 1.094zM29.878 29.678c0.762 0 1.599-0.206 2.499-0.58l-0.482-1.156c-0.805 0.335-1.474 0.484-2.016 0.484v1.252zM32.135 29.146h0.331v-1.252h-0.33v1.252zM31.841 28.473l-0.116 1.554 1.25 0.093 0.116-1.553-1.25-0.093z">
            </path>
        </symbol>
        <symbol id="logo-tab" viewBox="0 0 34 32">
            <path fill="#f8d24e" style="fill: var(--color2, #f8d24e)"
                d="M17.412 14.169c1.636-4.385-1.75-6.784-3.994-8.363-0.429-0.321-0.858-0.623-1.205-0.898-0.607-0.508-1.065-1.176-1.31-1.939l-0.008-0.030c-0.12-0.37-0.189-0.795-0.189-1.237 0-0.4 0.057-0.787 0.162-1.153l-0.007 0.029c0.010-0.036 0.016-0.078 0.016-0.12 0-0.133-0.057-0.253-0.149-0.336l-0-0c-0.082-0.075-0.193-0.122-0.314-0.122-0.057 0-0.111 0.010-0.162 0.029l0.003-0.001c-0.755 0.295-1.458 0.709-2.081 1.225-0.592 0.454-1.070 1.025-1.404 1.682l-0.013 0.028c-0.32 0.627-0.508 1.368-0.51 2.152v0.001c-0.424 0.332-0.791 0.711-1.1 1.133l-0.011 0.016c-0.515 0.687-0.824 1.553-0.824 2.492 0 0.070 0.002 0.141 0.005 0.21l-0-0.010c-0.671 0.609-1.183 1.381-1.475 2.254l-0.011 0.038c-0.165 0.489-0.26 1.052-0.26 1.637 0 0.382 0.041 0.755 0.118 1.114l-0.006-0.035c-0.271 0.164-0.48 0.406-0.599 0.694l-0.003 0.010c-0.064 0.157-0.102 0.339-0.102 0.529 0 0.14 0.020 0.275 0.058 0.402l-0.003-0.010c0.087 0.304 0.272 0.571 0.527 0.761s0.567 0.292 0.886 0.289h0.030v2.493c0 0.253 0.102 0.496 0.283 0.675s0.427 0.279 0.683 0.279h0.751l1.223 10.473c0.025 0.233 0.137 0.449 0.313 0.605 0.178 0.156 0.406 0.243 0.644 0.243h5.089c0.238-0.001 0.466-0.087 0.644-0.244 0.172-0.151 0.288-0.362 0.317-0.6l0-0.005 1.223-10.473h0.751c0.256 0 0.501-0.1 0.683-0.279s0.282-0.422 0.282-0.675v-2.493h0.031c0 0 0 0 0 0 0.403 0 0.768-0.162 1.034-0.424l-0 0c0.274-0.27 0.429-0.639 0.429-1.022 0-0.005 0-0.011 0-0.017 0-0.398-0.164-0.757-0.429-1.014l-0-0-0.013 0.005zM6.399 6.214c0.619 2.294 3.004 3.197 5.179 4.004 0.070 0.043 0.154 0.068 0.244 0.068 0.197 0 0.366-0.121 0.436-0.292l0.001-0.003c0.020-0.049 0.031-0.107 0.031-0.167 0-0.154-0.076-0.291-0.194-0.374l-0.001-0.001c-0.053-0.038-0.116-0.066-0.185-0.078l-0.003-0c-2.342-0.878-4.552-1.696-4.72-4.041-0.005-0.070-0.007-0.152-0.007-0.234 0-0.596 0.134-1.16 0.374-1.665l-0.010 0.023c0.284-0.6 0.694-1.099 1.199-1.48l0.010-0.007c0.307-0.254 0.65-0.49 1.012-0.694l0.035-0.018c-0.011 0.132-0.018 0.286-0.018 0.441s0.006 0.309 0.019 0.461l-0.001-0.020c0.050 0.672 0.235 1.327 0.547 1.927 0.324 0.616 0.748 1.135 1.255 1.556l0.008 0.007c0.356 0.301 0.798 0.61 1.287 0.941 1.129 0.801 2.411 1.696 3.226 2.908 0.509 0.718 0.814 1.612 0.814 2.576 0 0.623-0.127 1.217-0.357 1.756l0.011-0.029h-1.897c-3.908 0.001-8.4-1.068-9.289-4.061-0.083-0.28-0.131-0.602-0.131-0.936 0-0.338 0.049-0.664 0.141-0.972l-0.006 0.024c0.19-0.638 0.54-1.179 1.005-1.595l0.003-0.003-0.021-0.021zM9.917 20.669l1.433 1.416-1.433 1.417-1.433-1.425 1.433-1.408zM13.204 24.388l-1.185 1.17-1.433-1.417 1.433-1.412 1.244 1.225-0.060 0.432zM9.917 27.636l-1.434-1.417 1.433-1.417 1.433 1.417-1.433 1.417zM9.261 24.15l-1.433 1.417-1.193-1.179-0.051-0.424 1.244-1.225 1.433 1.412zM7.167 26.219l-0.287 0.284-0.073-0.645 0.36 0.361zM7.017 27.67l0.811-0.802 1.574 1.569c0.009 0.037 0.019 0.067 0.032 0.097l-0.002-0.005h-2.317l-0.099-0.86zM12.011 26.868l0.811 0.801-0.098 0.848h-2.382l1.669-1.65zM12.955 26.504l-0.288-0.284 0.365-0.361-0.077 0.645zM13.384 22.797l-0.717-0.721 0.91-0.899-0.193 1.62zM12.006 21.432l-1.36-1.34h2.72l-1.36 1.34zM7.823 21.432l-1.359-1.34h2.72l-1.36 1.34zM12.457 30.49h-5.084c-0.016-0.002-0.028-0.014-0.030-0.030l-0-0-0.121-1.018h5.389l-0.116 1.018c-0.002 0.017-0.017 0.030-0.034 0.030-0 0-0 0-0 0v0h-0.004zM16.391 15.716h-1.493c-0.013-0.001-0.028-0.002-0.043-0.002-0.121 0-0.232 0.046-0.316 0.12l0-0c-0.094 0.085-0.153 0.207-0.153 0.343 0 0.067 0.014 0.131 0.040 0.189l-0.001-0.003c0.054 0.119 0.154 0.21 0.277 0.251l0.003 0.001c0.062 0.021 0.128 0.028 0.192 0.021h0.533v2.493c-0.002 0.017-0.017 0.030-0.034 0.030-0 0-0 0-0 0v0h-10.971c-0 0-0 0-0 0-0.017 0-0.032-0.013-0.034-0.030l-0-0v-2.493h8.499c0.12-0.012 0.225-0.067 0.301-0.149l0-0c0.076-0.082 0.123-0.192 0.123-0.313 0-0.241-0.186-0.439-0.423-0.458l-0.002-0h-9.439c-0.014 0.001-0.030 0.002-0.046 0.002-0.215 0-0.401-0.127-0.486-0.31l-0.001-0.003c-0.029-0.062-0.045-0.135-0.045-0.212 0-0.154 0.067-0.292 0.173-0.387l0-0c0.094-0.085 0.22-0.137 0.357-0.137 0.017 0 0.034 0.001 0.051 0.002l-0.002-0h0.974c0.12-0.012 0.225-0.067 0.301-0.149l0-0c0.075-0.082 0.121-0.191 0.121-0.311s-0.046-0.23-0.122-0.311l0 0c-0.076-0.083-0.182-0.138-0.3-0.149l-0.002-0h-0.858c-0.051-0.253-0.079-0.544-0.079-0.841 0-0.392 0.050-0.773 0.145-1.135l-0.007 0.031c0.174-0.671 0.477-1.255 0.883-1.751l-0.006 0.008c0.301 0.924 1.073 2.188 3.004 3.193 1.815 0.937 4.218 1.416 7.14 1.416h1.716c0.014-0.001 0.031-0.002 0.048-0.002 0.138 0 0.264 0.052 0.36 0.138l-0-0c0.106 0.096 0.173 0.235 0.174 0.389v0c0 0.154-0.067 0.292-0.173 0.388l-0 0c-0.094 0.085-0.22 0.137-0.357 0.137-0.017 0-0.035-0.001-0.052-0.002l0.002 0h0.031zM19.817 27.915l-0.343 0.526 0.007 0.005 0.336-0.531zM23.514 28.093l0.629-0.014-0.016-0.727-0.718 0.122 0.106 0.62zM23.557 30.027l0.16 0.609 0.48-0.127-0.011-0.496-0.629 0.014zM18.705 30.12l0.142-0.613h-0.004l-0.138 0.613zM16.31 29.051l0.407-0.479-0.001-0.001-0.405 0.48zM15.445 27.086l0.629 0.003v-0.003h-0.629zM15.746 25.71l-0.565-0.277v0.001l0.565 0.277zM17.675 24.065l0.223 0.587h0.003l-0.225-0.587zM23.853 23.905l0.627 0.049 0.041-0.531-0.517-0.128-0.151 0.61zM23.699 25.876l-0.117 0.619 0.69 0.13 0.055-0.7-0.627-0.049zM22.022 25.070c-0.944 0-1.737 0.1-2.317 0.356-0.297 0.13-0.567 0.314-0.764 0.574-0.187 0.245-0.299 0.556-0.299 0.893 0 0.006 0 0.011 0 0.017v-0.001h1.257c-0-0.004-0-0.009-0-0.013 0-0.051 0.017-0.099 0.046-0.137l-0 0.001c0.033-0.043 0.107-0.111 0.267-0.182 0.338-0.149 0.92-0.249 1.811-0.249v-1.259zM18.642 26.908c0 0.647 0.29 1.18 0.832 1.535l0.687-1.054c-0.187-0.122-0.261-0.26-0.261-0.481h-1.259zM19.482 28.447c0.513 0.325 1.191 0.448 1.951 0.448v-1.259c-0.656 0-1.055-0.111-1.279-0.252l-0.673 1.063zM21.433 28.895c0.747 0 1.476-0.060 2.187-0.181l-0.21-1.24c-0.64 0.109-1.299 0.164-1.977 0.164v1.257zM22.886 28.107l0.043 1.934 1.257-0.028-0.043-1.934-1.257 0.028zM23.398 29.419c-0.72 0.189-1.513 0.287-2.383 0.287v1.258c0.964 0 1.866-0.107 2.702-0.328l-0.32-1.216zM21.015 29.706c-0.889 0-1.607-0.070-2.168-0.199l-0.282 1.226c0.684 0.157 1.505 0.231 2.451 0.231v-1.258zM18.844 29.507c-0.601-0.135-1.034-0.277-1.323-0.419l-0.553 1.131c0.415 0.203 0.956 0.371 1.6 0.515l0.275-1.227zM17.521 29.088c-0.306-0.148-0.57-0.32-0.809-0.521l0.006 0.005-0.813 0.959c0.309 0.261 0.659 0.49 1.035 0.674l0.030 0.013 0.552-1.13zM16.718 28.571c-0.428-0.361-0.647-0.833-0.644-1.482l-1.258-0.006c-0.005 0.989 0.353 1.828 1.089 2.449l0.811-0.961zM16.074 27.086c0-0.423 0.083-0.785 0.237-1.099l-1.129-0.553c-0.247 0.505-0.366 1.060-0.366 1.653h1.258zM16.31 25.988c0.287-0.582 0.791-1.033 1.587-1.335l-0.446-1.175c-1.038 0.394-1.819 1.040-2.27 1.956l1.129 0.555zM17.9 24.651c0.836-0.321 1.771-0.486 2.808-0.486v-1.257c-1.173 0-2.261 0.186-3.259 0.57l0.451 1.174zM20.708 24.165c1.059 0 2.055 0.118 2.994 0.35l0.302-1.22c-0.969-0.246-2.082-0.387-3.228-0.387-0.024 0-0.048 0-0.072 0h0.004v1.257zM23.226 23.856l-0.154 1.972 1.254 0.097 0.154-1.971-1.254-0.098zM23.816 25.259c-0.654-0.124-1.253-0.19-1.793-0.19v1.259c0.442 0 0.961 0.053 1.559 0.166l0.235-1.235zM29.953 26.263l-0.004 0.629 0.639 0.004-0.007-0.639-0.628 0.007zM29.683 25.446l-0.428 0.461 0.006 0.005 0.422-0.466zM28.116 25.508l0.436 0.454 0.004-0.004-0.44-0.449zM27.735 26.251l-0.621-0.102-0.119 0.727 0.737 0.004 0.004-0.629zM32.36 29.604l0.38 0.501 0.226-0.171 0.021-0.283-0.627-0.047zM31.002 30.108l-0.135-0.614-0.004 0.001 0.139 0.614zM26.286 29.936l-0.215 0.591 0.005 0.002 0.21-0.593zM25.211 29.365l-0.39 0.493 0.008 0.006 0.383-0.498zM24.493 28.462l-0.564 0.279 0.001 0.003 0.562-0.282zM25.23 24.648v0zM30.978 23.966l0.252-0.576-0.006-0.003-0.245 0.579zM32.422 25.293l-0.566 0.275 0.001 0.004 0.565-0.279zM32.667 26.392l0.627 0.046 0.001-0.023v-0.023h-0.629zM32.593 27.405l-0.003 0.629 0.587 0.003 0.043-0.586-0.627-0.046zM27.612 27.381l0.004-0.629-0.821-0.004 0.209 0.794 0.608-0.161zM28.325 28.259l-0.309 0.548 0.002 0.001 0.307-0.549zM32.145 28.044v-0.629h-0.126l-0.116 0.048 0.242 0.58zM32.476 28.044l0.627 0.047 0.050-0.676h-0.678v0.629zM30.581 26.256c-0.005-0.455-0.11-0.943-0.476-1.276l-0.846 0.932c-0.007-0.007 0.007 0.001 0.026 0.055 0.018 0.058 0.037 0.154 0.038 0.302l1.258-0.014zM30.11 24.986c-0.33-0.306-0.763-0.407-1.189-0.407v1.257c0.245 0 0.32 0.059 0.334 0.071l0.855-0.921zM28.921 24.578c-0.469 0-0.904 0.146-1.244 0.48l0.88 0.899c0.069-0.068 0.17-0.121 0.365-0.121v-1.259zM27.681 25.055c-0.295 0.284-0.499 0.661-0.565 1.084l-0.001 0.011 1.241 0.204c0.020-0.155 0.092-0.29 0.196-0.391l0-0-0.871-0.908zM27.732 26.88l2.217 0.012 0.007-1.258-2.217-0.012-0.007 1.258zM31.98 29.103c-0.138 0.105-0.474 0.25-1.113 0.391l0.27 1.228c0.664-0.146 1.232-0.336 1.602-0.617l-0.759-1.003zM30.864 29.494c-0.609 0.138-1.195 0.206-1.759 0.206v1.257c0.664 0 1.344-0.080 2.037-0.237l-0.277-1.227zM29.105 29.7c-0.593 0-1.081-0.028-1.47-0.081l-0.168 1.247c0.462 0.063 1.010 0.092 1.638 0.092v-1.259zM27.635 29.619c-0.428-0.059-0.813-0.156-1.18-0.289l0.040 0.013-0.419 1.186c0.399 0.147 0.869 0.265 1.354 0.333l0.037 0.004 0.168-1.247zM26.5 29.345c-0.346-0.122-0.646-0.284-0.915-0.486l0.009 0.006-0.765 0.998c0.358 0.274 0.775 0.494 1.243 0.663l0.429-1.182zM25.601 28.871c-0.228-0.186-0.412-0.416-0.541-0.679l-0.005-0.012-1.125 0.562c0.219 0.443 0.519 0.815 0.884 1.11l0.006 0.005 0.781-0.986zM25.056 28.183c-0.132-0.267-0.211-0.612-0.211-1.054h-1.257c0 0.59 0.105 1.134 0.341 1.611l1.127-0.558zM24.845 27.129c0-0.442 0.080-0.833 0.231-1.18l-1.154-0.501c-0.211 0.484-0.334 1.047-0.334 1.639 0 0.015 0 0.029 0 0.044l-0-0.002h1.258zM25.076 25.948c0.159-0.366 0.353-0.636 0.572-0.831l-0.837-0.94c-0.378 0.336-0.671 0.767-0.889 1.269l1.153 0.501zM25.648 25.117c0.676-0.602 1.707-0.952 3.193-0.952v-1.257c-1.668 0-3.044 0.391-4.030 1.271l0.837 0.939zM28.841 24.165c0.666 0 1.295 0.127 1.892 0.38l0.491-1.158c-0.696-0.303-1.507-0.479-2.359-0.479-0.008 0-0.016 0-0.024 0h0.001v1.257zM30.726 24.543c0.557 0.243 0.917 0.587 1.129 1.025l1.131-0.55c-0.36-0.741-0.962-1.281-1.756-1.628l-0.503 1.153zM31.857 25.572c0.118 0.238 0.181 0.508 0.181 0.821h1.257c0-0.489-0.1-0.953-0.311-1.378l-1.128 0.557zM32.040 26.347l-0.074 1.013 1.254 0.091 0.074-1.013-1.254-0.091zM32.597 26.777l-4.981-0.025-0.006 1.258 4.981 0.024 0.006-1.258zM27.004 27.541c0.147 0.558 0.506 0.98 1.011 1.266l0.619-1.095c-0.249-0.141-0.364-0.304-0.414-0.491l-1.216 0.32zM28.018 28.808c0.511 0.285 1.148 0.4 1.861 0.4v-1.258c-0.597 0-0.996-0.099-1.247-0.24l-0.614 1.098zM29.879 29.207c0.765 0 1.605-0.207 2.508-0.583l-0.484-1.161c-0.809 0.336-1.479 0.486-2.025 0.486v1.258zM32.145 28.673h0.331v-1.257h-0.331v1.257zM31.849 27.997l-0.117 1.56 1.254 0.094 0.117-1.56-1.254-0.094z">
            </path>
        </symbol>
        <symbol id="smile" viewBox="0 0 30 32">
            <path fill="#fff" style="fill: var(--color1, #fff)"
                d="M16.536 8.8c0.637 0.35 1.64-0.169 2.242-1.159s0.573-2.075-0.063-2.424c-0.637-0.349-1.64 0.169-2.242 1.158s-0.573 2.075 0.063 2.424z">
            </path>
            <path fill="#000" style="fill: var(--color4, #000)"
                d="M18.667 5.297c0.579 0.318 0.592 1.37 0.027 2.298s-1.53 1.443-2.109 1.125c-0.579-0.318-0.592-1.37-0.027-2.298s1.53-1.442 2.109-1.125zM18.764 5.137c-0.683-0.375-1.746 0.159-2.375 1.192s-0.585 2.176 0.099 2.551c0.683 0.375 1.747-0.159 2.375-1.192s0.585-2.175-0.099-2.551z">
            </path>
            <path fill="#fff" style="fill: var(--color1, #fff)"
                d="M20.419 10.93c0.637 0.35 1.64-0.169 2.242-1.159s0.573-2.075-0.063-2.424c-0.637-0.349-1.64 0.169-2.242 1.159s-0.573 2.075 0.063 2.424z">
            </path>
            <path fill="#000" style="fill: var(--color4, #000)"
                d="M22.549 7.427c0.579 0.318 0.592 1.37 0.027 2.298s-1.53 1.443-2.109 1.125c-0.579-0.318-0.592-1.37-0.027-2.298s1.53-1.442 2.109-1.125zM22.647 7.267c-0.683-0.375-1.747 0.159-2.375 1.192s-0.584 2.176 0.099 2.551c0.683 0.375 1.747-0.159 2.375-1.192s0.585-2.175-0.099-2.551zM17.089 7.891c0.357 0.196 0.916-0.088 1.248-0.634s0.312-1.148-0.045-1.344c-0.357-0.196-0.916 0.088-1.248 0.634s-0.312 1.148 0.045 1.344z">
            </path>
            <path fill="#000" style="fill: var(--color4, #000)"
                d="M18.276 5.939c0.341 0.187 0.356 0.771 0.033 1.302s-0.863 0.81-1.204 0.623c-0.341-0.187-0.356-0.771-0.033-1.302s0.863-0.81 1.204-0.623zM18.309 5.885c-0.373-0.205-0.951 0.085-1.293 0.646s-0.316 1.182 0.057 1.386c0.373 0.205 0.951-0.085 1.293-0.646s0.316-1.182-0.057-1.387zM20.972 10.021c0.357 0.196 0.916-0.088 1.248-0.634s0.312-1.148-0.045-1.344c-0.357-0.196-0.916 0.088-1.248 0.634s-0.312 1.148 0.045 1.344z">
            </path>
            <path fill="#000" style="fill: var(--color4, #000)"
                d="M22.159 8.069c0.341 0.187 0.356 0.771 0.033 1.302s-0.863 0.81-1.204 0.623c-0.341-0.187-0.356-0.771-0.033-1.302s0.863-0.81 1.204-0.623zM22.192 8.016c-0.373-0.205-0.951 0.085-1.293 0.646s-0.316 1.182 0.057 1.387c0.373 0.205 0.951-0.085 1.293-0.646s0.316-1.182-0.057-1.387z">
            </path>
            <path fill="#fff" style="fill: var(--color1, #fff)"
                d="M17.855 7.134c0.215 0.118 0.52-0.002 0.682-0.268s0.119-0.577-0.096-0.695c-0.215-0.118-0.52 0.002-0.682 0.268s-0.119 0.577 0.096 0.695zM21.738 9.265c0.215 0.118 0.52-0.002 0.682-0.268s0.119-0.577-0.096-0.695c-0.215-0.118-0.52 0.002-0.682 0.268s-0.119 0.577 0.096 0.695z">
            </path>
            <path fill="#000" style="fill: var(--color4, #000)"
                d="M18.175 3.822c0.717 0.048 1.367 0.407 1.77 0.973 0.14 0.197 0.48 0.013 0.34-0.184-0.486-0.683-1.244-1.102-2.111-1.16-0.25-0.017-0.248 0.355 0.001 0.371zM22.227 6.045c0.717 0.048 1.367 0.407 1.77 0.973 0.14 0.197 0.48 0.014 0.34-0.184-0.486-0.683-1.244-1.102-2.111-1.16-0.25-0.017-0.248 0.355 0.001 0.371z">
            </path>
            <path fill="#fff" style="fill: var(--color1, #fff)"
                d="M5.322 17.943c0.593-0.19 0.809-1.091 0.483-2.014s-1.073-1.516-1.666-1.327c-0.593 0.19-0.809 1.091-0.483 2.014s1.073 1.516 1.666 1.327z">
            </path>
            <path fill="#000" style="fill: var(--color4, #000)"
                d="M4.165 14.678c0.54-0.173 1.254 0.412 1.561 1.277s0.109 1.741-0.431 1.914c-0.54 0.173-1.254-0.412-1.561-1.277s-0.109-1.741 0.431-1.914zM4.112 14.528c-0.637 0.204-0.876 1.15-0.535 2.114s1.134 1.58 1.771 1.376c0.637-0.204 0.876-1.15 0.535-2.114s-1.134-1.58-1.771-1.376z">
            </path>
            <path fill="#fff" style="fill: var(--color1, #fff)"
                d="M8.941 16.787c0.593-0.19 0.809-1.091 0.483-2.014s-1.073-1.516-1.666-1.327c-0.593 0.19-0.809 1.091-0.483 2.014s1.073 1.516 1.666 1.327z">
            </path>
            <path fill="#000" style="fill: var(--color4, #000)"
                d="M7.785 13.522c0.54-0.173 1.254 0.412 1.561 1.277s0.109 1.741-0.431 1.914-1.254-0.412-1.561-1.277c-0.306-0.865-0.109-1.741 0.431-1.914zM7.732 13.372c-0.637 0.204-0.876 1.15-0.535 2.114s1.134 1.58 1.771 1.376c0.637-0.204 0.876-1.15 0.535-2.114s-1.134-1.58-1.771-1.376zM5.022 17.096c0.333-0.107 0.456-0.606 0.276-1.115s-0.596-0.836-0.929-0.73c-0.333 0.107-0.456 0.606-0.276 1.115s0.596 0.836 0.929 0.73z">
            </path>
            <path fill="#000" style="fill: var(--color4, #000)"
                d="M4.377 15.276c0.318-0.102 0.719 0.218 0.894 0.713s0.059 0.98-0.259 1.082c-0.318 0.102-0.719-0.218-0.894-0.713s-0.059-0.98 0.259-1.082zM4.359 15.226c-0.348 0.111-0.479 0.625-0.293 1.148s0.617 0.857 0.964 0.746c0.348-0.111 0.479-0.625 0.293-1.148s-0.617-0.857-0.964-0.746zM8.641 15.94c0.333-0.107 0.456-0.606 0.276-1.115s-0.597-0.836-0.929-0.73c-0.333 0.106-0.456 0.606-0.276 1.115s0.596 0.836 0.929 0.73z">
            </path>
            <path fill="#000" style="fill: var(--color4, #000)"
                d="M7.997 14.12c0.318-0.102 0.719 0.218 0.894 0.713s0.059 0.98-0.259 1.082c-0.318 0.102-0.719-0.218-0.894-0.713s-0.059-0.98 0.259-1.082zM7.979 14.070c-0.348 0.111-0.479 0.625-0.293 1.148s0.617 0.857 0.964 0.746c0.347-0.111 0.479-0.625 0.293-1.148s-0.617-0.857-0.964-0.746z">
            </path>
            <path fill="#fff" style="fill: var(--color1, #fff)"
                d="M4.455 16.306c0.2-0.064 0.292-0.317 0.204-0.565s-0.321-0.397-0.522-0.333c-0.2 0.064-0.292 0.317-0.204 0.565s0.321 0.397 0.522 0.333zM8.039 15.050c0.2-0.064 0.291-0.317 0.204-0.565s-0.321-0.397-0.522-0.333c-0.2 0.064-0.292 0.317-0.204 0.565s0.321 0.397 0.522 0.333z">
            </path>
            <path fill="#000" style="fill: var(--color4, #000)"
                d="M3.169 14.006c0.088-0.303 0.244-0.616 0.564-0.748 0.298-0.123 0.632-0.046 0.919 0.070 0.196 0.080 0.345-0.203 0.147-0.283-0.382-0.155-0.82-0.24-1.213-0.072-0.414 0.177-0.628 0.57-0.743 0.968-0.057 0.197 0.268 0.259 0.325 0.064zM6.987 12.474c0.833 0.089 1.69-0.020 2.464-0.324 0.196-0.077 0.091-0.378-0.106-0.3-0.719 0.282-1.516 0.397-2.291 0.314-0.211-0.023-0.28 0.287-0.067 0.31z">
            </path>
            <path fill="#fff" style="fill: var(--color1, #fff)"
                d="M18.257 23.549c0.628 0.419 1.721-0.032 2.442-1.007s0.797-2.106 0.169-2.524c-0.628-0.419-1.721 0.032-2.442 1.008s-0.796 2.105-0.169 2.524z">
            </path>
            <path fill="#000" style="fill: var(--color4, #000)"
                d="M20.809 20.096c0.571 0.381 0.482 1.475-0.194 2.39s-1.729 1.365-2.3 0.984c-0.571-0.381-0.483-1.475 0.193-2.39s1.73-1.365 2.3-0.984zM20.926 19.938c-0.673-0.449-1.83 0.012-2.583 1.031s-0.818 2.209-0.144 2.659c0.673 0.449 1.83-0.012 2.583-1.031s0.818-2.209 0.144-2.659z">
            </path>
            <path fill="#fff" style="fill: var(--color1, #fff)"
                d="M22.085 26.102c0.628 0.419 1.721-0.032 2.442-1.008s0.796-2.105 0.169-2.524c-0.628-0.419-1.721 0.032-2.442 1.007s-0.796 2.106-0.169 2.524z">
            </path>
            <path fill="#000" style="fill: var(--color4, #000)"
                d="M24.637 22.649c0.571 0.381 0.482 1.475-0.194 2.39s-1.729 1.365-2.3 0.984c-0.571-0.381-0.483-1.475 0.194-2.39s1.73-1.365 2.3-0.984zM24.754 22.491c-0.674-0.45-1.83 0.012-2.583 1.031s-0.818 2.209-0.144 2.659 1.83-0.012 2.583-1.031c0.753-1.019 0.818-2.209 0.144-2.659zM19.531 22.274c0.352 0.235 0.96-0.011 1.358-0.55s0.435-1.166 0.083-1.401c-0.352-0.235-0.96 0.011-1.358 0.55s-0.435 1.166-0.083 1.401z">
            </path>
            <path fill="#000" style="fill: var(--color4, #000)"
                d="M20.953 20.349c0.336 0.225 0.295 0.832-0.091 1.356s-0.975 0.767-1.311 0.542c-0.336-0.225-0.295-0.832 0.092-1.356s0.975-0.766 1.311-0.542zM20.992 20.297c-0.368-0.245-0.997 0.005-1.405 0.558s-0.443 1.2-0.075 1.446 0.997-0.005 1.405-0.558c0.409-0.553 0.443-1.2 0.075-1.446zM23.414 24.864c0.352 0.235 0.96-0.011 1.358-0.55s0.435-1.166 0.083-1.401c-0.352-0.235-0.96 0.011-1.358 0.55s-0.435 1.166-0.083 1.401z">
            </path>
            <path fill="#000" style="fill: var(--color4, #000)"
                d="M24.836 22.939c0.336 0.225 0.295 0.832-0.091 1.356s-0.975 0.767-1.311 0.542c-0.336-0.225-0.295-0.832 0.092-1.356s0.975-0.766 1.311-0.542zM24.875 22.887c-0.368-0.245-0.997 0.005-1.405 0.558s-0.443 1.2-0.075 1.446c0.367 0.245 0.997-0.005 1.405-0.558s0.443-1.2 0.075-1.446z">
            </path>
            <path fill="#fff" style="fill: var(--color1, #fff)"
                d="M19.342 22.029c0.165 0.11 0.42 0.034 0.571-0.17s0.139-0.458-0.026-0.568c-0.165-0.11-0.42-0.034-0.571 0.17s-0.139 0.458 0.025 0.568zM23.242 24.709c0.165 0.11 0.42 0.034 0.571-0.17s0.139-0.458-0.025-0.568c-0.165-0.11-0.42-0.034-0.571 0.17s-0.139 0.458 0.026 0.568z">
            </path>
            <path fill="#000" style="fill: var(--color4, #000)"
                d="M20.309 18.519c0.776 0.026 1.467 0.378 1.924 0.974 0.154 0.201 0.468-0.046 0.315-0.246-0.517-0.674-1.327-1.083-2.204-1.113-0.261-0.009-0.298 0.377-0.035 0.385zM24.821 21.135c0.732 0.25 1.272 0.79 1.517 1.488 0.083 0.236 0.452 0.073 0.37-0.161-0.278-0.793-0.924-1.409-1.75-1.691-0.246-0.084-0.384 0.28-0.137 0.365z">
            </path>
            <path fill="#000" style="fill: var(--color4, #000)"
                d="M18.406 27.379c0.248-0.189 0.184-0.657-0.143-1.046s-0.794-0.551-1.043-0.362c-0.248 0.189-0.184 0.657 0.143 1.046s0.794 0.551 1.043 0.362z">
            </path>
            <path fill="#000" style="fill: var(--color4, #000)"
                d="M18.136 27.638c0.505 0.337 0.959 0.551 1.013 0.479s-0.312-0.405-0.818-0.742-0.959-0.551-1.013-0.479c-0.054 0.073 0.312 0.405 0.818 0.742z">
            </path>
            <path fill="#000" style="fill: var(--color4, #000)"
                d="M18.962 28.097c0.477 0.206 0.971 0.15 1.102-0.125s-0.148-0.665-0.626-0.871c-0.477-0.206-0.971-0.15-1.102 0.125s0.148 0.665 0.626 0.871z">
            </path>
        </symbol>
        <symbol id="telegram" viewBox="0 0 32 32">
            <path fill="#f8d24e" style="fill: var(--color2, #f8d24e)"
                d="M32 16c0 8.837-7.163 16-16 16s-16-7.163-16-16c0-8.837 7.163-16 16-16s16 7.163 16 16z"></path>
            <path fill="#84a178" style="fill: var(--color3, #84a178)"
                d="M12.869 18.376l-0.318 4.169c0.455 0 0.651-0.183 0.888-0.401l2.131-1.901 4.414 3.018c0.809 0.421 1.38 0.199 1.598-0.696l2.899-12.673c0.257-1.117-0.433-1.554-1.222-1.28l-17.032 6.086c-1.162 0.422-1.144 1.026-0.198 1.301l4.355 1.264 10.115-5.907c0.475-0.295 0.908-0.132 0.552 0.163l-8.182 6.856z">
            </path>
        </symbol>
        <symbol id="weight" viewBox="0 0 32 32">
            <path
                d="M14.178 0.547c-3.974 0.589-7.247 2.796-8.452 5.685-0.384 0.913-0.487 1.474-0.487 2.573 0.007 0.812 0.036 1.114 0.163 1.552 0.258 0.862 0.443 1.301 0.827 1.92l0.356 0.574-0.4 0.489c-3.154 3.924-3.501 9.444-0.871 13.793 0.982 1.631 2.586 3.235 4.151 4.169l0.466 0.273 12.743-0.108 0.302-0.165c1.057-0.596 2.548-1.926 3.383-3.004 1.208-1.569 2.064-3.472 2.413-5.546l0.010-0.074c0.118-0.74 0.118-2.933-0.007-3.63-0.377-2.148-1.182-3.988-2.452-5.62-0.244-0.309-0.436-0.568-0.436-0.589 0-0.014 0.133-0.237 0.288-0.489 0.354-0.564 0.649-1.216 0.85-1.907l0.014-0.055c0.199-0.719 0.199-2.516 0-3.235-0.709-2.551-2.836-4.679-5.843-5.851-0.843-0.331-2.284-0.683-3.214-0.797-0.864-0.101-2.999-0.080-3.804 0.043zM18.676 1.718c3.945 0.769 6.834 3.184 7.365 6.16 0.118 0.668 0.044 1.804-0.155 2.436-0.2 0.619-0.569 1.345-1.004 1.963-0.178 0.252-0.325 0.54-0.325 0.633s0.155 0.338 0.377 0.582c1.846 2.048 2.821 4.614 2.821 7.388-0.007 3.156-1.219 5.923-3.553 8.093-0.399 0.373-0.968 0.841-1.271 1.042l-0.554 0.373-12.211 0.051-0.473-0.302c-1.714-1.114-3.258-2.954-4.115-4.908-1.078-2.472-1.189-5.34-0.31-7.913 0.466-1.337 1.086-2.429 2.031-3.58 0.385-0.46 0.562-0.733 0.562-0.862 0-0.108-0.192-0.46-0.444-0.827-0.886-1.287-1.248-2.717-1.034-4.068 0.222-1.365 0.842-2.487 1.987-3.601 1.493-1.444 3.576-2.4 6.021-2.76 1.012-0.151 3.25-0.093 4.284 0.1z">
            </path>
            <path
                d="M14.509 2.983c-3.028 0.496-5.4 2.178-6.175 4.385-0.178 0.495-0.207 0.69-0.207 1.401s0.029 0.907 0.207 1.402c0.11 0.316 0.317 0.755 0.458 0.978 0.384 0.618 0.554 0.64 1.316 0.18 1.094-0.674 2.368-1.19 3.727-1.474l0.078-0.014c0.916-0.187 2.674-0.259 3.671-0.144 1.558 0.18 3.25 0.74 4.602 1.538 0.384 0.223 0.776 0.411 0.871 0.411 0.562 0 1.278-1.618 1.278-2.876 0-2.796-2.674-5.189-6.463-5.786-0.805-0.129-2.587-0.129-3.362 0zM18.166 4.133c1.271 0.273 2.437 0.791 3.317 1.473 1.182 0.913 1.817 2.186 1.713 3.414-0.036 0.489-0.221 1.15-0.332 1.222-0.030 0.014-0.444-0.158-0.916-0.388-0.926-0.453-2.004-0.832-3.131-1.081l-0.097-0.018c-0.687-0.144-0.975-0.165-2.511-0.158-1.515 0-1.832 0.021-2.489 0.158-1.138 0.244-2.025 0.547-3.118 1.064-1.1 0.524-1.042 0.532-1.241-0.116-0.258-0.841-0.096-1.955 0.406-2.796 0.267-0.445 0.997-1.186 1.529-1.553 1.012-0.697 1.899-1.013 3.804-1.358 0.391-0.071 2.564 0.029 3.066 0.137zM16.963 13.404c-0.207 0.26-0.207 0.504 0.007 0.712 0.14 0.137 0.281 0.172 0.791 0.209 1.034 0.075 1.983 0.38 2.815 0.865l-0.031-0.017c0.606 0.359 1.529 1.228 1.943 1.854 0.613 0.898 1.034 2.185 1.034 3.133 0 0.331 0.030 0.431 0.185 0.575 0.236 0.237 0.547 0.237 0.776 0 0.163-0.165 0.169-0.208 0.125-0.913-0.207-3.478-3.184-6.382-6.744-6.576l-0.74-0.044-0.162 0.202z">
            </path>
        </symbol>
        <symbol id="modal-close" viewBox="0 0 32 32">
            <path
                d="m17.253 16 7.369-7.369a.886.886 0 0 0-.047-1.207.89.89 0 0 0-1.206-.047L16 14.746 8.631 7.368A.892.892 0 0 0 7.369 8.63l7.378 7.369-7.378 7.369a.891.891 0 0 0-.05 1.304.89.89 0 0 0 1.304-.051l7.378-7.369 7.369 7.369a.885.885 0 0 0 1.206-.047.89.89 0 0 0 .047-1.206l-7.369-7.369z" />
        </symbol>
        <symbol id="icon-arrow-default" viewBox="0 0 82 32">
            <path
                d="M81.414 17.414c0.781-0.781 0.781-2.047 0-2.828l-12.728-12.728c-0.781-0.781-2.047-0.781-2.828 0s-0.781 2.047 0 2.828l11.314 11.314-11.314 11.314c-0.781 0.781-0.781 2.047 0 2.828s2.047 0.781 2.828 0l12.728-12.728zM0 18h80v-4h-80v4z">
            </path>
        </symbol>
        <symbol id="icon-arrow-hover" viewBox="0 0 102 32">
            <path
                d="M101.414 17.414c0.781-0.781 0.781-2.047 0-2.828l-12.728-12.728c-0.781-0.781-2.047-0.781-2.828 0s-0.781 2.047 0 2.828l11.314 11.314-11.314 11.314c-0.781 0.781-0.781 2.047 0 2.828s2.047 0.781 2.828 0l12.728-12.728zM0 18h100v-4h-100v4z">
            </path>
        </symbol>
        <symbol id="icon-arrow-focus" viewBox="0 0 69 32">
            <path
                d="M68.081 17.414c0.781-0.781 0.781-2.047 0-2.829l-12.728-12.728c-0.781-0.781-2.047-0.781-2.828 0s-0.781 2.047 0 2.828l11.314 11.314-11.314 11.314c-0.781 0.781-0.781 2.047 0 2.828s2.047 0.781 2.828 0l12.728-12.728zM0 18h66.667v-4h-66.667v4z">
            </path>
        </symbol>
        <symbol id="contacts-button" viewBox="0 0 32 32">
            <path stroke-linejoin="round" stroke-linecap="round" stroke-miterlimit="4" stroke-width="5.3333" d="M10.667 5.333l13.2 10.667-13.2 10.667"></path>
        </symbol>
    </defs>
</svg>