<?xml version="1.0" standalone="no"?>
<!DOCTYPE svg PUBLIC "-//W3C//DTD SVG 20010904//EN"
 "http://www.w3.org/TR/2001/REC-SVG-20010904/DTD/svg10.dtd">
<svg version="1.0" xmlns="http://www.w3.org/2000/svg"
 width="1792.000000pt" height="1792.000000pt" viewBox="0 0 1792.000000 1792.000000"
 preserveAspectRatio="xMidYMid meet">
<metadata>
Created by potrace 1.14, written by Peter Selinger 2001-2017
</metadata>
<g transform="translate(0.000000,1792.000000) scale(0.100000,-0.100000)"
fill="#000000" stroke="none">
<path d="M9280 17642 c-27 -3 -138 -45 -181 -68 -14 -7 -28 -11 -31 -8 -3 2
-11 -2 -18 -11 -7 -8 -18 -15 -24 -15 -11 0 -142 -59 -176 -80 -8 -5 -35 -19
-60 -32 -119 -59 -417 -243 -495 -305 -42 -33 -46 -36 -85 -63 -19 -13 -37
-27 -40 -30 -3 -3 -34 -28 -70 -55 -36 -28 -67 -52 -70 -55 -3 -3 -30 -25 -60
-50 -170 -138 -332 -311 -469 -500 -22 -30 -45 -61 -52 -68 -6 -7 -16 -23 -23
-35 -6 -12 -23 -40 -37 -62 -35 -54 -71 -118 -106 -185 -15 -30 -32 -58 -38
-62 -5 -4 -7 -8 -2 -8 4 0 -3 -21 -16 -47 -32 -63 -92 -217 -124 -317 -29 -89
-29 -87 -38 -135 -3 -19 -8 -37 -10 -41 -4 -6 -9 -29 -20 -87 -36 -190 -39
-210 -50 -373 -7 -101 -12 -170 -14 -182 -1 -5 -5 -8 -11 -8 -5 0 -20 -10 -32
-22 -13 -13 -46 -41 -73 -63 -47 -38 -238 -226 -316 -311 -81 -88 -259 -324
-259 -342 0 -6 -4 -12 -8 -14 -10 -4 -72 -105 -72 -117 0 -5 -4 -11 -8 -13
-19 -8 -174 -355 -187 -418 -2 -8 -10 -35 -19 -60 -8 -25 -20 -67 -26 -95 -7
-27 -14 -59 -16 -70 -3 -11 -8 -33 -11 -50 -8 -45 -11 -60 -13 -60 -1 0 -2 -8
-15 -125 -11 -103 -14 -158 -15 -271 l0 -106 -125 -126 c-69 -70 -125 -131
-125 -137 0 -5 -3 -10 -8 -10 -4 0 -32 -32 -62 -72 -30 -39 -63 -79 -72 -90
-10 -10 -18 -22 -18 -28 0 -5 -4 -10 -9 -10 -5 0 -12 -8 -16 -19 -3 -10 -15
-29 -26 -42 -25 -28 -133 -209 -180 -300 -18 -35 -38 -67 -43 -71 -6 -4 -7 -8
-2 -8 5 0 3 -7 -4 -15 -7 -8 -9 -15 -4 -15 5 0 5 -4 -1 -8 -13 -9 -55 -99 -55
-117 0 -8 -5 -15 -12 -15 -6 0 -9 -3 -5 -6 3 -3 -2 -25 -12 -47 -17 -41 -59
-156 -67 -187 -2 -8 -17 -64 -34 -124 -16 -61 -32 -125 -35 -144 -3 -19 -8
-39 -11 -44 -3 -5 -8 -26 -10 -46 -1 -20 -5 -48 -8 -62 -3 -14 -9 -47 -12 -75
-3 -27 -8 -68 -11 -90 -9 -63 -11 -559 -3 -570 4 -5 7 -25 8 -42 0 -18 1 -34
2 -35 3 -4 7 -37 14 -98 3 -30 8 -66 11 -80 19 -77 20 -73 -54 -129 -73 -54
-136 -119 -180 -186 -14 -22 -28 -42 -32 -45 -13 -11 -89 -195 -80 -195 1 0
-2 -12 -8 -26 -32 -87 -32 -268 0 -394 16 -60 80 -205 91 -205 5 0 6 -4 3 -10
-3 -5 -1 -10 4 -10 6 0 11 -5 11 -11 0 -6 6 -16 12 -24 7 -7 28 -33 47 -56 82
-105 273 -229 391 -254 8 -2 16 -4 18 -5 3 -3 10 -5 62 -15 64 -12 60 -12 121
-13 l57 -2 0 -707 c0 -390 1 -710 2 -713 0 -3 3 -23 5 -45 8 -80 31 -145 78
-217 42 -65 58 -82 122 -133 61 -49 80 -60 148 -85 76 -28 108 -31 369 -33
130 -1 239 -4 241 -7 3 -3 8 -34 11 -70 3 -36 8 -87 11 -114 2 -27 7 -64 10
-83 3 -20 8 -63 11 -97 3 -33 8 -72 10 -86 3 -14 7 -43 9 -65 10 -90 17 -152
22 -185 2 -19 6 -57 8 -85 2 -27 5 -50 6 -50 1 0 3 -16 4 -35 2 -19 6 -55 9
-80 4 -25 8 -64 11 -87 10 -89 16 -139 20 -168 4 -31 11 -91 20 -170 3 -25 8
-66 11 -92 4 -27 8 -61 9 -78 3 -26 8 -75 21 -180 2 -16 6 -50 8 -75 3 -25 8
-65 11 -90 4 -25 8 -62 10 -82 2 -21 6 -61 10 -90 9 -73 14 -115 21 -173 3
-27 7 -61 9 -75 2 -14 7 -54 11 -90 3 -36 8 -76 10 -90 1 -14 5 -47 8 -75 3
-27 9 -72 12 -100 4 -27 8 -63 10 -80 2 -27 7 -68 19 -165 2 -19 9 -78 15
-130 6 -52 13 -109 15 -126 4 -28 7 -55 22 -189 2 -22 6 -56 8 -75 3 -19 6
-51 9 -70 11 -107 18 -168 21 -190 2 -14 6 -47 10 -75 3 -27 8 -66 10 -85 3
-19 7 -60 10 -90 9 -78 13 -115 15 -115 1 0 3 -20 5 -45 8 -91 14 -145 15
-145 2 0 7 -43 15 -120 3 -33 8 -73 10 -90 3 -16 7 -50 10 -75 3 -25 7 -61 9
-80 3 -19 7 -62 11 -95 3 -33 8 -71 10 -85 3 -14 7 -52 11 -85 3 -33 7 -73 9
-90 2 -16 6 -50 9 -75 2 -25 7 -65 11 -90 3 -25 8 -61 10 -80 4 -41 15 -132
20 -175 2 -16 7 -59 10 -95 4 -36 8 -76 11 -90 2 -14 7 -50 9 -80 3 -30 7 -66
10 -80 5 -22 13 -98 19 -167 1 -12 5 -25 9 -29 4 -4 7 -17 7 -28 0 -12 17 -55
37 -96 52 -103 139 -187 245 -239 45 -22 85 -38 90 -35 4 3 8 2 8 -3 0 -4 19
-10 43 -12 66 -6 3018 -5 3057 2 61 10 107 28 205 81 28 16 145 132 145 145 0
6 5 11 11 11 5 0 8 4 4 9 -3 6 1 13 9 18 8 4 15 11 15 16 1 4 8 23 16 43 20
49 33 100 40 159 3 28 8 70 11 95 4 25 8 61 9 80 2 19 4 35 5 35 1 0 9 73 15
145 1 19 4 36 5 38 3 2 3 5 14 117 4 44 11 105 16 135 5 30 12 87 16 125 4 39
8 84 10 100 2 17 6 50 9 75 2 25 7 65 10 90 4 25 9 65 11 90 13 117 25 220 29
242 2 9 7 48 10 85 4 37 8 79 10 93 5 29 16 121 20 165 1 17 6 57 10 90 4 33
9 74 10 90 2 17 4 30 5 30 1 0 3 18 5 40 6 68 22 217 30 265 2 14 7 52 10 85
4 33 8 71 10 85 2 14 7 50 10 80 6 52 9 78 21 180 3 25 7 63 9 85 9 82 17 151
21 170 3 11 7 49 10 85 3 36 7 76 9 89 2 14 7 51 10 84 4 32 8 67 10 78 5 23
18 164 19 197 1 12 3 22 6 22 3 0 6 12 6 28 1 15 4 52 8 82 12 118 15 146 20
185 3 22 8 72 12 110 3 39 8 73 10 76 1 3 6 37 9 75 3 38 8 76 10 84 2 8 7 47
11 85 8 82 12 110 14 110 2 0 12 127 12 147 -1 10 2 18 6 18 4 0 7 19 8 43 0
42 11 155 19 199 5 26 13 98 20 178 3 30 7 66 10 80 5 26 12 82 20 160 10 99
17 166 20 182 2 9 6 43 9 75 4 32 8 74 11 93 2 19 7 58 10 85 3 28 8 66 10 85
3 19 7 58 10 85 9 87 14 117 20 124 4 3 115 7 248 8 133 0 251 3 262 6 136 33
210 72 291 153 79 78 133 179 151 279 4 22 7 367 7 767 l1 728 53 1 c28 1 55
2 60 3 4 1 27 6 52 10 57 10 124 29 173 49 20 9 38 16 40 15 4 -2 146 91 173
114 186 159 294 396 288 633 -1 44 -7 107 -14 140 -6 33 -13 67 -14 75 -1 9
-6 22 -11 30 -5 8 -11 23 -12 32 -7 47 -102 196 -165 261 -22 22 -25 32 -18
55 5 15 27 83 50 151 22 69 42 134 45 145 2 12 4 21 5 21 2 0 6 16 14 50 2 11
5 20 6 20 1 0 3 7 5 15 2 8 10 46 19 83 9 37 18 82 21 100 2 18 7 43 9 57 3
14 8 36 11 50 3 14 8 50 12 80 6 54 10 85 13 85 5 0 14 206 14 360 1 172 -5
287 -19 370 -3 17 -7 46 -9 65 -3 19 -5 35 -6 35 -1 0 -4 14 -5 30 -5 41 -11
68 -46 203 -17 64 -31 123 -32 130 0 6 -5 12 -10 12 -6 0 -7 3 -4 7 4 3 2 12
-4 20 -6 7 -9 13 -5 13 5 0 -10 47 -36 110 -13 30 -35 87 -43 110 -9 26 -55
121 -128 265 -11 22 -42 75 -68 118 -27 43 -49 81 -49 84 0 3 -13 22 -30 43
-16 21 -30 41 -30 45 0 16 -217 297 -329 425 -62 71 -407 420 -415 420 -3 0
-18 12 -34 28 -15 15 -57 52 -92 82 -35 30 -71 62 -79 70 -9 8 -75 62 -146
119 -72 57 -132 107 -135 110 -3 3 -13 11 -22 16 -9 6 -71 52 -137 103 -67 50
-124 92 -128 92 -3 0 -13 7 -22 16 -9 9 -95 72 -191 140 -96 68 -180 128 -187
134 -7 5 -16 10 -22 10 -5 0 -11 3 -13 8 -2 4 -32 29 -68 55 -36 27 -72 53
-80 60 -8 7 -32 23 -53 37 -20 14 -37 28 -37 33 0 4 -5 7 -10 7 -6 0 -49 29
-95 65 -47 36 -90 65 -94 65 -5 0 -11 4 -13 8 -1 4 -34 31 -73 59 -78 58 -71
53 -140 108 -238 190 -460 461 -604 737 -115 219 -200 476 -237 708 -3 19 -7
46 -10 60 -8 48 -18 216 -17 325 0 98 3 148 18 290 2 22 14 87 25 145 26 131
27 137 37 163 4 12 8 31 8 42 0 11 4 25 8 32 4 6 3 14 -2 17 -5 3 -7 15 -4 26
3 11 -7 45 -22 75 -34 70 -99 125 -167 141 -5 1 -9 3 -10 4 -5 4 -71 6 -98 2z
m-306 -724 c-8 -37 -8 -325 0 -438 9 -131 26 -266 46 -360 5 -25 12 -56 14
-70 3 -14 12 -52 21 -85 9 -33 18 -64 19 -70 14 -54 20 -72 29 -82 5 -7 7 -13
4 -13 -22 0 188 -488 215 -498 4 -2 8 -9 8 -16 0 -24 155 -255 259 -386 87
-108 405 -430 426 -430 3 0 49 -36 104 -80 54 -44 102 -80 106 -80 3 0 12 -6
20 -12 24 -23 50 -43 115 -88 36 -25 69 -49 75 -53 5 -5 55 -39 110 -77 55
-38 105 -73 112 -79 7 -6 16 -11 20 -11 4 0 19 -9 33 -20 14 -11 104 -76 200
-145 96 -68 184 -131 195 -139 240 -176 327 -243 360 -273 13 -13 27 -23 30
-23 4 0 75 -57 158 -127 140 -117 182 -154 272 -238 17 -16 51 -47 73 -67 23
-21 41 -38 39 -38 -1 0 38 -42 88 -93 100 -102 139 -146 204 -227 25 -30 51
-61 60 -67 8 -7 12 -13 8 -13 -6 0 0 -9 46 -63 49 -58 212 -315 264 -417 135
-263 226 -547 258 -810 3 -19 8 -62 12 -95 16 -119 9 -469 -11 -605 -8 -53
-17 -106 -21 -120 -2 -8 -7 -31 -10 -50 -5 -28 -16 -74 -30 -120 -1 -3 -5 -18
-9 -35 -13 -50 -63 -197 -84 -245 l-19 -45 -674 0 c-371 1 -679 4 -686 8 -6 4
-14 3 -18 -3 -4 -6 -12 -7 -18 -3 -6 4 -63 8 -127 9 -143 4 -294 12 -490 28
-30 3 -88 7 -129 10 -41 3 -110 10 -155 16 -80 10 -139 16 -226 25 -25 3 -56
7 -70 10 -14 3 -47 8 -75 11 -27 3 -61 8 -75 11 -14 4 -28 6 -32 5 -5 -1 -131
19 -208 34 -14 2 -61 11 -105 19 -44 8 -91 17 -105 21 -14 3 -34 7 -45 9 -11
2 -33 6 -50 10 -16 3 -41 8 -55 11 -14 3 -43 10 -65 16 -41 10 -55 13 -115 24
-19 4 -39 10 -45 13 -5 4 -23 8 -40 10 -16 2 -32 7 -33 12 -2 5 -7 7 -11 5 -4
-3 -48 6 -97 20 -49 14 -93 27 -99 28 -5 2 -23 6 -40 10 -16 4 -37 10 -45 13
-8 4 -18 7 -22 8 -5 2 -9 3 -10 5 -2 1 -10 3 -19 5 -20 4 -286 92 -314 104
-11 5 -36 14 -55 21 -19 7 -54 21 -77 31 -23 10 -48 20 -55 21 -7 2 -15 5 -18
8 -3 3 -23 11 -45 19 -60 20 -387 181 -488 240 -49 28 -93 51 -98 51 -5 0 -9
3 -9 8 0 4 -27 23 -60 41 -33 19 -60 39 -60 43 0 4 -7 8 -15 8 -8 0 -15 5 -15
10 0 6 -6 10 -13 10 -8 0 -22 9 -32 20 -10 11 -24 20 -31 20 -7 0 -14 3 -16 8
-1 4 -44 39 -94 79 -100 78 -170 139 -248 220 -97 98 -121 126 -242 276 -8 9
-14 21 -14 26 0 5 -4 11 -8 13 -5 2 -29 35 -53 73 -24 39 -47 71 -51 73 -4 2
-8 12 -8 22 0 10 -4 21 -9 24 -9 6 -101 189 -101 202 0 3 -7 20 -15 37 -17 39
-76 214 -80 242 -6 34 -15 79 -20 93 -3 7 -7 39 -11 70 -3 31 -9 71 -13 88 -9
33 -7 392 2 434 3 14 8 42 11 63 19 123 73 318 123 439 23 56 112 229 127 248
7 8 18 27 26 42 7 15 21 37 32 47 10 11 18 23 18 27 0 13 149 191 217 257 39
39 69 62 71 55 2 -7 6 -20 9 -28 3 -8 7 -19 9 -25 5 -21 58 -162 76 -205 76
-174 186 -362 285 -485 64 -79 102 -123 150 -172 28 -29 50 -53 48 -53 -2 0
19 -21 48 -47 28 -27 62 -58 74 -70 13 -12 56 -48 96 -80 39 -32 74 -60 77
-63 3 -3 23 -18 45 -35 22 -16 43 -34 47 -39 4 -6 8 -7 8 -2 0 5 10 0 23 -11
23 -21 232 -161 245 -164 4 -1 23 -12 42 -24 19 -12 42 -25 50 -28 8 -4 29
-15 45 -25 17 -11 77 -43 135 -73 58 -30 108 -58 112 -64 4 -5 8 -6 8 -2 0 5
30 -8 66 -27 36 -20 72 -36 80 -36 8 0 14 -4 14 -10 0 -5 3 -9 8 -8 7 1 49
-16 138 -58 28 -13 54 -24 57 -24 4 0 30 -11 59 -24 29 -13 91 -40 138 -59
114 -46 123 -50 135 -53 6 -1 44 -17 85 -34 41 -17 80 -33 85 -34 19 -5 50
-17 67 -27 10 -5 26 -9 36 -9 10 0 22 -4 28 -9 5 -5 67 -30 137 -55 71 -26
142 -53 159 -62 17 -9 40 -17 52 -19 11 -2 33 -6 47 -9 42 -7 121 14 170 47
104 68 142 207 87 323 -23 50 -95 119 -135 129 -15 3 -95 31 -178 61 -156 58
-167 62 -227 88 -20 9 -38 16 -41 16 -3 0 -18 5 -34 12 -15 6 -30 12 -33 12
-6 2 -218 85 -245 97 -11 4 -69 29 -130 54 -164 69 -253 110 -430 198 -88 44
-170 85 -182 91 -13 6 -23 15 -23 19 0 5 -4 6 -9 3 -5 -3 -14 1 -21 9 -7 8
-18 15 -25 15 -8 0 -15 3 -17 8 -1 4 -19 16 -38 26 -47 26 -228 144 -261 170
-14 12 -43 35 -65 51 -142 110 -281 246 -374 365 -19 25 -38 47 -42 48 -4 2
-8 7 -8 12 0 11 -70 113 -83 122 -7 4 -8 8 -3 8 5 0 4 6 -2 13 -49 60 -167
356 -188 467 -2 14 -7 36 -10 50 -17 72 -15 60 -30 185 -18 149 -7 456 20 582
4 15 9 40 11 56 9 52 14 72 30 132 24 91 66 219 76 230 5 5 9 17 9 27 0 10 4
18 8 18 5 0 9 6 9 13 0 17 94 211 105 215 4 2 8 10 8 17 0 12 125 204 166 255
135 166 272 303 410 407 27 20 51 40 54 43 3 3 21 17 40 30 19 13 42 31 50 40
8 8 23 20 31 25 9 6 45 30 80 55 35 25 98 66 139 92 41 26 80 52 87 58 7 5 16
10 21 10 5 0 15 7 22 15 7 9 15 13 18 11 2 -3 16 4 30 14 32 26 42 25 36 -2z
m-2967 -4947 c3 -24 61 -166 106 -261 91 -194 242 -423 402 -610 82 -96 320
-324 417 -400 10 -8 31 -25 46 -38 45 -39 261 -192 271 -192 5 0 11 -4 13 -8
13 -31 467 -282 673 -372 22 -10 66 -29 97 -44 31 -14 62 -26 68 -26 7 0 24
-7 38 -15 35 -19 229 -95 262 -101 13 -3 38 -11 55 -19 32 -14 93 -34 110 -36
6 -1 18 -5 27 -10 9 -5 40 -15 70 -23 29 -8 85 -24 123 -36 39 -12 81 -23 94
-26 14 -3 28 -7 33 -10 4 -3 18 -7 30 -10 32 -6 52 -11 143 -34 44 -12 89 -23
100 -25 54 -13 91 -19 98 -17 4 1 7 -1 7 -6 0 -4 10 -8 23 -8 12 -1 33 -4 47
-8 14 -3 39 -9 55 -11 17 -3 37 -8 45 -10 8 -2 31 -6 50 -9 19 -2 69 -11 110
-20 70 -14 113 -21 185 -32 17 -2 46 -7 65 -10 19 -3 49 -7 65 -9 17 -2 30 -4
30 -5 0 -1 16 -3 35 -5 37 -3 118 -13 160 -20 22 -4 77 -10 170 -20 14 -1 54
-6 90 -10 36 -4 90 -9 120 -11 30 -2 87 -6 125 -9 39 -4 99 -8 135 -10 36 -2
65 -4 65 -5 0 -2 104 -6 360 -15 99 -4 486 -8 860 -9 668 -3 681 -3 727 -24
59 -26 127 -93 155 -152 17 -36 21 -61 19 -125 -3 -91 -22 -139 -80 -197 -34
-34 -116 -85 -116 -72 0 4 -6 1 -13 -5 -10 -7 -164 -11 -513 -11 l-500 -1 -52
-24 c-207 -96 -208 -377 0 -469 51 -23 67 -24 238 -26 101 0 186 -3 188 -5 7
-7 5 -1395 -2 -1402 -3 -4 -1399 -7 -3101 -7 -2743 -1 -3096 1 -3100 14 -2 8
-4 327 -3 708 l0 692 2389 1 c1314 1 2392 2 2397 3 4 1 26 6 50 10 23 4 42 12
42 16 0 5 9 12 20 15 35 11 88 77 105 131 15 49 19 164 5 164 -3 0 -12 16 -19
35 -11 31 -99 120 -118 120 -5 0 -15 5 -23 10 -10 7 -956 11 -2695 12 -1474 1
-2707 4 -2740 6 -123 9 -240 111 -260 227 -3 19 -8 43 -11 53 -3 9 -2 17 3 17
5 0 8 12 7 28 -4 93 106 220 216 250 8 2 166 5 350 6 312 2 338 4 380 23 101
45 161 139 156 247 -4 102 -57 181 -152 226 -44 20 -61 21 -305 22 -287 1
-262 -6 -274 75 -19 120 -28 252 -28 398 0 156 6 236 28 385 11 71 12 74 14
80 2 3 4 19 6 35 2 17 13 64 25 105 12 41 22 82 24 90 2 17 43 145 56 175 11
26 20 58 19 69 0 5 4 12 11 16 6 4 12 13 13 21 8 53 232 451 289 514 7 8 29
34 48 59 35 46 42 49 47 17z m2598 -5600 c14 -1 -51 -71 -225 -242 -135 -132
-304 -299 -376 -370 -72 -71 -135 -129 -140 -129 -8 0 -105 94 -623 604 -72
70 -131 131 -131 135 0 4 1376 6 1495 2z m2352 0 c17 -1 -11 -33 -125 -145
-520 -511 -608 -596 -616 -596 -5 0 -79 69 -165 154 -263 260 -504 496 -548
537 -24 22 -43 41 -43 44 0 2 15 5 33 7 26 2 1392 1 1464 -1z m-1278 -950
c149 -146 163 -162 150 -178 -13 -17 -85 -88 -571 -568 l-217 -215 -403 400
-403 400 195 191 c107 105 289 283 403 395 l208 204 237 -234 c130 -129 311
-307 401 -395z m1416 307 c-4 -30 -7 -55 -20 -163 -2 -16 -6 -52 -9 -80 -15
-140 -18 -162 -22 -185 -4 -23 -13 -98 -19 -160 -7 -66 -16 -138 -22 -165 -3
-16 -7 -47 -7 -67 -1 -20 -4 -39 -7 -42 -2 -3 -94 85 -203 194 l-198 199 254
251 c139 137 254 250 255 250 2 0 1 -15 -2 -32z m-2896 -1168 c143 -140 308
-302 366 -359 l106 -105 -398 -393 c-219 -216 -402 -393 -407 -393 -15 0 -670
650 -674 670 -2 8 -5 30 -7 50 -2 19 -6 66 -10 104 l-8 68 349 343 348 342 38
-36 c21 -20 155 -151 297 -291z m2247 115 c120 -119 277 -272 347 -342 l128
-126 -5 -46 c-2 -25 -5 -46 -6 -46 -1 0 -3 -13 -4 -30 -12 -122 9 -95 -305
-405 -159 -157 -309 -305 -334 -329 l-45 -43 -254 250 c-139 138 -320 316
-402 397 l-148 147 198 195 c110 107 227 222 262 255 34 33 62 62 62 64 0 2
19 21 42 42 23 20 84 81 137 134 53 53 99 97 102 97 3 1 104 -96 225 -214z
m-808 -1533 c111 -110 202 -203 202 -206 0 -4 -81 -87 -179 -184 -99 -97 -277
-273 -395 -389 -119 -117 -220 -213 -225 -213 -5 0 -115 105 -245 233 -129
127 -305 301 -390 385 -86 84 -158 157 -161 162 -5 8 169 184 659 664 l138
136 197 -194 c108 -107 287 -284 399 -394z m-2243 -108 c53 -53 93 -99 90
-103 -23 -26 -150 -150 -152 -147 -1 1 -5 24 -7 50 -3 27 -7 65 -10 85 -3 20
-8 68 -11 106 -4 39 -9 78 -10 88 -2 9 -2 17 0 17 3 0 48 -43 100 -96z m3390
44 c-3 -29 -8 -66 -10 -83 -6 -40 -16 -132 -19 -173 -2 -18 -5 -34 -8 -37 -2
-2 -39 31 -81 73 l-78 78 98 97 c54 53 99 97 101 97 2 0 1 -24 -3 -52z m-2453
-970 c231 -230 421 -423 422 -430 1 -7 5 -19 9 -25 6 -10 -3 -13 -35 -14 -102
-1 -814 0 -823 1 -6 1 -14 2 -20 0 -34 -6 -408 -1 -415 6 -5 5 -11 36 -14 69
-3 33 -8 74 -10 90 -2 17 -7 57 -10 90 -4 33 -12 97 -17 143 l-11 82 228 225
228 225 24 -23 c13 -12 213 -210 444 -439z m2041 310 c71 -71 130 -128 131
-128 2 0 40 -37 85 -82 l82 -83 -5 -60 c-3 -33 -8 -78 -11 -100 -2 -22 -7 -60
-9 -85 -3 -25 -8 -72 -11 -105 -4 -33 -8 -73 -10 -88 -1 -15 -5 -31 -9 -34 -8
-8 -1326 -10 -1326 -2 0 3 50 55 111 115 61 60 200 197 309 304 109 107 241
237 294 289 53 51 96 98 96 102 0 5 4 9 9 9 5 0 31 22 57 50 40 42 50 48 63
37 9 -6 74 -69 144 -139z m180 -1313 c0 -11 -4 -42 -7 -70 -8 -71 -14 -126
-21 -192 -3 -32 -7 -68 -9 -80 -3 -12 -8 -50 -11 -85 -12 -117 -18 -133 -48
-133 -14 -1 -29 -4 -33 -8 -4 -3 -14 -2 -24 3 -10 5 -20 7 -23 4 -5 -5 -162
-6 -274 -2 -24 1 -45 0 -47 -3 -2 -2 -48 -2 -101 1 -53 3 -99 1 -102 -3 -3 -4
-11 -3 -19 4 -10 8 -14 8 -14 0 0 -7 -8 -8 -24 -1 -13 5 -26 7 -28 5 -4 -4
-85 -6 -145 -3 -24 1 -45 0 -47 -3 -2 -2 -48 -2 -101 1 -53 3 -99 1 -102 -3
-3 -4 -11 -3 -19 4 -10 8 -14 8 -14 0 0 -7 -8 -8 -24 -1 -13 5 -26 7 -28 5 -4
-4 -76 -6 -143 -4 -22 0 -44 0 -50 -1 -14 -2 -141 0 -203 3 -28 1 -52 -2 -52
-6 0 -4 -9 -3 -20 3 -14 8 -20 8 -20 0 0 -6 -5 -8 -11 -5 -15 10 -109 11 -109
2 0 -4 -9 -3 -20 3 -14 8 -20 8 -20 0 0 -6 -5 -8 -11 -5 -15 10 -109 11 -109
2 0 -4 -9 -3 -20 3 -14 8 -20 8 -20 0 0 -6 -5 -8 -11 -5 -15 10 -109 11 -109
2 0 -4 -8 -3 -19 2 -10 6 -20 8 -22 6 -5 -5 -76 -6 -136 -3 -24 1 -45 0 -47
-3 -2 -2 -48 -2 -101 1 -53 3 -99 1 -102 -3 -3 -4 -11 -3 -19 4 -10 8 -14 8
-14 0 0 -7 -8 -8 -24 -1 -13 5 -26 7 -28 5 -4 -4 -85 -6 -145 -3 -24 1 -45 -1
-48 -4 -7 -6 -54 2 -59 11 -2 3 -7 29 -10 56 -3 28 -8 68 -10 90 -3 22 -8 67
-11 100 -4 33 -9 76 -11 95 -9 67 -13 95 -19 154 -3 32 -8 62 -10 67 -3 4 1 9
7 12 7 2 690 3 1518 3 1499 -1 1505 -1 1503 -21z"/>
</g>
</svg>
